<svg xmlns="http://www.w3.org/2000/svg" xmlns:xlink="http://www.w3.org/1999/xlink" width="1080" zoomAndPan="magnify" viewBox="0 0 810 809.999993" height="1080" preserveAspectRatio="xMidYMid meet" version="1.0"><defs><clipPath id="1b98a998b2"><path d="M 473 337 L 528 337 L 528 447 L 473 447 Z M 473 337 " clip-rule="nonzero"/></clipPath><clipPath id="dc347cc391"><path d="M 536.988281 346.015625 L 521.976562 448.566406 L 459.59375 439.433594 L 474.605469 336.882812 Z M 536.988281 346.015625 " clip-rule="nonzero"/></clipPath><clipPath id="3e39c97c94"><path d="M 536.988281 346.015625 L 521.976562 448.566406 L 459.59375 439.433594 L 474.605469 336.882812 Z M 536.988281 346.015625 " clip-rule="nonzero"/></clipPath><clipPath id="3384a5fb66"><path d="M 510 429 L 613 429 L 613 506 L 510 506 Z M 510 429 " clip-rule="nonzero"/></clipPath><clipPath id="a3280ff1d0"><path d="M 566.632812 404.996094 L 620.011719 499.835938 L 562.054688 532.453125 L 508.679688 437.617188 Z M 566.632812 404.996094 " clip-rule="nonzero"/></clipPath><clipPath id="c598f09d8e"><path d="M 566.632812 404.996094 L 620.011719 499.835938 L 562.054688 532.453125 L 508.679688 437.617188 Z M 566.632812 404.996094 " clip-rule="nonzero"/></clipPath><clipPath id="ad884f8743"><path d="M 538 325 L 580 325 L 580 392 L 538 392 Z M 538 325 " clip-rule="nonzero"/></clipPath><clipPath id="9292e8730f"><path d="M 598.101562 377.28125 L 578.292969 392.613281 L 530.71875 331.140625 L 550.523438 315.8125 Z M 598.101562 377.28125 " clip-rule="nonzero"/></clipPath><clipPath id="5e517ab24f"><path d="M 598.101562 377.28125 L 578.292969 392.613281 L 530.71875 331.140625 L 550.523438 315.8125 Z M 598.101562 377.28125 " clip-rule="nonzero"/></clipPath><clipPath id="beba0c5142"><path d="M 598.101562 377.28125 L 578.292969 392.613281 L 530.71875 331.140625 L 550.523438 315.8125 Z M 598.101562 377.28125 " clip-rule="nonzero"/></clipPath></defs><path fill="#000000" d="M 454.34375 532.175781 C 461.492188 532.417969 460.148438 535.386719 461.585938 541.90625 C 475.351562 603.011719 545.089844 601.523438 593.824219 585.710938 C 602.214844 582.976562 611.378906 579.046875 618.570312 574.925781 C 622.839844 572.53125 626.152344 570.707031 629.554688 568.167969 C 647.253906 555.039062 640.058594 564.335938 658.191406 579.910156 C 663.800781 584.75 673.011719 589.542969 683.417969 589.160156 C 728.648438 587.484375 718.289062 493.261719 674.976562 465.035156 C 671.332031 462.6875 667.207031 460.53125 664.234375 457.558594 C 666.96875 438.53125 672.101562 432.109375 669.511719 405.75 C 660.78125 315.414062 574.347656 286.464844 494.394531 326.578125 C 481.441406 333.050781 469.070312 339.277344 455.445312 345.558594 C 445.375 350.207031 423.261719 359.886719 412.28125 361.371094 C 409.304688 357.15625 405.660156 347.617188 404.460938 342.105469 C 402.496094 333.382812 406.8125 335.492188 411.609375 323.320312 C 417.363281 308.847656 416.980469 292.695312 410.839844 278.703125 C 402.207031 259.003906 380.144531 240.601562 361.773438 252.007812 C 355.875 255.648438 354.148438 259.722656 350.597656 267.871094 C 341.867188 263.367188 320.714844 229.195312 261.914062 218.269531 C 198.792969 206.574219 153.609375 235.328125 118.738281 278.222656 C 82.335938 322.984375 81.472656 392.332031 106.078125 441.214844 C 121.332031 471.503906 147.328125 493.453125 174.953125 510.660156 C 189.054688 519.476562 205.125 526.570312 219.464844 535.292969 C 240.617188 548.183594 257.835938 556.714844 287.046875 554.605469 C 296.398438 553.886719 293.375 555.804688 298.941406 560.5 C 320.574219 578.761719 330.789062 566.683594 351.75 576.890625 C 359.710938 580.820312 366.136719 584.992188 375.683594 587.53125 C 410.410156 596.730469 442.738281 581.636719 451.800781 547.464844 C 453 542.863281 452.90625 536.730469 454.34375 532.175781 Z M 346.570312 458.132812 C 343.5 459.859375 344.648438 477.113281 331.605469 486.21875 C 326.953125 489.523438 321.964844 490.484375 315.726562 491.871094 C 306.664062 493.886719 310.261719 499.730469 317.839844 500.5 C 357.121094 504.429688 358.609375 451.421875 346.570312 458.132812 Z M 247.953125 455.546875 C 240.234375 458.277344 248.960938 471.3125 232.847656 480.945312 C 229.296875 483.054688 221.621094 484.921875 219.464844 487.273438 C 214.859375 492.304688 220.617188 496.761719 227.042969 496.378906 C 262.007812 494.171875 260.523438 451.039062 247.953125 455.546875 Z M 322.96875 367.84375 C 314.097656 371.722656 324.695312 388.019531 309.109375 396.453125 C 304.265625 399.089844 296.351562 398.851562 293.28125 402.203125 C 288.246094 407.667969 294.863281 412.222656 301.914062 412.222656 C 338.796875 412.363281 335.777344 362.234375 322.96875 367.84375 Z M 201 392.1875 C 199.65625 390.175781 199.65625 385.191406 197.351562 380.832031 C 189.871094 366.546875 173.660156 372.394531 163.011719 369.375 C 146.320312 364.582031 138.644531 352.363281 138.5 333 C 135.71875 335.636719 134.472656 340.765625 133.898438 344.648438 C 131.738281 359.023438 139.507812 370.621094 152.363281 376.324219 C 163.585938 381.355469 171.835938 377.8125 181.714844 380.636719 C 193.660156 384.136719 189.34375 395.734375 191.359375 404.648438 C 198.886719 407.140625 212.605469 397.605469 216.96875 394.105469 C 238.171875 377.09375 233.46875 330.890625 197.976562 324.855469 C 199.703125 327.539062 204.117188 329.789062 210.496094 338.703125 C 213.851562 343.351562 217.257812 350.351562 218.457031 356.914062 C 221.671875 374.3125 212.558594 387.300781 201 392.1875 Z M 371.988281 298.0625 C 371.796875 291.785156 370.117188 279.707031 377.699219 278.703125 C 380.957031 281.386719 380.046875 281.816406 380.816406 289.199219 C 381.871094 298.496094 385.613281 314.550781 390.214844 321.785156 C 395.445312 330.078125 401.535156 319.484375 403.261719 313.015625 C 408.683594 292.984375 393.667969 257.183594 372.324219 262.503906 C 355.15625 266.816406 360.429688 290.445312 371.988281 298.0625 Z M 220.855469 231.257812 C 174.761719 237.4375 147.804688 266.335938 129.003906 293.128906 C 105.789062 326.101562 97.394531 369.375 111.59375 415.144531 C 124.878906 457.988281 148.71875 479.699219 180.757812 499.253906 C 196.96875 509.125 212.507812 517.511719 229.632812 526.953125 C 246.753906 536.441406 268.003906 543.679688 291.699219 541.761719 C 379.136719 534.667969 442.113281 417.15625 383.453125 335.015625 C 367.671875 312.921875 350.886719 289.773438 333.332031 270.171875 C 312.660156 246.976562 267.140625 225.027344 220.855469 231.257812 Z M 415.683594 375.320312 C 422.257812 421.949219 414.871094 455.304688 390.3125 492.542969 C 387.433594 496.90625 383.742188 500.738281 381.199219 505.195312 C 384.269531 506.585938 406.234375 509.84375 403.503906 524.460938 C 396.785156 524.03125 391.558594 515.257812 378.703125 515.785156 C 368.632812 516.21875 361.148438 523.40625 355.203125 527.527344 C 348.632812 532.128906 341.867188 536.585938 333.617188 540.5625 C 323.355469 545.453125 317.980469 545.835938 306.949219 549.238281 C 309.539062 557.578125 324.503906 561.316406 336.015625 560.644531 C 334.816406 554.941406 331.605469 555.46875 333.667969 551.875 C 336.207031 549.8125 336.640625 549.863281 340.476562 551.585938 C 352.277344 556.859375 357.503906 570.324219 375.683594 576.269531 C 397.316406 583.3125 416.355469 578.902344 428.539062 566.300781 C 442.785156 551.585938 444.800781 535.246094 436.261719 515.785156 C 431.703125 505.433594 427.867188 502.464844 421.535156 495.898438 C 412.949219 487.03125 404.171875 484.203125 406.140625 477.542969 C 414.390625 473.851562 432.230469 490.386719 435.445312 494.171875 C 447.582031 508.3125 449.835938 520.820312 457.652344 519.765625 C 461.058594 512.816406 460.386719 493.023438 479.910156 466.28125 C 486.574219 457.125 512.285156 430.097656 522.210938 432.734375 C 522.742188 437.621094 517.65625 438.578125 509.886719 446.726562 C 495.210938 462.160156 484.320312 475.960938 476.742188 497.671875 C 464.03125 534.285156 474.824219 562.371094 501.203125 575.117188 C 526.480469 587.292969 570.417969 581.539062 596.171875 572.097656 C 610.128906 566.972656 621.785156 560.644531 632.195312 553.023438 C 637.710938 549 643.175781 544.445312 647.496094 540.277344 C 650.085938 537.832031 658.335938 526.28125 660.683594 527.816406 C 668.648438 535.773438 645.910156 547.082031 654.496094 557.433594 C 659.054688 562.945312 669.605469 574.253906 679.871094 575.023438 C 705.148438 576.988281 702.75 533.855469 696.273438 514.734375 C 691.191406 499.683594 674.402344 468.246094 652.148438 480.464844 C 643.511719 485.210938 607.972656 511.761719 595.933594 508.503906 C 596.078125 505.242188 608.546875 497.765625 613.96875 493.695312 C 633.777344 478.691406 651.332031 463.980469 655.121094 434.171875 C 666.824219 341.578125 592.574219 302.042969 510.03125 333.816406 C 488.925781 341.964844 464.464844 356.386719 441.152344 365.925781 C 434.964844 368.417969 420.242188 372.730469 415.683594 375.320312 Z M 415.683594 375.320312 " fill-opacity="1" fill-rule="evenodd"/><g clip-path="url(#1b98a998b2)"><g clip-path="url(#dc347cc391)"><g clip-path="url(#3e39c97c94)"><path fill="#000000" d="M 498.058594 361.273438 C 498.648438 361.777344 499.304688 362.371094 499.894531 362.871094 C 500.539062 363.546875 501.171875 364.304688 501.816406 364.980469 L 501.871094 365.152344 C 502.574219 366.003906 503.359375 366.863281 504.199219 367.902344 C 504.898438 368.75 505.738281 369.785156 506.417969 370.800781 C 507.109375 371.730469 507.707031 372.730469 508.234375 373.636719 L 508.902344 374.730469 C 509.164062 375.183594 509.496094 375.730469 509.738281 376.347656 C 509.992188 376.882812 510.300781 377.59375 510.609375 378.300781 C 510.722656 378.648438 510.851562 378.917969 510.964844 379.265625 C 511.078125 379.613281 511.191406 379.964844 511.386719 380.324219 C 511.695312 381.035156 511.925781 381.730469 512.164062 382.347656 C 512.542969 383.730469 512.90625 385.195312 513.203125 386.566406 C 513.382812 387.589844 513.5625 388.609375 513.675781 389.539062 C 513.742188 390.214844 513.820312 390.804688 513.96875 391.492188 C 514 391.828125 514.046875 392.085938 514.160156 392.433594 C 514.25 392.945312 514.339844 393.457031 514.433594 393.96875 C 514.5 394.640625 514.566406 395.316406 514.644531 395.90625 L 514.824219 396.929688 C 514.890625 397.601562 514.957031 398.277344 515.011719 399.03125 C 515.089844 399.625 515.078125 400.285156 515.074219 400.867188 L 515.0625 400.949219 C 515.035156 401.691406 515.066406 402.609375 515.03125 403.433594 C 514.980469 403.757812 515.003906 404.175781 514.957031 404.5 C 514.894531 404.90625 514.90625 405.40625 514.847656 405.8125 C 514.78125 407.382812 514.613281 409.101562 514.328125 411.050781 L 514.28125 411.375 C 514.066406 412.835938 513.839844 414.382812 513.519531 415.996094 C 513.449219 416.480469 513.296875 416.957031 513.226562 417.445312 C 513.179688 417.769531 513.0625 418.003906 513.015625 418.328125 L 512.96875 418.652344 C 512.882812 419.222656 512.730469 419.695312 512.648438 420.265625 C 512.496094 420.742188 512.332031 421.296875 512.179688 421.773438 C 512.050781 422.085938 511.992188 422.492188 511.863281 422.808594 C 511.722656 423.203125 511.664062 423.609375 511.535156 423.921875 C 511.382812 424.398438 511.3125 424.882812 511.160156 425.359375 C 510.96875 426.078125 510.703125 426.785156 510.433594 427.496094 L 510.175781 428.121094 L 510.035156 428.515625 C 509.753906 429.304688 509.460938 430.175781 509.089844 431.03125 C 508.808594 431.820312 508.445312 432.597656 508.058594 433.539062 C 507.804688 434.164062 507.476562 434.699219 507.230469 435.242188 C 507.117188 435.476562 507 435.707031 506.882812 435.9375 C 506.441406 436.703125 506.066406 437.5625 505.703125 438.339844 C 505.472656 438.804688 505.308594 439.359375 505.074219 439.824219 L 504.945312 440.136719 C 504.839844 440.289062 504.816406 440.449219 504.792969 440.613281 C 504.664062 441.507812 505.179688 442.496094 505.941406 442.9375 C 506.078125 443.125 506.296875 443.324219 506.527344 443.441406 C 507.289062 443.882812 508.132812 444.339844 509.054688 444.804688 C 509.4375 445.027344 509.816406 445.25 510.128906 445.378906 L 510.429688 445.589844 C 510.726562 445.796875 511.039062 445.925781 511.351562 446.054688 C 511.664062 446.183594 511.964844 446.394531 512.34375 446.617188 C 513.023438 447.046875 513.949219 446.933594 514.691406 446.378906 L 515.050781 446.183594 C 515.410156 445.984375 515.621094 445.683594 515.84375 445.300781 L 516.039062 445.082031 C 516.261719 444.699219 516.5625 444.328125 516.785156 443.945312 C 517.007812 443.5625 517.238281 443.097656 517.449219 442.796875 C 517.578125 442.484375 517.796875 442.101562 518.007812 441.800781 L 518.242188 441.335938 C 518.460938 440.953125 518.601562 440.558594 518.730469 440.246094 C 518.835938 440.097656 518.859375 439.933594 518.964844 439.78125 C 519.210938 439.238281 519.453125 438.691406 519.699219 438.148438 C 520.050781 437.453125 520.410156 436.675781 520.679688 435.96875 C 520.9375 435.339844 521.195312 434.714844 521.453125 434.085938 C 521.730469 433.296875 522.09375 432.523438 522.457031 431.746094 C 523.167969 430.273438 523.566406 428.671875 524.035156 427.160156 L 524.1875 426.6875 C 524.328125 426.292969 524.398438 425.804688 524.539062 425.410156 C 524.855469 424.378906 525.183594 423.261719 525.433594 422.136719 L 525.46875 421.894531 C 525.738281 420.605469 526.101562 419.246094 526.292969 417.949219 C 526.351562 417.542969 526.425781 417.054688 526.484375 416.648438 C 526.601562 415.835938 526.734375 414.941406 526.933594 414.140625 L 527.003906 413.652344 C 527.078125 413.164062 527.230469 412.691406 527.300781 412.203125 C 527.3125 412.121094 527.3125 412.121094 527.324219 412.039062 C 527.417969 411.390625 527.527344 410.65625 527.5625 409.832031 C 527.6875 408.441406 527.714844 407.117188 527.835938 405.722656 L 527.835938 405.144531 C 527.910156 404.074219 527.960938 403.167969 527.929688 402.25 C 527.863281 401.578125 527.878906 400.914062 527.824219 400.160156 L 527.652344 399.636719 C 527.628906 399.21875 527.597656 398.882812 527.574219 398.464844 C 527.523438 397.128906 527.402344 395.699219 527.269531 394.351562 C 527.066406 392.910156 526.863281 391.472656 526.660156 390.03125 C 526.617188 389.773438 526.558594 389.601562 526.515625 389.34375 C 525.9375 385.941406 525.335938 383.28125 524.535156 380.839844 C 524.101562 379.28125 523.566406 377.875 523.015625 376.546875 C 522.902344 376.199219 522.707031 375.839844 522.589844 375.492188 C 522.476562 375.140625 522.351562 374.875 522.238281 374.527344 C 521.925781 373.816406 521.605469 373.1875 521.367188 372.570312 L 521.238281 372.304688 L 521.367188 372.570312 C 520.929688 371.59375 520.402344 370.6875 519.953125 369.792969 C 519.691406 369.339844 519.425781 368.886719 519.242188 368.445312 C 518.53125 367.09375 517.738281 365.734375 516.796875 364.265625 C 515.992188 362.988281 515.015625 361.765625 513.898438 360.355469 C 513.207031 359.425781 512.21875 358.285156 511.238281 357.0625 C 510.46875 356.121094 509.535156 355.152344 508.382812 353.988281 C 507.738281 353.3125 507.082031 352.71875 506.425781 352.125 L 505.59375 351.589844 L 505.375 351.390625 C 505.019531 351.007812 504.570312 350.691406 504.210938 350.308594 C 503.773438 349.910156 503.242188 349.585938 502.804688 349.1875 L 502.574219 349.070312 L 502.207031 348.769531 C 501.6875 348.359375 501.085938 347.941406 500.488281 347.519531 C 500.417969 347.425781 500.335938 347.414062 500.1875 347.3125 C 499.886719 347.101562 499.667969 346.902344 499.355469 346.773438 L 499.277344 346.761719 C 498.894531 346.539062 498.527344 346.238281 498.15625 345.933594 C 497.339844 345.316406 496.589844 344.792969 495.675781 344.242188 C 495.066406 343.90625 494.441406 343.648438 493.910156 343.320312 C 493.367188 343.074219 492.90625 342.84375 492.375 342.515625 C 491.613281 342.070312 490.75 341.777344 489.976562 341.417969 L 489.664062 341.289062 C 489.269531 341.148438 488.972656 340.9375 488.578125 340.796875 C 487.886719 340.445312 487.101562 340.164062 486.316406 339.886719 C 486.070312 339.847656 485.921875 339.746094 485.679688 339.707031 C 485.519531 339.683594 485.367188 339.582031 485.207031 339.554688 L 485.054688 339.453125 C 484.824219 339.335938 484.582031 339.300781 484.433594 339.195312 C 483.417969 338.796875 482.308594 338.46875 481.199219 338.140625 C 480.726562 337.988281 480.238281 337.917969 479.753906 337.84375 C 479.59375 337.820312 479.429688 337.796875 479.269531 337.773438 L 479.105469 337.75 C 479.027344 337.738281 478.945312 337.726562 478.78125 337.703125 C 478.296875 337.632812 477.882812 337.652344 477.371094 337.746094 C 477.117188 337.792969 476.851562 337.917969 476.652344 338.136719 C 476.558594 338.207031 476.480469 338.195312 476.46875 338.277344 C 476.28125 338.414062 476.175781 338.566406 475.992188 338.707031 C 475.699219 338.996094 475.574219 339.308594 475.511719 339.714844 C 475.488281 339.875 475.382812 340.027344 475.28125 340.179688 C 475.164062 340.410156 475.058594 340.5625 475.023438 340.804688 C 474.871094 341.28125 474.636719 341.746094 474.484375 342.21875 L 474.355469 342.53125 C 474.238281 342.765625 474.113281 343.078125 474.074219 343.320312 C 474.050781 343.484375 473.960938 343.554688 473.933594 343.714844 L 473.886719 344.042969 L 473.863281 344.203125 C 473.851562 344.285156 473.746094 344.4375 473.734375 344.515625 C 473.59375 344.910156 473.386719 345.214844 473.328125 345.621094 C 473.230469 346.269531 473.308594 346.863281 473.65625 347.328125 C 473.929688 347.699219 474.21875 347.992188 474.691406 348.144531 C 474.84375 348.25 474.992188 348.351562 475.152344 348.375 C 475.707031 348.542969 476.183594 348.691406 476.738281 348.859375 C 476.980469 348.894531 477.210938 349.011719 477.535156 349.058594 C 478.320312 349.339844 479.105469 349.621094 480.039062 350.003906 C 480.8125 350.367188 481.679688 350.660156 482.84375 351.164062 C 483.78125 351.546875 484.703125 352.015625 485.546875 352.472656 C 485.777344 352.589844 485.925781 352.691406 486.160156 352.808594 L 487.070312 353.359375 C 487.980469 353.90625 488.894531 354.457031 489.886719 355.015625 C 490.496094 355.355469 491.097656 355.773438 491.695312 356.195312 C 492.296875 356.613281 492.882812 357.113281 493.484375 357.535156 L 493.703125 357.730469 C 494.738281 358.546875 495.929688 359.46875 496.953125 360.367188 C 497.171875 360.5625 497.621094 360.878906 498.058594 361.273438 Z M 498.058594 361.273438 " fill-opacity="1" fill-rule="nonzero"/></g></g></g><g clip-path="url(#3384a5fb66)"><g clip-path="url(#a3280ff1d0)"><g clip-path="url(#c598f09d8e)"><path fill="#000000" d="M 543.941406 442.761719 C 544.753906 442.800781 545.683594 442.871094 546.496094 442.90625 C 547.46875 443.050781 548.484375 443.273438 549.457031 443.417969 L 549.617188 443.527344 C 550.75 443.777344 551.957031 443.988281 553.324219 444.308594 C 554.457031 444.5625 555.824219 444.878906 557.039062 445.285156 C 558.214844 445.613281 559.355469 446.058594 560.382812 446.46875 L 561.640625 446.949219 C 562.152344 447.15625 562.78125 447.394531 563.378906 447.75 C 563.933594 448.03125 564.648438 448.421875 565.359375 448.8125 C 565.679688 449.027344 565.957031 449.167969 566.277344 449.382812 C 566.597656 449.601562 566.917969 449.816406 567.3125 449.988281 C 568.023438 450.378906 568.664062 450.8125 569.261719 451.167969 C 570.464844 452.074219 571.707031 453.054688 572.835938 454.003906 C 573.644531 454.734375 574.453125 455.46875 575.144531 456.167969 C 575.632812 456.683594 576.078125 457.125 576.640625 457.601562 C 576.886719 457.859375 577.089844 458.042969 577.40625 458.257812 C 577.8125 458.625 578.214844 458.988281 578.621094 459.355469 C 579.109375 459.871094 579.597656 460.386719 580.042969 460.828125 L 580.449219 461.195312 L 580.851562 461.5625 C 581.339844 462.078125 581.828125 462.59375 582.359375 463.1875 C 582.804688 463.628906 583.21875 464.1875 583.589844 464.671875 L 583.632812 464.746094 C 584.089844 465.378906 584.703125 466.121094 585.203125 466.832031 C 585.371094 467.128906 585.65625 467.464844 585.828125 467.765625 C 586.039062 468.140625 586.367188 468.546875 586.578125 468.925781 C 587.53125 470.265625 588.496094 471.804688 589.511719 473.605469 L 589.679688 473.90625 C 590.441406 475.257812 591.246094 476.6875 592.015625 478.230469 C 592.269531 478.683594 592.449219 479.175781 592.699219 479.625 C 592.871094 479.925781 592.921875 480.195312 593.089844 480.496094 L 593.261719 480.796875 C 593.554688 481.320312 593.734375 481.816406 594.03125 482.339844 C 594.210938 482.832031 594.429688 483.402344 594.609375 483.894531 C 594.703125 484.238281 594.914062 484.613281 595.007812 484.957031 C 595.144531 485.375 595.355469 485.75 595.449219 486.09375 C 595.628906 486.585938 595.882812 487.035156 596.058594 487.53125 C 596.367188 488.25 596.597656 489.007812 596.828125 489.769531 L 597.015625 490.457031 L 597.152344 490.875 C 597.421875 491.710938 597.738281 492.621094 597.976562 493.574219 C 598.25 494.410156 598.449219 495.289062 598.730469 496.316406 C 598.917969 497.003906 598.988281 497.65625 599.132812 498.265625 C 599.183594 498.535156 599.238281 498.800781 599.289062 499.070312 C 599.410156 499.988281 599.648438 500.941406 599.847656 501.820312 C 599.949219 502.355469 600.171875 502.925781 600.273438 503.460938 L 600.371094 503.804688 C 600.378906 503.996094 600.464844 504.144531 600.546875 504.296875 C 601.011719 505.121094 602.078125 505.609375 603 505.488281 C 603.234375 505.554688 603.546875 505.578125 603.8125 505.523438 C 604.734375 505.402344 605.730469 505.238281 606.800781 505.03125 C 607.261719 504.96875 607.722656 504.90625 608.066406 504.8125 L 608.449219 504.796875 C 608.835938 504.777344 609.179688 504.683594 609.519531 504.589844 C 609.863281 504.492188 610.25 504.476562 610.710938 504.414062 C 611.554688 504.332031 612.253906 503.644531 612.519531 502.703125 L 612.691406 502.308594 C 612.867188 501.914062 612.847656 501.527344 612.785156 501.070312 L 612.808594 500.757812 C 612.75 500.296875 612.761719 499.796875 612.703125 499.335938 C 612.640625 498.875 612.539062 498.339844 612.519531 497.953125 C 612.425781 497.613281 612.363281 497.152344 612.34375 496.765625 L 612.242188 496.230469 C 612.179688 495.769531 612.042969 495.351562 611.949219 495.007812 C 611.941406 494.816406 611.855469 494.667969 611.847656 494.472656 C 611.699219 493.863281 611.554688 493.253906 611.410156 492.644531 C 611.253906 491.839844 611.058594 490.960938 610.828125 490.199219 C 610.640625 489.515625 610.449219 488.828125 610.261719 488.144531 C 609.992188 487.308594 609.792969 486.429688 609.597656 485.550781 C 609.242188 483.871094 608.546875 482.28125 607.96875 480.726562 L 607.792969 480.234375 C 607.65625 479.816406 607.402344 479.367188 607.265625 478.949219 C 606.867188 477.886719 606.425781 476.75 605.90625 475.65625 L 605.78125 475.429688 C 605.179688 474.1875 604.609375 472.824219 603.933594 471.621094 C 603.722656 471.246094 603.46875 470.796875 603.257812 470.421875 C 602.835938 469.667969 602.371094 468.84375 602.023438 468.046875 L 601.769531 467.597656 C 601.515625 467.148438 601.335938 466.652344 601.082031 466.203125 C 601.039062 466.128906 601.039062 466.128906 600.996094 466.054688 C 600.660156 465.453125 600.277344 464.777344 599.78125 464.066406 C 598.988281 462.832031 598.160156 461.714844 597.367188 460.480469 L 596.996094 459.996094 C 596.371094 459.0625 595.828125 458.277344 595.214844 457.535156 C 594.726562 457.019531 594.3125 456.460938 593.78125 455.867188 L 593.300781 455.542969 C 593.015625 455.210938 592.769531 454.953125 592.484375 454.621094 C 591.582031 453.542969 590.5625 452.4375 589.585938 451.402344 C 588.492188 450.335938 587.394531 449.273438 586.300781 448.207031 C 586.097656 448.023438 585.9375 447.914062 585.738281 447.730469 C 583.070312 445.277344 580.855469 443.457031 578.621094 441.945312 C 577.257812 440.929688 575.902344 440.109375 574.59375 439.363281 C 574.273438 439.144531 573.878906 438.972656 573.558594 438.757812 C 573.238281 438.539062 572.960938 438.398438 572.644531 438.183594 C 571.929688 437.792969 571.257812 437.480469 570.660156 437.125 L 570.382812 436.984375 L 570.660156 437.125 C 569.667969 436.59375 568.644531 436.179688 567.695312 435.726562 C 567.183594 435.519531 566.671875 435.3125 566.234375 435.0625 C 564.773438 434.402344 563.238281 433.78125 561.507812 433.171875 C 560.015625 432.628906 558.410156 432.242188 556.574219 431.792969 C 555.402344 431.464844 553.839844 431.15625 552.238281 430.773438 C 550.988281 430.484375 549.589844 430.285156 547.878906 430.058594 C 546.90625 429.914062 545.976562 429.84375 545.046875 429.773438 L 544.007812 429.863281 L 543.695312 429.839844 C 543.152344 429.753906 542.574219 429.78125 542.03125 429.691406 C 541.410156 429.644531 540.757812 429.714844 540.136719 429.667969 L 539.867188 429.722656 L 539.367188 429.707031 C 538.671875 429.703125 537.898438 429.742188 537.128906 429.777344 C 537.011719 429.746094 536.9375 429.789062 536.742188 429.796875 C 536.359375 429.816406 536.046875 429.792969 535.707031 429.886719 L 535.628906 429.929688 C 535.171875 429.992188 534.667969 429.976562 534.164062 429.960938 C 533.082031 429.976562 532.121094 430.023438 531.007812 430.15625 C 530.277344 430.269531 529.59375 430.457031 528.941406 430.527344 C 528.328125 430.675781 527.792969 430.777344 527.140625 430.847656 C 526.21875 430.972656 525.308594 431.285156 524.429688 431.484375 L 524.085938 431.578125 C 523.667969 431.714844 523.285156 431.734375 522.867188 431.871094 C 522.0625 432.027344 521.226562 432.296875 520.390625 432.570312 C 520.164062 432.699219 519.972656 432.707031 519.746094 432.835938 C 519.59375 432.917969 519.402344 432.929688 519.253906 433.011719 L 519.058594 433.023438 C 518.792969 433.074219 518.566406 433.203125 518.375 433.210938 C 517.269531 433.535156 516.132812 433.976562 514.996094 434.417969 C 514.503906 434.597656 514.050781 434.851562 513.601562 435.105469 C 513.449219 435.191406 513.300781 435.273438 513.148438 435.359375 L 513 435.445312 C 512.925781 435.488281 512.847656 435.527344 512.699219 435.613281 C 512.246094 435.867188 511.914062 436.152344 511.546875 436.558594 C 511.363281 436.761719 511.222656 437.039062 511.199219 437.347656 C 511.167969 437.464844 511.09375 437.507812 511.132812 437.582031 C 511.070312 437.816406 511.078125 438.011719 511.011719 438.246094 C 510.957031 438.671875 511.050781 439.015625 511.261719 439.390625 C 511.347656 439.539062 511.355469 439.734375 511.363281 439.925781 C 511.417969 440.195312 511.425781 440.386719 511.550781 440.613281 C 511.730469 441.105469 511.835938 441.640625 512.011719 442.132812 L 512.105469 442.476562 C 512.160156 442.742188 512.253906 443.085938 512.378906 443.3125 C 512.464844 443.460938 512.429688 443.578125 512.515625 443.730469 L 512.601562 443.878906 L 512.683594 444.03125 L 512.769531 444.179688 C 512.8125 444.257812 512.820312 444.449219 512.863281 444.523438 C 513 444.941406 513.019531 445.328125 513.230469 445.703125 C 513.566406 446.304688 514.015625 446.746094 514.601562 446.910156 C 515.070312 447.039062 515.5 447.097656 515.992188 446.917969 C 516.183594 446.910156 516.378906 446.898438 516.527344 446.8125 C 517.097656 446.59375 517.589844 446.414062 518.160156 446.195312 C 518.382812 446.066406 518.652344 446.015625 518.953125 445.84375 C 519.789062 445.574219 520.625 445.300781 521.652344 445.019531 C 522.53125 444.820312 523.445312 444.503906 524.742188 444.171875 C 525.769531 443.886719 526.839844 443.679688 527.835938 443.515625 C 528.105469 443.464844 528.296875 443.457031 528.566406 443.402344 L 529.679688 443.273438 C 530.792969 443.140625 531.90625 443.007812 533.09375 442.832031 C 533.820312 442.71875 534.59375 442.683594 535.363281 442.644531 C 536.132812 442.605469 536.945312 442.644531 537.71875 442.605469 L 538.027344 442.628906 C 539.417969 442.636719 541 442.636719 542.433594 442.722656 C 542.742188 442.746094 543.320312 442.714844 543.941406 442.761719 Z M 543.941406 442.761719 " fill-opacity="1" fill-rule="nonzero"/></g></g></g><g clip-path="url(#ad884f8743)"><g clip-path="url(#9292e8730f)"><g clip-path="url(#5e517ab24f)"><g clip-path="url(#beba0c5142)"><path fill="#000000" d="M 538.992188 325.421875 C 539.40625 325.101562 540.058594 325.09375 540.582031 325.347656 C 577.308594 350.417969 579.59375 389.601562 579.625 390.070312 C 579.636719 390.722656 579.097656 391.304688 578.339844 391.394531 C 577.585938 391.484375 577.003906 390.945312 577.015625 390.109375 C 576.960938 389.824219 574.800781 351.867188 539 327.5625 C 538.394531 327.207031 538.222656 326.347656 538.578125 325.742188 C 538.683594 325.664062 538.785156 325.582031 538.992188 325.421875 Z M 538.992188 325.421875 " fill-opacity="1" fill-rule="nonzero"/></g></g></g></g></svg>