<?xml version="1.0" encoding="UTF-8"?>
<svg id="Comprehensive_Support" data-name="Comprehensive Support" xmlns="http://www.w3.org/2000/svg" viewBox="0 0 1080 1080">
  <defs>
    <style>
      .cls-1 {
        fill: #fff;
      }
    </style>
  </defs>
  <path class="cls-1" d="m1023.97,10.63c19.12,5.84,34.02,16.46,39.68,36.64,1.64,5.85,2.19,12.18,2.21,18.3.18,42.31.19,84.62.07,126.92-.1,36.59-20.51,58.29-56.95,56.33-28.17-1.52-51.56,5.65-74.79,21.48-38.88,26.49-79.59,50.31-119.54,75.23-2.59,1.61-5.29,3.04-10.15,5.82,5.87-34.73,11.42-67.54,17.26-102.07-14.61,0-28.58-.01-42.54,0-14.29.02-27.07-3.95-37.69-13.92-11.2-10.51-16.36-23.64-16.41-38.73-.14-44.37-.24-88.74.01-133.12.16-27.79,15.92-44,40.85-52.9h257.98Zm-161.9,204.39c-1.91,11.85-3.62,22.6-5.39,33.34-1.76,10.64-3.59,21.27-5.68,33.63,4.67-2.58,7.68-4.06,10.51-5.82,18.36-11.45,37.77-21.56,54.76-34.78,28.05-21.82,58.61-30.46,93.77-26.67,15.78,1.7,22-5.54,22.03-21.18.08-42.62.09-85.24,0-127.86-.03-14.58-6.02-20.77-20.63-20.79-76.99-.12-153.99-.12-230.98-.03-15.43.02-20.93,5.78-20.96,21.31-.06,41.25-.05,82.49,0,123.74.02,21.05,4.17,25.1,25.36,25.11,25.36.01,50.72,0,77.21,0Z"/>
  <path class="cls-1" d="m239.43,832.95c1.84-4.75,3.26-7.79,4.22-10.96,15.92-52.84,51.53-82.48,105.77-91.17,34.18-5.48,68.15-12.23,105.88-19.08-3.95-5.29-5.85-9.79-9.23-12.06-37.3-24.95-62.19-58.75-73.43-102.24-1.55-5.98-3.74-9.12-9.86-11.17-28.62-9.61-46.41-34.54-46.57-64.95-.22-39.9-.39-79.8.01-119.7,1.13-113.13,84.94-206.17,197.23-219.36,121.56-14.28,235.25,77.82,244.27,199.7,3.06,41.41,1.45,83.17,1.72,124.77.21,31.99.16,63.98,0,95.96-.16,34.58-21.66,56.77-56.27,55.31-19.54-.83-34.63,2.58-46.91,19.33-6.66,9.08-17.99,14.66-26.83,22.27-2.72,2.34-4.17,6.16-6.21,9.3,2.95,1.7,5.73,4.35,8.89,4.94,34.76,6.54,69.67,12.29,104.35,19.18,45.53,9.04,76.61,35.8,92.06,79.55,13.26,37.52,25.34,75.46,37.9,113.22.41,1.25.43,2.63.8,5.1h-361.83c-.44.78-.88,1.56-1.32,2.34,8.54,7.12,17.08,14.23,26.6,22.17-35.45,31.75-66.8,62.87-101.31,89.97-44.95,35.3-110.98,28-153.4-14.23-76.04-75.7-151.9-151.59-227.59-227.63-47.88-48.1-49.14-119.89-2.69-168.73,24.87-26.14,50.92-51.16,75.97-76.21,41.9,42.02,83.51,83.75,126.97,127.33-4.9,4.41-11.14,9.63-16.94,15.32-15.71,15.42-31.28,30.97-46.79,46.59-10.57,10.65-10.54,19.47.03,30.19,17.78,18.04,35.67,35.98,54.49,54.95Zm298.68-14.29c-3.38-3.17-5.92-5.44-8.32-7.84-20.19-20.17-40.21-40.52-60.72-60.35-2.87-2.77-8.48-4.77-12.33-4.13-33.87,5.62-67.54,12.41-101.43,17.87-34.32,5.53-60.72,21.26-74.28,54.44-4.79,11.73-8.58,23.91-12.09,36.1-.8,2.78.47,7.39,2.5,9.55,10.1,10.78,20.65,21.17,31.29,31.42,8.84,8.51,17.09,8.65,26.43.56,8.83-7.65,17.37-15.64,26.05-23.47,15.47-13.95,30.95-27.9,47.18-42.52,19.85,20.04,39.13,39.13,57.9,58.7,5.44,5.67,11.04,7.89,18.87,7.87,109.69-.23,219.38-.16,329.08-.17,3.67,0,7.33,0,12.6,0-8.71-25.98-16.37-50.48-25.13-74.59-11.4-31.38-34.28-49.88-66.97-55.98-35.43-6.61-71.01-12.47-106.36-19.52-8.35-1.67-13.27.42-18.81,6.12-21.3,21.93-43.04,43.43-65.45,65.94Zm184.86-357.08c0-29.57,3.55-58.91-.69-87.08-10.94-72.67-52.89-123.32-121.78-148.06-68.63-24.65-132.3-11.12-187.46,36.63-61.21,52.98-67.93,123.65-61.32,198.62,2.49-.94,5-1.84,7.47-2.83,2.76-1.11,5.48-2.3,8.27-3.47,0-3.39-.07-6.14.02-8.87.1-2.98.35-5.95.61-10.13,69.46,4.17,124.89-22.95,169.7-75.89,44.95,53.32,100.77,80.25,170.68,75.89v19.5c5.59,2.2,10.33,4.06,14.51,5.7Zm-186.33-50.9c-37.56,35.09-83.07,54.79-135.42,59.78,0,27.95,0,54.73,0,81.51,0,84.06,65.25,145.44,149.12,139.58,27.98-1.96,52.72-12.84,76.51-32.95h-88.19v-34.62c36.79,0,72.52-.21,108.25.18,6.93.08,11.34-1.84,13.16-8.35,4.59-16.42,11.54-32.71,12.82-49.41,2.25-29.4.75-59.07,1.31-88.62.14-7.56-4.08-8.15-9.58-8.74-30.84-3.32-59.73-12.83-86.09-29.06-14.24-8.76-27.48-19.14-41.89-29.3Zm-379.34,316.15c-26.12-25.96-51.88-51.56-77.7-77.23-41.23,32.32-45.87,90.65-8.72,128.08,76.52,77.11,153.31,153.95,230.42,230.48,37.27,36.99,95.95,32.48,127.76-7.7-25.89-26.08-51.65-52.04-77.48-78.05-26.2,20.44-51.32,18.96-75.58-5.21-38.73-38.57-77.55-77.06-115.8-116.11-6.49-6.63-11.93-15.32-14.97-24.06-6.56-18.86-.25-35.72,12.06-50.19Zm222.39,169.92c26.41,26.6,51.95,52.33,78.02,78.6,6.69-6.21,13.61-12.62,19.76-18.32-26.22-26.45-51.71-52.17-77.71-78.39-6.54,5.9-13.37,12.06-20.07,18.11ZM106.46,622.51c26.14,26.35,51.69,52.11,76.27,76.88,5.32-5.19,11.12-10.86,15.25-14.9-25.22-25.59-50.66-51.4-76.31-77.43-5.09,5.17-10.58,10.75-15.21,15.44Zm480.8,96.57c-33.73,9.71-65.38,9.26-99.11.28,18.19,18.02,34.22,33.91,49.45,49.01,15.54-15.43,31.57-31.34,49.65-49.29Zm107.93-95.98c29.02,4.37,32.89-7.91,28.31-42.46-6.95,4.36-15.58,6.88-18.87,12.51-5.01,8.59-6.32,19.33-9.44,29.95Zm-328.16-130.16c-11.88,8.07-16.88,17.72-16.42,30.23.43,11.58,5.24,20.56,16.42,27.05v-57.28Zm341.69,57.35c23.84-14.04,18.67-49.04,0-55.85v55.85Z"/>
  <path class="cls-1" d="m679.07,82.92c-3.44,11.18-6.54,21.24-9.78,31.76-155.55-41.53-296.69-14.92-420.41,88.9-71.18,59.74-116.97,136.3-141.01,229.07,16.69-9.9,30.99-18.38,46.19-27.4,5.87,9.73,11.45,18.98,17.47,28.98-33.4,20.07-65.98,39.65-99.72,59.93-19.91-33.13-39.61-65.92-59.88-99.66,9.76-5.88,19.03-11.45,29.07-17.5,10.6,17.45,20.85,34.34,31.71,52.21C118.06,264.99,217.11,150.02,376.12,90.41c99.3-37.23,200.61-37.72,302.95-7.49Z"/>
  <path class="cls-1" d="m909.12,839.91c-9.9-8.12-18.05-14.81-26.33-21.61,96.25-128.03,121.74-267.71,74.89-423.15-10.93,18.04-20.33,33.53-30.33,50.02-9.68-5.72-18.96-11.21-29.17-17.24,20.06-33.46,39.76-66.32,59.83-99.81,33.42,20.05,66.02,39.61,99.76,59.85-5.91,9.87-11.62,19.4-17.48,29.18-16.49-9.86-32.08-19.18-49.01-29.3,48.75,164.92,21.31,314.67-82.17,452.06Z"/>
  <path class="cls-1" d="m794.01,79.31h202.98v33.03h-202.98v-33.03Z"/>
  <path class="cls-1" d="m929.11,147.55v32.91h-135.38v-32.91h135.38Z"/>
  <path class="cls-1" d="m964.52,147.43h32.62v32.82h-32.62v-32.82Z"/>
</svg>