<?xml version="1.0" encoding="UTF-8"?>
<svg id="Outstanding_Results" data-name="Outstanding Results" xmlns="http://www.w3.org/2000/svg" viewBox="0 0 1080 1080">
  <defs>
    <style>
      .cls-1 {
        fill: #fff;
      }
    </style>
  </defs>
  <path class="cls-1" d="m551.3,13c14.08,4.94,29.13,8.12,42.05,15.2,24.34,13.35,31.65,24.76,47.22,63.06,9.82,0,20.03.16,30.23-.04,19.98-.39,35.7,6.87,47.03,23.92,1.98,2.98,7.83,4.75,11.9,4.77,53.75.31,107.51.07,161.26.26,39.37.14,68.69,21.34,78.25,56.84,2.19,8.14,2.89,16.9,2.89,25.37.15,260.21.15,520.42.09,780.64-.01,49.61-32.07,81.87-81.45,81.88-234.53.07-469.07.07-703.6,0-49.39-.01-81.44-32.27-81.45-81.88-.06-260.21-.05-520.42,0-780.64,0-50.01,32.14-82.1,82.27-82.23,53.41-.14,106.82-.14,160.23.1,6.48.03,10.44-1.63,14.06-7.38,9.05-14.37,22.99-21,39.74-21.52,11.61-.35,23.25-.07,34.27-.07,5.59-11.6,9.77-23.29,16.38-33.38,15.8-24.14,38.99-37.71,67.17-43.05,2.31-.44,4.54-1.23,6.81-1.86,8.22,0,16.44,0,24.65,0Zm296.64,231.79H230.01v684.15h617.93V244.79Zm-495-83.46c-4.87,0-8.59,0-12.32,0-49.99,0-99.98-.01-149.97,0-30.95.01-43.76,12.76-43.76,43.56,0,258.52,0,517.03,0,775.55,0,30.42,12.74,43.31,42.85,43.31,232.84,0,465.67,0,698.51,0,29.72,0,42.81-12.93,42.81-42.31.01-259.2.01-518.4,0-777.6,0-29.35-13.2-42.47-42.76-42.49-50.68-.03-101.35,0-152.03,0-3.62,0-7.23,0-11.25,0v41.31c4.25,0,7.91,0,11.57,0,41.43,0,82.86-.03,124.29.01,21.73.02,28.87,7.16,28.88,28.91.02,236.94.02,473.89,0,710.83,0,21.43-6.91,28.31-28.25,28.31-215.03.01-430.06.01-645.09,0-21.31,0-28.22-6.9-28.22-28.35-.02-236.94-.02-473.89,0-710.83,0-21.73,7.15-28.86,28.91-28.88,41.43-.04,82.86-.01,124.29-.01,3.66,0,7.32,0,11.55,0v-41.31Zm247.99-28.88c-.04-19.58,1.08-38.34-11.16-54.07-12.42-15.95-29.24-23.29-48.96-23.95-15.83-.53-30.32,3.98-42.94,13.99-20.71,16.42-21.69,39.6-20.62,64.03-4.97,0-8.66,0-12.35,0-19.5,0-39.01-.39-58.48.33-3.92.14-10.89,4.34-11,6.9-.91,20.69-.51,41.43-.51,62.38h288.29c0-19.26-.4-37.99.16-56.68.3-9.99-3.64-13.26-13.27-13.07-22.55.43-45.12.14-69.15.14Z"/>
  <path class="cls-1" d="m547.76,468c-57.21-.2-103.33-46.48-103.17-103.53.16-57.18,46.44-103.29,103.53-103.15,57.16.14,103.34,46.48,103.17,103.52-.18,57.18-46.53,103.36-103.53,103.17Zm.42-24.66c43.61-.14,78.6-35.34,78.47-78.93-.12-43.53-35.4-78.62-78.94-78.5-43.52.12-78.63,35.45-78.47,78.97.16,43.62,35.36,78.61,78.94,78.46Z"/>
  <path class="cls-1" d="m501.63,517.87c-45.07,0-90.13.02-135.2-.03-4.71,0-9.51-.05-14.1-.65-9.56-1.25-16.36-7.09-16.6-13.69-.23-6.61,6.12-12.55,15.64-14.19,3.83-.66,7.89-.99,11.84-.99,92.31-.05,184.63-.05,276.94,0,3.96,0,8,.31,11.85.93,10.17,1.65,16.4,7.54,15.93,14.65-.44,6.7-7.22,12.22-17,13.36-4.62.54-9.4.58-14.11.58-45.07.04-90.13.02-135.2.02Z"/>
  <path class="cls-1" d="m501.36,563.88c-44.34,0-88.68,0-133.02,0-2.91,0-5.83.09-8.72-.05-15-.73-24.36-6.8-23.86-15.39.49-8.46,9.46-14.04,24.46-14.06,94.49-.13,188.99-.13,283.48,0,15.45.02,24.45,5.94,24.29,14.84-.15,8.94-9.6,14.55-25.98,14.61-46.88.15-93.77.05-140.65.06Z"/>
  <path class="cls-1" d="m286.69,517.55c-5.88,0-11.79.4-17.63-.1-7.7-.65-12.67-6.12-13.06-13.4-.42-7.76,4.03-14.35,12.03-14.87,12.41-.81,24.95-.75,37.36.01,7.41.45,12.38,7.25,12.27,14.16-.11,7.25-5.62,13.44-13.34,14.09-5.84.5-11.75.1-17.63.1Z"/>
  <path class="cls-1" d="m287.01,534.66c5.88,0,11.79-.42,17.63.1,7.46.67,12.59,6.46,12.97,13.62.36,6.94-4.46,14.03-11.79,14.49-12.65.8-25.43.83-38.08.03-7.64-.48-11.98-6.93-11.77-14.38.21-7.34,5.09-13.06,12.68-13.75,6.07-.55,12.24-.11,18.36-.12Z"/>
  <path class="cls-1" d="m501.63,609.73c-45.07,0-90.13.02-135.2-.03-4.71,0-9.51-.05-14.1-.65-9.56-1.25-16.36-7.09-16.6-13.69-.23-6.61,6.12-12.55,15.64-14.19,3.83-.66,7.89-.99,11.84-.99,92.31-.05,184.63-.05,276.94,0,3.96,0,8,.31,11.85.93,10.17,1.65,16.4,7.54,15.93,14.65-.44,6.7-7.22,12.22-17,13.36-4.62.54-9.4.58-14.11.58-45.07.04-90.13.02-135.2.02Z"/>
  <path class="cls-1" d="m501.36,655.74c-44.34,0-88.68,0-133.02,0-2.91,0-5.83.09-8.72-.05-15-.73-24.36-6.8-23.86-15.39.49-8.46,9.46-14.04,24.46-14.06,94.49-.13,188.99-.13,283.48,0,15.45.02,24.45,5.94,24.29,14.84-.15,8.94-9.6,14.55-25.98,14.61-46.88.15-93.77.05-140.65.06Z"/>
  <path class="cls-1" d="m286.69,609.41c-5.88,0-11.79.4-17.63-.1-7.7-.65-12.67-6.12-13.06-13.4-.42-7.76,4.03-14.35,12.03-14.87,12.41-.81,24.95-.75,37.36.01,7.41.45,12.38,7.25,12.27,14.16-.11,7.25-5.62,13.44-13.34,14.09-5.84.5-11.75.1-17.63.1Z"/>
  <path class="cls-1" d="m287.01,626.52c5.88,0,11.79-.42,17.63.1,7.46.67,12.59,6.46,12.97,13.62.36,6.94-4.46,14.03-11.79,14.49-12.65.8-25.43.83-38.08.03-7.64-.48-11.98-6.93-11.77-14.38.21-7.34,5.09-13.06,12.68-13.75,6.07-.55,12.24-.11,18.36-.12Z"/>
  <path class="cls-1" d="m501.63,701.59c-45.07,0-90.13.02-135.2-.03-4.71,0-9.51-.05-14.1-.65-9.56-1.25-16.36-7.09-16.6-13.69-.23-6.61,6.12-12.55,15.64-14.19,3.83-.66,7.89-.99,11.84-.99,92.31-.05,184.63-.05,276.94,0,3.96,0,8,.31,11.85.93,10.17,1.65,16.4,7.54,15.93,14.65-.44,6.7-7.22,12.22-17,13.36-4.62.54-9.4.58-14.11.58-45.07.04-90.13.02-135.2.02Z"/>
  <path class="cls-1" d="m501.63,747.59c-45.07,0-90.13.02-135.2-.03-4.71,0-9.51-.05-14.1-.65-9.56-1.25-16.36-7.09-16.6-13.69-.23-6.61,6.12-12.55,15.64-14.19,3.83-.66,7.89-.99,11.84-.99,92.31-.05,184.63-.05,276.94,0,3.96,0,8,.31,11.85.93,10.17,1.65,16.4,7.54,15.93,14.65-.44,6.7-7.22,12.22-17,13.36-4.62.54-9.4.58-14.11.58-45.07.04-90.13.02-135.2.02Z"/>
  <path class="cls-1" d="m529.53,808.6c-73.3,0-146.6,0-219.9,0-4.81,0-9.63.09-14.42-.05-24.79-.73-40.26-6.8-39.44-15.39.81-8.46,15.63-14.04,40.43-14.06,156.21-.13,312.42-.13,468.63,0,25.54.02,40.41,5.94,40.16,14.84-.25,8.94-15.87,14.55-42.96,14.61-77.5.15-155.01.05-232.51.06Z"/>
  <path class="cls-1" d="m529.53,851.6c-73.3,0-146.6,0-219.9,0-4.81,0-9.63.09-14.42-.05-24.79-.73-40.26-6.8-39.44-15.39.81-8.46,15.63-14.04,40.43-14.06,156.21-.13,312.42-.13,468.63,0,25.54.02,40.41,5.94,40.16,14.84-.25,8.94-15.87,14.55-42.96,14.61-77.5.15-155.01.05-232.51.06Z"/>
  <path class="cls-1" d="m530.53,894.6c-73.3,0-146.6,0-219.9,0-4.81,0-9.63.09-14.42-.05-24.79-.73-40.26-6.8-39.44-15.39.81-8.46,15.63-14.04,40.43-14.06,156.21-.13,312.42-.13,468.63,0,25.54.02,40.41,5.94,40.16,14.84-.25,8.94-15.87,14.55-42.96,14.61-77.5.15-155.01.05-232.51.06Z"/>
  <path class="cls-1" d="m286.69,701.27c-5.88,0-11.79.4-17.63-.1-7.7-.65-12.67-6.12-13.06-13.4-.42-7.76,4.03-14.35,12.03-14.87,12.41-.81,24.95-.75,37.36.01,7.41.45,12.38,7.25,12.27,14.16-.11,7.25-5.62,13.44-13.34,14.09-5.84.5-11.75.1-17.63.1Z"/>
  <path class="cls-1" d="m287.01,718.38c5.88,0,11.79-.42,17.63.1,7.46.67,12.59,6.46,12.97,13.62.36,6.94-4.46,14.03-11.79,14.49-12.65.8-25.43.83-38.08.03-7.64-.48-11.98-6.93-11.77-14.38.21-7.34,5.09-13.06,12.68-13.75,6.07-.55,12.24-.11,18.36-.12Z"/>
  <path class="cls-1" d="m506.12,115.25c.41-17.75,15.53-32.38,33.21-32.13,18.21.25,32.92,15.58,32.5,33.87-.42,18.29-15.59,32.39-34.23,31.82-17.81-.55-31.9-15.57-31.48-33.55Zm32.84,12.55c3.93-5.51,8.11-8.91,7.59-11.25-.73-3.25-4.63-7.14-7.88-7.95-1.86-.47-7.1,4.51-7.22,7.2-.14,3.07,3.72,6.32,7.51,12Z"/>
  <path class="cls-1" d="m528.71,380.37c16.15-16.13,31.44-31.42,46.78-46.66,2.01-2,4.12-4.03,6.52-5.5,4.78-2.93,10.81-1.94,14.62,2,3.68,3.81,4.45,10.09,1.57,14.7-1.18,1.88-2.71,3.58-4.28,5.16-17.73,17.79-35.49,35.55-53.27,53.29-8.55,8.53-14.38,8.53-22.9.07-5.65-5.61-11.34-11.18-16.88-16.91-6.15-6.35-6.55-13.83-1.22-18.95,5.11-4.91,12.4-4.43,18.51,1.5,3.5,3.4,6.69,7.13,10.56,11.3Z"/>
  <path class="cls-1" d="m697.16,507.79c6.54-6.53,12.73-12.72,18.94-18.89.82-.81,1.67-1.63,2.64-2.23,1.93-1.19,4.38-.79,5.92.81,1.49,1.54,1.8,4.08.63,5.95-.48.76-1.1,1.45-1.73,2.09-7.18,7.2-14.37,14.39-21.56,21.57-3.46,3.45-5.82,3.45-9.27.03-2.29-2.27-4.59-4.53-6.83-6.84-2.49-2.57-2.65-5.6-.5-7.67,2.07-1.99,5.02-1.79,7.49.61,1.42,1.38,2.71,2.89,4.28,4.57Z"/>
  <path class="cls-1" d="m697.16,549.79c6.54-6.53,12.73-12.72,18.94-18.89.82-.81,1.67-1.63,2.64-2.23,1.93-1.19,4.38-.79,5.92.81,1.49,1.54,1.8,4.08.63,5.95-.48.76-1.1,1.45-1.73,2.09-7.18,7.2-14.37,14.39-21.56,21.57-3.46,3.45-5.82,3.45-9.27.03-2.29-2.27-4.59-4.53-6.83-6.84-2.49-2.57-2.65-5.6-.5-7.67,2.07-1.99,5.02-1.79,7.49.61,1.42,1.38,2.71,2.89,4.28,4.57Z"/>
  <path class="cls-1" d="m697.16,641.4c6.54-6.53,12.73-12.72,18.94-18.89.82-.81,1.67-1.63,2.64-2.23,1.93-1.19,4.38-.79,5.92.81,1.49,1.54,1.8,4.08.63,5.95-.48.76-1.1,1.45-1.73,2.09-7.18,7.2-14.37,14.39-21.56,21.57-3.46,3.45-5.82,3.45-9.27.03-2.29-2.27-4.59-4.53-6.83-6.84-2.49-2.57-2.65-5.6-.5-7.67,2.07-1.99,5.02-1.79,7.49.61,1.42,1.38,2.71,2.89,4.28,4.57Z"/>
  <path class="cls-1" d="m697.16,591.4c6.54-6.53,12.73-12.72,18.94-18.89.82-.81,1.67-1.63,2.64-2.23,1.93-1.19,4.38-.79,5.92.81,1.49,1.54,1.8,4.08.63,5.95-.48.76-1.1,1.45-1.73,2.09-7.18,7.2-14.37,14.39-21.56,21.57-3.46,3.45-5.82,3.45-9.27.03-2.29-2.27-4.59-4.53-6.83-6.84-2.49-2.57-2.65-5.6-.5-7.67,2.07-1.99,5.02-1.79,7.49.61,1.42,1.38,2.71,2.89,4.28,4.57Z"/>
  <path class="cls-1" d="m697.16,691.4c6.54-6.53,12.73-12.72,18.94-18.89.82-.81,1.67-1.63,2.64-2.23,1.93-1.19,4.38-.79,5.92.81,1.49,1.54,1.8,4.08.63,5.95-.48.76-1.1,1.45-1.73,2.09-7.18,7.2-14.37,14.39-21.56,21.57-3.46,3.45-5.82,3.45-9.27.03-2.29-2.27-4.59-4.53-6.83-6.84-2.49-2.57-2.65-5.6-.5-7.67,2.07-1.99,5.02-1.79,7.49.61,1.42,1.38,2.71,2.89,4.28,4.57Z"/>
</svg>