<?xml version="1.0" encoding="UTF-8"?>
<svg id="Personalized_Care" data-name="Personalized Care" xmlns="http://www.w3.org/2000/svg" viewBox="0 0 1080 1080">
  <defs>
    <style>
      .cls-1 {
        fill: #fff;
      }
    </style>
  </defs>
  <path class="cls-1" d="m1057.53,618.23c-1.09,4.11-2.62,8.16-3.18,12.35-3.91,29.05-17.42,53.13-38.42,73-24.27,22.95-49.48,44.93-73.46,68.17-13.62,13.2-27.34,26.92-37.78,42.57-8.42,12.63-12.24,28.41-17.59,42.98-2.07,5.65.14,9.88,6.08,12.86,18.72,9.37,28.25,25.01,28.66,45.83.47,23.72,1.01,47.46.41,71.16-.74,29.33-22.05,49.79-52.87,50.09-53.46.52-106.93,0-160.39-.02-22.05-.01-44.11.44-66.16.07-21.96-.38-38.4-10.19-47.53-30.66-1.72-3.87-3-8.29-3.06-12.48-.39-27.05-.81-54.11-.36-81.16.33-19.83,10.82-34.16,28.07-43,5.59-2.87,6.4-6.05,6.65-11.53,1.63-35.64,1.22-71.61,6.24-106.8,6.02-42.22,22.54-80.93,54.2-111.46,24.66-23.77,54.63-38.14,87.02-47.46,12.66-3.64,21.18-9.67,27.83-21.42,13.95-24.67,29.59-48.39,44.72-72.39,9.17-14.55,21.44-25.73,38.08-30.92,6.82-2.12,5.99-6.84,6.37-11.76,3.97-51.61,7.42-103.28,12.2-154.82,3.81-41.1,39.66-68.22,80.23-62.26,27.27,4,51.1,30.36,53.69,62.08,4.14,50.58,7.2,101.26,10.27,151.93,2.02,33.32,3.22,66.7,4.9,100.04.21,4.22,1.11,8.4,2.01,14.99m-297.08,296.03s0-.07,0-.11c23.06,0,46.11,0,69.17,0,6.34,0,14.57,2.47,18.49-.59,3.89-3.04,3.72-11.58,4.83-17.79,4.85-27.16,19.1-49.5,35.67-70.76,25.93-33.25,59.76-58.17,90.42-86.44,17.04-15.72,34.11-32.07,38.15-56.02,2.75-16.28,3.38-33.24,2.44-49.76-4.71-82.7-10.19-165.36-15.57-248.02-.76-11.65-1.77-23.35-3.78-34.83-2.37-13.54-12.76-21.96-25.81-22.43-11.49-.42-22.49,7.4-26.01,19.64-2.11,7.31-3.28,15.01-3.88,22.62-3.67,46.28-6.86,92.6-10.75,138.87-.58,6.9,1.28,10.13,7.21,13.23,24.38,12.7,36.56,33.36,37.36,60.64.55,19.07-9.44,34.42-18.79,49.85-23.88,39.39-47.93,78.67-71.79,118.07-8.48,14-19.66,18.83-30.17,12.55-11.33-6.76-12.56-17.27-3.78-32.22.85-1.44,1.7-2.87,2.58-4.29,16.83-27.27,33.73-54.5,50.46-81.83,9.93-16.22,20.09-32.33,29.18-49.01,5.95-10.92,4.14-22.24-3.91-31.79-8.04-9.54-19.38-14.04-30.52-9.14-8.51,3.74-16.7,11.22-21.84,19.12-17.46,26.85-33.46,54.64-50.09,82.02-5.97,9.84-14.58,16.34-25.7,19.48-6.1,1.72-12.16,3.55-18.28,5.21-60.16,16.28-99.01,54.12-109.3,115.89-6.05,36.33-5.57,73.75-8.08,110.67-.46,6.75,3.4,7.35,8.86,7.31,27.73-.2,55.47-.09,83.2-.09Zm-.41,40.39c0,.1,0,.2,0,.31-38.11,0-76.21.14-114.32-.11-7.78-.05-10.72,2.73-10.61,10.53.33,23.39.55,46.8.04,70.19-.19,8.56,3.76,11.29,11.08,11.74,3.67.22,7.35.35,11.02.35,67.53,0,135.06,0,202.59-.04,4.68,0,9.38.06,14.03-.35,6.71-.59,10.98-3.44,10.97-11.24-.05-22.38.16-44.76.59-67.13.2-10.64-4.49-14.51-15.07-14.4-36.77.39-73.54.15-110.31.15Z"/>
  <path class="cls-1" d="m341.63,253.5c-23.77-32.74-32.93-68.14-23.54-106.82,7.26-29.9,24.31-53.67,49.23-72.1,52.88-39.11,134.76-29.06,177.01,33.57,24.57-35.63,58.21-55.13,101.39-57.27,29.83-1.48,55.73,9.22,78.91,26.88,42.15,32.12,74.52,102.2,22.71,175.24,7.09,5.85,14.43,11.48,21.3,17.64,48.98,43.91,64.72,100.26,60.57,163.76-.98,14.93-9.03,21.12-26.05,21.28-23.73.23-47.46.06-71.2.06-3.59,0-7.17,0-10,0,.94,20.78,2.22,40.41,2.62,60.07.41,20.07-6.41,26.43-27.41,26.42-85.9-.05-171.81-.22-257.71-.32-16.71-.02-33.43.28-50.14.09-19.06-.21-25.36-6.48-25.52-25.28-.17-19.95-.04-39.9-.04-60.98-6.52,0-15.46,0-24.4,0-19.05,0-38.11.18-57.16-.08-15.82-.21-23.39-6.61-24.06-22.07-3.16-73.72,18.04-136.52,83.48-180.11Zm202.39,248.99c39.4,0,78.8-.08,118.2.03,23.65.06,24,.16,22.25-23.05-3.5-46.41-25.82-81.84-63.95-107.85-5.87-4-10.89-4.13-17.46-.63-38.24,20.37-77.1,22.11-115.69,1.19-9.06-4.91-15.7-3.85-23.59,1.87-40.82,29.62-60.5,69.81-61.4,119.85-.13,7.26,2.53,8.84,9.41,8.79,44.07-.31,88.15-.16,132.22-.19Zm.61-325.86c-47.45.42-86.77,39.51-86.36,85.84.41,46.35,39.13,84.78,85.26,84.63,48.95-.16,86.59-37.29,86.17-85-.42-47.56-38.56-85.89-85.06-85.48Zm125.07,80.92c63.67-15.79,86.04-93.04,42.77-140-35.4-38.41-103.72-36.97-135.55,11.21-6.7,10.14-6.8,10.94,4.48,15.09,46.96,17.29,76.16,50.03,86.15,99.38.9,4.46,1.37,9.02,2.15,14.32Zm-251.1.55c1.5-9.36,2.17-18.04,4.33-26.33,11.73-45.12,41.34-73.56,84.61-88.41,8.41-2.88,8.68-5.67,4.35-12.57-27.36-43.55-84-53.93-125.71-22.75-38.81,29.01-43.9,87.08-10.65,124.27,11.5,12.86,25.48,21.96,43.07,25.8Zm224.3,81.4c.5.57,1.53,2.36,3.06,3.46,25.11,18.06,44.76,40.77,59.18,68.17,1.25,2.38,5.76,4.2,8.81,4.3,14.68.44,29.38.2,44.07.21,10.9,0,21.8,0,32.82,0,.94-56.78-20.84-100.43-66.93-131.34-3.05-2.05-8.75-1.96-12.55-.75-14.54,4.6-28.86,9.94-43.14,15.3-2.78,1.04-6.09,2.86-7.41,5.28-6.17,11.35-11.73,23.03-17.9,35.38Zm-345.48,76.02c27.61,0,54.54.07,81.46-.19,1.58-.02,3.76-2.45,4.61-4.25,12.89-27.21,32.59-48.63,56.58-66.26,5.1-3.75,6.18-6.31,2.55-11.98-5.53-8.66-9.68-18.18-14.75-27.15-1.48-2.62-3.67-5.71-6.25-6.68-15.5-5.83-31.15-11.26-46.9-16.39-2.66-.87-6.63-.57-8.98.86-28.8,17.47-47.77,43.28-60.15,73.97-7.3,18.08-8.64,37.4-8.17,58.07Z"/>
  <path class="cls-1" d="m330.07,1037.47c-35.43,0-70.88.53-106.29-.31-11.04-.26-23.02-2.14-32.76-6.94-18.06-8.91-25.36-25.76-25.43-45.59-.08-22.73.02-45.46.21-68.18.18-21.46,10.67-36.92,29.12-46.8,5.6-3,6.59-6.29,5.92-11.86-2.33-19.55-9.8-37.11-23.16-51.17-21.38-22.49-43.88-43.91-66.07-65.62-15.53-15.19-31.83-29.61-46.89-45.23-27.07-28.08-33.82-63.44-33.95-100.78-.01-3.25,1-6.65,2.16-9.74,2.96-7.94,8.92-12.67,17.35-12.93,8.55-.27,15.2,4.24,17.69,12.22,2.04,6.54,2.81,13.82,2.48,20.68-1.39,28.55,8.12,52.68,29,71.86,21.4,19.66,43.49,38.57,65.34,57.74,22.29,19.55,41.08,42.09,56.53,67.29,10.02,16.36,16.87,34.06,18.02,53.55.33,5.58,1.82,9.11,8.92,9.06,55.15-.42,110.3-.45,165.45-.59,4.32-.01,9.25.9,9.15-5.89-.54-37.73-.46-75.44-8.69-112.65-13.3-60.11-49.3-98.44-108.31-115.44-3.84-1.11-7.56-2.74-11.45-3.61-16-3.58-27.28-13-35.69-26.88-16.26-26.84-32.93-53.44-49.59-80.04-6.38-10.2-14.92-16.68-27.9-16.17-23.66.93-37.46,23.64-25.41,44.18,19.93,33.98,40.97,67.3,61.59,100.88,7.16,11.67,14.72,23.1,21.64,34.9,7.27,12.4,5.32,22.78-4.75,28.82-10,5.99-20.23,2.98-27.78-9.16-27.32-43.95-55-87.71-81.36-132.24-22.7-38.34-12.59-75.71,25.45-98.91,5.76-3.52,7.36-7.08,6.81-13.68-3.86-46.28-7.2-92.61-10.86-138.9-.5-6.29-1.39-12.65-2.97-18.75-3.79-14.61-13.33-22.72-25.59-22.49-15.16.28-25.39,7.89-27.39,23.85-2.98,23.83-4.17,47.89-5.92,71.87-.9,12.33-1.01,24.73-2.11,37.04-1.13,12.61-8.95,20.01-19.72,19.67-11.79-.37-19.55-7.97-18.9-21.17,1.82-37.36,2.61-74.92,7.31-111.96,6.05-47.66,53.39-72.96,94.67-52.31,24.13,12.07,36.29,33.19,38.64,59.43,4.56,50.91,8.13,101.9,12.53,152.82.32,3.72,3.22,9.26,6.24,10.36,17.91,6.56,30.42,18.86,40.18,34.62,14.77,23.84,29.93,47.45,44.1,71.65,5.46,9.33,12.37,14.9,22.65,17.75,11.22,3.12,22.24,7.1,33.1,11.33,60.4,23.5,93.14,70.11,108.29,130.98,9.93,39.92,10.5,80.72,9.93,121.53-.11,7.62,1.99,11.8,8.9,15.74,15.77,8.98,25.11,23.07,25.51,41.6.56,25.39.92,50.81.24,76.19-.73,27.15-22.78,47.45-52.89,48.08-37.75.79-75.54.19-113.31.19,0,.05,0,.09,0,.14Zm1.64-132.67s0,.08,0,.12c-37.72,0-75.44.22-113.16-.16-9.31-.09-12.56,3.9-12.53,12.42.06,22.36.19,44.72-.09,67.08-.12,9.45,4.55,13.1,13.29,13.14,2.67.01,5.34.23,8.01.23,66.77.02,133.54.04,200.31.03,5.67,0,11.36,0,17.02-.31,7.72-.42,11.72-3.43,11.45-12.44-.67-22.35-.78-44.75.03-67.08.38-10.46-3.52-13.23-13.15-13.14-37.05.32-74.11.13-111.16.13Z"/>
  <path class="cls-1" d="m56.88,520.28c-10.83-.17-18.88-8.94-18.67-20.33.18-9.84,8.93-17.98,19.05-17.75,10.15.24,18.8,9.13,18.94,19.47.14,10.15-8.82,18.78-19.33,18.61Z"/>
</svg>