<?xml version="1.0" encoding="UTF-8"?>
<svg id="STATE_of_the_art_faciliti" data-name="STATE of the art faciliti" xmlns="http://www.w3.org/2000/svg" viewBox="0 0 1080 1080">
  <defs>
    <style>
      .cls-1 {
        fill: #fff;
      }
    </style>
  </defs>
  <path class="cls-1" d="m894.71,466.16c0,2.88,0,5.48,0,8.07,0,51.83.14,103.67-.13,155.5-.03,6.41,2.2,10.16,7.34,13.73,9.26,6.43,17.66,14.07,27.04,20.3,4.59,3.04,10.55,5.63,15.93,5.72,32.19.51,64.39.23,96.59.21,10.07,0,13.71,2.68,13.72,12.31.01,33.48-.46,66.97-.68,100.45-.08,12.2-.29,24.4.19,36.58.38,9.59-2.51,13.21-12.3,13.3-5.14.04-10.3.27-15.42-.1-5.98-.44-7.69,2.28-7.14,7.61.62,6.07,1.22,12.17,1.39,18.26.14,4.97,2.75,6.35,7.27,6.25,7.84-.18,15.69-.22,23.54-.2,14.5.04,15.98,1.42,15.93,15.32-.12,34.55-.33,69.11-.47,103.66-.02,4.52.19,9.03.26,13.55.22,13.99-1.75,16.1-16.25,16.24-32.46.32-64.92.6-97.38.68-54.91.12-109.82.22-164.74.06-82.23-.24-164.46-1.03-246.69-.99-80.06.05-160.12,1.08-240.17,1.26-90.36.21-180.72-.03-271.08-.12-22.5-.02-23.79-1.61-23.79-23.4-.01-101.79-.28-203.58-.23-305.37.03-63.78.64-127.56.7-191.35.07-63.78-.21-127.56-.35-191.35,0-1.59-.05-3.19-.05-4.78-.05-16.22.92-17.31,17.03-17.31,66.56,0,133.11.12,199.67.04,12.13-.01,11.89-.35,11.72-12.2-.22-14.86-.81-29.79.19-44.59,3.06-45.26,33.6-73.05,80.41-73.27,61.96-.29,123.92-.14,185.88-.14,83.88,0,167.76-.32,251.63.37,15.33.13,27.77-3.46,40.77-11.4,82.44-50.4,196.18-20.79,243.72,62.23,16.33,28.52,25.23,58.94,24.57,91.28-1.75,85.02-62.11,153.17-143.29,169.37-7.93,1.58-15.96,2.68-25.34,4.23Zm-601.09,125.68c3.06,0,5.41,0,7.75,0,144.22.06,288.44.13,432.67.19,48.12.02,93.75,10.1,136.37,32.45,1.34.7,2.97.85,4.57,1.28v-159.83c-73.32-8.51-127.06-44.29-154.67-111.53-27.7-67.45-12.34-129.66,34.96-186.31-15.51,0-28.46.01-41.41,0-131.5-.14-263.01-.28-394.51-.42-38.26-.04-61.69,19.72-65.4,56.43-1.22,12.08.06,24.42.34,36.63.14,5.98-1.64,14.31,1.57,17.27,3.38,3.11,11.67,1.26,17.81,1.27,17.85.03,19.88,1.87,19.89,19.37.04,94.37.04,188.73.05,283.1,0,3.11,0,6.22,0,10.1Zm612.46,77.93c-1.65-2.08-2.08-2.76-2.65-3.3-1.17-1.1-2.36-2.2-3.65-3.16-45.36-33.69-96.25-52.5-153.32-52.65-148.54-.38-297.08-.17-445.62-.18-2.08,0-4.16.3-6.73.49v248.36c15.16,0,29.48.08,43.81-.02,13.89-.1,15.93,1.7,15.95,15.41.06,36.15.04,72.3,0,108.45-.01,11.11-.09,11.19,10.89,11.22,43.83.15,87.66.15,131.49.48,5.71.04,7.27-1.47,7.24-7.18-.22-44.65-.1-89.31.01-133.96.03-11.14.48-11.94,11.67-12.16,22.44-.45,44.9-.39,67.35-.44,55.72-.11,111.44-.2,167.16-.2,9.3,0,11.71,2.19,12.05,11.12.42,10.88.18,21.79.51,32.68.24,7.98-4.18,10.96-11.48,11.13-5.88.13-11.77.03-17.86.03v98.77h155.08c.16-2.19.38-3.98.42-5.78,1.36-58.36,38.45-105.28,95.22-120.61,6.75-1.82,16.82-2.52,19.09-6.88,2.89-5.57-.68-14.32-1.3-21.71-.47-5.66-3.36-7.29-9.07-7.25-32.74.23-65.48.09-98.21.03-5.14,0-10.38.38-15.39-.5-4.45-.78-9.82-1.28-9.8-8.23.11-47.58-.02-95.16.08-142.74.02-7.63,3.84-11.07,11.56-11.18,8-.11,16.01-.03,25.49-.03ZM26.44,299.37c-.2,2.64-.38,3.94-.38,5.24-.03,67.77-.03,135.53-.06,203.3-.06,159.72-.1,319.43-.36,479.15-.01,6.84,2.68,7.7,8.65,7.69,76.55-.17,153.11-.13,229.66-.08,10.7,0,10.73.19,10.74-10.25.05-84.76.1-169.52.11-254.28.02-100.72,0-201.44.02-302.16,0-40.39.07-80.78.12-121.18,0-3.81.47-7.48-5.45-7.49-22.43-.03-44.86-.49-67.28-.47-55.45.07-110.9.33-166.35.51-2.91,0-5.83,0-9.43,0Zm859.48,147.11c71.14,5.25,158.94-54.64,160.09-156.98.92-82-67.58-158.87-166.28-157.4-77.5,1.15-160.1,72.55-154.59,168.18,4.35,75.62,75.31,151.32,160.78,146.2Zm2.55,367.57h148.64v-124.9h-148.64v124.9Zm160.8,179.79c0-36.27.07-71.81-.24-107.35-.01-1.53-3.55-4.25-5.55-4.35-9.71-.46-19.47-.55-29.18-.15-39.58,1.62-70.31,18.89-91.65,51.6-11.81,18.1-17,38.09-14.86,60.26h141.5Zm-395.18-98.21c-5.94,0-11.31,0-16.69,0-35.42.05-70.84.21-106.26.05-6.95-.03-9.88,1.32-9.69,9.29.65,26.81.59,53.64.06,80.46-.14,6.79,1.4,8.73,8.26,8.75,40.01.09,80.02.58,120.03.89,1.51.01,3.02-.49,4.29-.71v-98.72Zm-319.22,92.91c0-36.06.07-71.28-.25-106.5-.01-1.47-3.65-3.99-5.74-4.16-7.78-.61-15.68.04-23.44-.71-7.34-.71-9.27,1.88-9.16,8.85.41,27.84.27,55.68.33,83.53.01,6.22,0,12.45,0,19h38.28Zm298.46-111.18v-.18c33.82,0,67.64-.22,101.45.17,7.2.08,9.31-1.93,9.38-8.89.06-6.99-2.13-9.3-9.28-9.19-25.7.39-51.4.29-77.1.29-42.47,0-84.95-.13-127.42,0-2.81,0-7.12,1.02-8.15,2.92-4.45,8.2.15,14.86,9.67,14.86,33.82.02,67.64,0,101.45,0Zm79.65,68.1h.07c0-14.36-.15-28.71.08-43.07.08-5.11-1.58-7.21-6.99-6.97-8.1.35-16.24.36-24.35.07-5.33-.19-7.86,1.19-7.83,7.05.15,28.18.06,56.36-.21,84.54-.06,5.98,2.46,8.05,8.22,7.91,7.84-.2,15.71-.3,23.53.1,5.76.3,7.63-1.9,7.54-7.36-.24-14.09-.08-28.18-.08-42.27Z"/>
  <path class="cls-1" d="m490.6,235.91c46.77,0,93.55-.01,140.32,0,14.89,0,17.34,2.48,17.26,17.06-.06,11.42.06,22.84-.12,34.26-.17,10.9-2.07,13.05-13.32,13.29-17.56.37-35.14.36-52.7.16-28.91-.33-57.81-1.4-86.71-1.33-46.2.12-92.39,1.01-138.59,1.39-21.6.18-21.9-.3-21.83-21.9.03-9.83-.09-19.66.23-29.48.35-10.67,3.47-13.45,14.33-13.45,47.04-.02,94.09,0,141.13,0Zm39.1,46.06c30.81-.25,61.63-.14,92.45.05,5.41.03,8.36-.5,8.34-7.13-.08-19.88.2-19.99-7.71-20.11-41.87-.63-83.73-1.39-125.6-1.74-10.75-.09-21.51,1.58-32.26,1.65-34.34.22-68.68.04-103.02.13-3.11,0-7.78-1.7-7.96,3.94-.22,7.31-.05,14.63-.05,23.24h109.94m5.58-.04"/>
  <path class="cls-1" d="m491.31,503.18c45.44,0,90.87-.08,136.31.04,20.84.05,20.83.24,20.68,20.92-.07,10.36-.47,20.74-.05,31.09.29,7.1-2.92,10.35-9.6,11.05-4.56.47-9.14,1.02-13.71,1.03-42.2.07-84.4.03-126.61.03-49.45,0-98.91.03-148.36.03-11.81,0-14.73-2.31-14.89-13.65-.19-13.8.51-27.61.66-41.42.07-6.36,3.12-8.84,9.51-8.84,31.38.02,62.75-.21,94.13-.3,17.31-.05,34.62,0,51.94,0,0,.01,0,.02,0,.03Zm-137.78,18.81c0,5.86.58,11.46-.14,16.88-1.03,7.8,1.73,9.85,9.66,9.83,84.7-.29,169.4-.21,254.1-.22,4.23,0,8.47,0,13.11,0,0-5.77.04-10.77,0-15.77-.09-11.03-.37-11.21-11.25-11.18-68.98.18-137.97.32-206.95.45-18.9.04-37.8,0-58.51,0Z"/>
  <path class="cls-1" d="m489.59,430.27c-46.5,0-93,0-139.5,0-14.19,0-15.36-1.12-15.25-14.88.09-11.42.47-22.83.42-34.25-.05-12.69.96-14.12,14.22-14.23,22.17-.19,44.34-.02,66.5-.02,71.37,0,142.74,0,214.12,0,.27,0,.54,0,.81,0,17.09.11,17.12.2,17.07,16.49-.04,12.22-.2,24.44.25,36.65.24,6.44-2.37,9.41-8.65,9.52-15.67.28-31.33.63-47,.68-34.33.1-68.67.03-103,.05Zm-135.78-45.93c0,8.09.27,14.96-.09,21.81-.27,5.13,2.04,6.47,6.74,6.25,5.94-.28,11.9-.21,17.85-.19,81.16.17,162.31.29,243.47.68,6.79.03,9.4-1.95,8.63-8.61-.46-3.94-.39-7.98-.13-11.95.39-5.99-1.51-8.29-8.27-8.26-74.13.29-148.25.24-222.38.28-14.83,0-29.65,0-45.82,0Z"/>
  <path class="cls-1" d="m592.49,703.55c74.64,0,149.29,0,223.93,0,15.77,0,17.42,1.46,17.58,16.55.23,22.58.4,45.16.49,67.74.04,10.04-2.76,12.8-13,12.8-97.09,0-194.18-.07-291.27-.06-52.93,0-105.85.13-158.78.18-3.51,0-7.04-.02-10.54-.26-8.81-.61-11.29-3.71-11.22-12.09.19-22.29.33-44.59.01-66.87-.22-15.2,2.32-18.11,18.06-18.1,74.91,0,149.82,0,224.74,0,0,.04,0,.08,0,.12Zm.71,18.31c0-.06,0-.11,0-.17-23,0-46,.02-68.99,0-49.25-.04-98.5-.08-147.75-.19-4.48-.01-7.84.07-7.73,6.14.29,15.94.15,31.9-.11,47.84-.09,5.46,1.81,7.41,7.56,7.38,50.83-.28,101.66-.37,152.48-.38,93.09-.01,186.19.03,279.28.22,5.57.01,7.73-1.38,7.64-7.13-.27-15.94-.21-31.9.14-47.84.11-5.13-1.63-6.02-6.58-6-71.98.19-143.96.13-215.94.13Z"/>
  <path class="cls-1" d="m151.2,905.67c22.19,0,44.37-.02,66.56,0,9.42.01,12.59,3.07,12.76,12.4.19,10.36.12,20.73.38,31.09.19,7.41-3.63,10.87-10.77,10.88-45.73.04-91.45-.05-137.18-.03-6.67,0-9.94-2.69-9.79-9.57.24-11.42-.03-22.86.11-34.28.09-7.18,2.94-10.81,11.38-10.6,22.17.57,44.37.19,66.56.19,0-.03,0-.06,0-.09Zm61.7,19.02c-20.15,0-39.27.04-58.38-.01-18.89-.05-37.78-.05-56.67-.32-10-.14-6.27,6.96-6.83,11.8-.68,5.8,2.54,5.86,7.45,5.82,34.27-.26,68.54-.22,102.8.05,10.88.09,11.46.01,11.63-10.7.03-1.82,0-3.65,0-6.64Z"/>
  <path class="cls-1" d="m150.32,459.61c-21.91,0-43.83-.25-65.73.13-8.18.14-11.17-3.5-11.25-10.8-.13-11.43-.25-22.85-.41-34.28-.09-6.76,3.58-9.54,10.11-9.54,44.64.04,89.28-.04,133.91.15,11.38.05,13.77,2.87,13.71,13.84-.06,9.57.07,19.14-.21,28.7-.29,9.71-2.99,12.23-12.78,12.26-22.45.07-44.9.02-67.34.02,0-.16,0-.33,0-.49Zm2.65-36.81c0,.18,0,.36,0,.53-17.84,0-35.68.19-53.51-.11-6.13-.1-8.87,1.54-8.68,8.02.17,5.66.32,9.58,8,9.56,35.67-.09,71.34.18,107.01.54,10.65.11,6.22-7.5,7.07-12.39,1.01-5.78-2.37-6.31-7.22-6.25-17.56.24-35.12.1-52.68.1Z"/>
  <path class="cls-1" d="m152.11,381.18c-21.62,0-43.24.05-64.85-.02-12.21-.04-14.06-1.97-14.2-13.81-.11-9.55-.34-19.1-.53-28.66-.19-9.42,3.19-13.05,12.99-13.03,44.31.09,88.62.25,132.92.52,8.93.05,12.15,3.4,12.28,12.12.15,10.08.07,20.17.19,30.26.12,9.4-2.78,12.53-12.33,12.56-22.16.07-44.32.02-66.47.02,0,.01,0,.02,0,.03Zm-.16-19.26c0,.06,0,.11,0,.17,17.82,0,35.66-.36,53.47.17,7.67.23,7.42-3.98,7.47-9.01.05-4.91.82-9.29-7.03-9.22-35.92.33-71.84.3-107.76-.01-7.8-.07-6.9,4.37-7.1,9.28-.22,5.41.1,8.99,7.48,8.78,17.81-.5,35.64-.16,53.47-.16Z"/>
  <path class="cls-1" d="m151.97,626.65c-22.17,0-44.33.03-66.5-.01-10.52-.02-12.09-1.61-12.16-12.12-.08-10.89,0-21.78-.14-32.66-.08-6.54,2.61-9.61,9.67-9.59,45.68.13,91.36.03,137.05.01,7.25,0,11,3.35,10.88,10.73-.17,10.88-.08,21.77-.24,32.66-.12,8.15-2.99,10.99-11.26,11.01-22.44.07-44.87.02-67.31.02v-.04Zm-1.08-18.65c0,.27,0,.53,0,.8,18.08,0,36.17-.13,54.25.08,5.7.07,7.96-2.38,7.61-7.63-.3-4.62,2.1-10.88-6.49-10.7-4.59.09-9.18.11-13.76.11-31.05-.06-62.11.14-93.15-.39-8.17-.14-8.57,3.78-8.52,9.74.05,5.68,1.21,8.46,8.23,8.2,17.26-.64,34.55-.21,51.84-.21Z"/>
  <path class="cls-1" d="m153.45,544.78c-22.17,0-44.33.03-66.5-.01-10.52-.02-12.09-1.61-12.16-12.12-.08-10.89,0-21.78-.14-32.66-.08-6.54,2.61-9.61,9.67-9.59,45.68.13,91.36.03,137.05.01,7.25,0,11,3.35,10.88,10.73-.17,10.88-.08,21.77-.24,32.66-.12,8.15-2.99,10.99-11.26,11.01-22.44.07-44.87.02-67.31.02v-.04Zm-1.08-18.65c0,.27,0,.53,0,.8,18.08,0,36.17-.13,54.25.08,5.7.07,7.96-2.38,7.61-7.63-.3-4.62,2.1-10.88-6.49-10.7-4.59.09-9.18.11-13.76.11-31.05-.06-62.11.14-93.15-.39-8.17-.14-8.57,3.78-8.52,9.74.05,5.68,1.21,8.46,8.23,8.2,17.26-.64,34.55-.21,51.84-.21Z"/>
  <path class="cls-1" d="m151.09,738.36c22.43,0,44.87-.01,67.3,0,9.34,0,12.02,2.5,12.16,11.77.15,9.82.04,19.65.04,29.47,0,11.19-1.8,13.02-13.1,13.02-40-.02-80.01-.08-120.01-.1-4.86,0-9.73.18-14.59.21-6.56.05-9.97-2.74-9.8-9.63.29-11.68.19-23.36.21-35.05.01-6.92,3.18-9.84,10.5-9.75,22.43.3,44.87.11,67.3.11v-.06Zm.86,36.55v.28c17.3,0,34.63-.52,51.9.22,8.56.37,8.86-3.65,9.15-9.98.31-6.72-2.06-8.57-8.76-8.52-35.15.27-70.3.31-105.45-.12-7.2-.09-8.23,2.97-7.87,8.52.31,4.89-1.11,10.07,7.49,9.78,17.82-.61,35.69-.19,53.53-.19Z"/>
  <path class="cls-1" d="m151.17,714.19c-22.45,0-44.9-.27-67.34.15-7.73.14-10.2-3.75-10.43-9.97-.43-11.68-.41-23.37-.57-35.06-.09-6.18,3.07-9.48,9.31-9.52,10.81-.08,21.63.12,32.44.1,33.8-.07,67.61-.26,101.41-.25,12.52,0,15.15,2.93,14.91,15.23-.18,9.03-.16,18.06-.44,27.09-.3,9.3-3.48,12.25-12.77,12.26-22.18.01-44.35,0-66.53-.02Zm60.57-19.31c.33-2.12.73-3.91.86-5.71q.82-11.46-10.61-11.45c-34.05-.05-68.11.1-102.15-.37-7.45-.1-8.97,2.42-9.18,9.09-.22,7.05,1.9,9.11,9.09,9.04,35.13-.33,70.26-.14,105.4-.16,2.1,0,4.19-.27,6.59-.44Z"/>
  <path class="cls-1" d="m151.51,877.48c-21.64,0-43.29.09-64.93-.04-12.22-.07-13.63-1.61-13.57-13.31.06-10.37.06-20.73.25-31.09.12-6.82,2.75-10.41,10.81-10.28,36.77.6,73.55.69,110.33.83,8.11.03,16.21-.63,24.32-.67,8.4-.05,11.62,3.16,11.82,11.56.25,10.36.25,20.72.46,31.08.17,8.26-3.4,12.06-12.14,12.1-22.45.1-44.91.03-67.36.03,0-.07,0-.15,0-.22Zm60.62-35.18c-8.83-.71-17.14-1.98-25.44-1.92-29.45.21-58.9,1.07-88.36,1.23-6.52.04-7.96,2.59-7.33,8.12.54,4.72-1.45,9.84,7.39,9.71,33.53-.5,67.06-.17,100.6-.06,13.91.05,14.31-.24,13.81-14.22-.03-.76-.34-1.51-.67-2.87Z"/>
  <path class="cls-1" d="m842.93,254.12c0-16.11,0-31.7,0-47.29,0-12.13,1.81-14.21,14.47-14.34,22.98-.24,45.97-.25,68.96-.08,10.74.08,13.73,3.43,13.74,14.06.02,15.36,0,30.72,0,47.28,12.47,0,24.25-.04,36.03.01,17.29.08,17.17.11,17.24,17.05.07,17.53.28,35.07.71,52.6.17,7.13-2.85,10.1-10.08,9.99-14.28-.22-28.56-.06-43.91-.06,0,13.74,0,26.39,0,39.04-.01,12.34-3.96,16.33-16.2,16.34-21.1.01-42.19.07-63.29-.02-14.2-.06-17.69-3.62-17.67-17.48.02-10.1-.25-20.2.16-30.29.24-5.92-1.83-8.05-7.88-7.84-12.16.43-24.34.17-36.5.49-6.33.17-9.82-2.21-9.83-8.64-.04-20.71.02-41.43-.11-62.14-.04-6.55,3.25-8.81,9.54-8.73,14.54.17,29.07.05,44.61.05Zm19.22-43.57c0,16.6.01,32.27,0,47.94,0,11.16-2.94,14.25-14.3,14.3-11.36.05-22.73-.04-34.07-.5-5.41-.22-7.09,1.73-6.98,6.87.22,9.82.15,19.67-.27,29.49-.23,5.43,1.3,7.51,7.27,7.29,11.88-.42,23.82-.39,35.69.18,10.7.52,12.71,2.94,12.62,13.26-.09,11.41-.71,22.83-.56,34.23.03,2.05,2.58,5.8,4.04,5.84,18.27.4,36.56.26,55.36.26,0-13.92,0-26.91,0-39.89,0-11.89,1.64-13.74,13.87-14.03,11.36-.27,22.73-.3,34.08,0,5.23.13,7.37-1.57,7.25-6.8-.23-9.56-.32-19.14.05-28.7.25-6.56-2.77-8.07-8.83-7.9-11.62.32-23.26.17-34.88-.14-8.63-.24-11.49-3.4-11.52-11.76-.04-8.5,0-17.01,0-25.51,0-8.11,0-16.22,0-24.43h-58.81Z"/>
  <path class="cls-1" d="m950.11,742.71c0-4.15,0-8.16,0-12.17,0-3.12.47-3.66,3.73-3.69,5.92-.06,11.83-.07,17.75-.02,2.76.02,3.53.88,3.54,3.62,0,3.95,0,7.91,0,12.17,3.21,0,6.24-.01,9.27,0,4.45.02,4.42.03,4.44,4.39.02,4.51.07,9.03.18,13.54.04,1.83-.73,2.6-2.59,2.57-3.68-.06-7.35-.02-11.3-.02,0,3.54,0,6.79,0,10.05,0,3.18-1.02,4.2-4.17,4.2-5.43,0-10.86.02-16.29,0-3.65-.02-4.55-.93-4.55-4.5,0-2.6-.06-5.2.04-7.8.06-1.52-.47-2.07-2.03-2.02-3.13.11-6.27.04-9.4.13-1.63.04-2.53-.57-2.53-2.22,0-5.33,0-10.66-.03-16-.01-1.68.84-2.27,2.46-2.25,3.74.04,7.48.01,11.48.01Zm4.95-11.22c0,4.27,0,8.31,0,12.34,0,2.87-.76,3.67-3.68,3.68-2.92.01-5.85,0-8.77-.13-1.39-.06-1.83.45-1.8,1.77.06,2.53.04,5.06-.07,7.59-.06,1.4.33,1.93,1.87,1.88,3.06-.11,6.13-.1,9.19.05,2.75.13,3.27.76,3.25,3.41-.02,2.94-.18,5.88-.14,8.81,0,.53.66,1.49,1.04,1.5,4.7.1,9.41.07,14.25.07,0-3.58,0-6.93,0-10.27,0-3.06.42-3.54,3.57-3.61,2.92-.07,5.85-.08,8.77,0,1.35.03,1.9-.4,1.87-1.75-.06-2.46-.08-4.93.01-7.39.06-1.69-.71-2.08-2.27-2.03-2.99.08-5.99.04-8.98-.04-2.22-.06-2.96-.87-2.97-3.03,0-2.19,0-4.38,0-6.57,0-2.09,0-4.18,0-6.29h-15.14Z"/>
</svg>