<?xml version="1.0" encoding="utf-8"?>
<!-- Generator: Adobe Illustrator 24.1.2, SVG Export Plug-In . SVG Version: 6.00 Build 0)  -->
<svg version="1.1" id="Layer_1" xmlns="http://www.w3.org/2000/svg" xmlns:xlink="http://www.w3.org/1999/xlink" x="0px" y="0px"
	 viewBox="0 0 30 17" style="enable-background:new 0 0 30 17;" xml:space="preserve">
<style type="text/css">
	.st0{fill:#495057;}
</style>
<g>
	<path class="st0" d="M28,1c-0.3,0-0.5,0.1-0.7,0.3L15.8,12.8L15,13.6l-0.8-0.8L2.8,1.3C2.6,1.1,2.3,1,2,1C1.8,1,1.5,1.1,1.3,1.3
		C1.1,1.5,1,1.8,1,2.1c0,0.3,0.1,0.5,0.3,0.7l13,13c0.2,0.2,0.5,0.3,0.7,0.3c0.3,0,0.5-0.1,0.7-0.3l13-13C28.9,2.6,29,2.3,29,2.1
		c0-0.3-0.1-0.5-0.3-0.7C28.5,1.1,28.2,1,28,1z"/>
</g>
</svg>
