<svg width="128" height="90" viewBox="0 0 128 90" fill="none" xmlns="http://www.w3.org/2000/svg">
<g clip-path="url(#clip0_60_437)">
<path d="M1.41734 61.4287V56.0768H15.0303C17.2234 56.0768 18.6787 55.8599 19.4104 55.4161C20.4611 54.7839 20.9857 53.8382 20.9844 52.579C20.9844 51.1281 20.3726 50.0628 19.1491 49.3833C18.4476 49.0003 17.3279 48.8118 15.7981 48.8118H10.2722C6.89239 48.8118 4.45807 48.1958 2.9692 46.9637C2.02602 46.1645 1.27831 45.157 0.784136 44.0192C0.259651 42.8291 -0.00759069 41.5401 0.000166784 40.2378C-0.0118971 38.1613 0.63078 36.1346 1.83546 34.4502C3.02414 32.7668 4.9385 31.7847 7.57853 31.5037C8.46703 31.4118 9.79241 31.3665 11.5547 31.3679H26.3536V36.7198H13.002C11.0012 36.736 9.67582 36.8238 9.02586 36.9833C7.68574 37.321 7.01568 38.341 7.01568 40.0432C7.01568 41.478 7.57451 42.4487 8.70222 42.9512C9.45671 43.2903 10.7097 43.4585 12.4613 43.4558H17.2394C19.6858 43.4558 21.5211 43.6585 22.7292 44.0942C24.8399 44.8156 26.2953 46.0801 27.0772 47.8837C27.7215 49.3512 28.0497 50.9398 28.0401 52.5446C28.0635 54.2656 27.6334 55.9621 26.7938 57.4608C25.6306 59.5116 23.8757 60.737 21.5292 61.1369C20.3874 61.3233 18.6868 61.4206 16.4112 61.4206L1.41734 61.4287Z" fill="#E3000F"/>
<path d="M38.9936 36.7198H29.4814V31.3679H55.2097V36.7198H45.3337V61.4287H38.9936V36.7198Z" fill="#E3000F"/>
<path d="M100.348 44.6514H109.263C110.755 44.6514 111.806 44.4326 112.433 43.9888C113.38 43.3119 113.858 42.1649 113.858 40.5093C113.858 38.6753 113.141 37.502 111.717 36.9832C111.217 36.811 110.403 36.7198 109.263 36.7198H100.348V44.6514ZM100.348 50.0034V61.4287H94.0078V31.3679H108.57C112.747 31.3679 115.665 31.9042 117.326 32.9769C118.432 33.6764 119.334 34.6597 119.939 35.8261C120.564 37.032 120.885 38.3747 120.872 39.7352C120.872 42.5979 120.151 44.8027 118.709 46.3496C117.82 47.2899 116.642 48.0032 115.165 48.5078C116.338 48.8996 117.22 49.3333 117.812 49.8088C118.489 50.3773 119.04 51.0811 119.433 51.8758C119.773 52.5278 120.034 53.2192 120.208 53.9347C120.401 54.9127 120.528 55.9025 120.59 56.8974C120.761 59.0536 121.009 60.5654 121.314 61.4287H114.178C113.955 60.7234 113.736 59.3002 113.521 57.1589C113.342 55.3999 113.03 54.0482 112.566 53.116C112.111 52.1862 111.381 51.4215 110.477 50.9274C109.329 50.2972 107.651 49.9892 105.452 50.0034H100.348Z" fill="#E3000F"/>
<path fill-rule="evenodd" clip-rule="evenodd" d="M80.6566 39.3563L90.1345 62.0103H83.4708L75.9668 44.0699C77.5187 42.4689 79.0819 40.895 80.6566 39.3482M79.1168 35.666L79.7902 37.2771C78.2142 38.8199 76.6483 40.3877 75.0924 41.9806L74.1959 39.8386C75.8161 38.4079 77.4564 37.017 79.1168 35.666ZM64.0766 49.8757L60.5367 58.3423C59.8331 59.2205 59.1336 60.1074 58.4381 61.0031H55.2218C56.4782 59.2725 58.4803 56.634 59.6 55.2155C61.0567 53.3606 62.5489 51.582 64.0766 49.8798V49.8757ZM71.2349 32.758L66.3722 44.3799C63.4042 47.3977 60.6025 50.5773 57.9798 53.9044C56.7154 55.5053 54.3876 58.5653 53.1976 60.2432C53.097 60.383 52.9965 60.5188 52.9121 60.6485L67.7874 25.0534C69.1744 22.7857 73.641 22.8546 74.6602 25.0534L78.2785 33.6781C76.6154 35.0034 74.9711 36.3807 73.3456 37.8101L71.2349 32.758Z" fill="#E3000F"/>
<path fill-rule="evenodd" clip-rule="evenodd" d="M58.7897 54.5508C71.6407 38.2538 87.2417 27.8479 102.861 17.4905C87.692 31.0072 72.5071 44.463 58.9445 62.0467L53.2838 62.0285C53.0828 62.0285 57.0127 56.8022 58.7897 54.5508Z" fill="#004E9E"/>
<path d="M124.637 36.6399C126.413 36.6371 127.849 35.185 127.847 33.3965C127.844 31.6081 126.403 30.1605 124.627 30.1633C122.852 30.1661 121.415 31.6182 121.418 33.4067C121.421 35.1952 122.862 36.6427 124.637 36.6399Z" stroke="#1A1A18" stroke-width="1.55" stroke-miterlimit="22.93"/>
<path d="M123.413 31.1855H124.603C125.002 31.157 125.4 31.257 125.739 31.4712C125.867 31.5714 125.969 31.7017 126.036 31.8508C126.102 31.9999 126.131 32.1632 126.121 32.3264C126.13 32.5849 126.041 32.8372 125.872 33.0316C125.68 33.2325 125.43 33.3661 125.158 33.4126C125.28 33.4417 125.391 33.5049 125.48 33.595C125.592 33.7273 125.68 33.879 125.739 34.0428L126.408 35.6417H125.745L125.164 34.1847C125.109 34.0241 125.008 33.8833 124.874 33.7794C124.724 33.6939 124.552 33.6538 124.38 33.6639H124.028V35.6356H123.425L123.413 31.1855ZM124.016 31.6678V33.1816H124.493C124.75 33.198 125.006 33.1267 125.218 32.9789C125.304 32.913 125.373 32.8272 125.419 32.7288C125.465 32.6303 125.486 32.5222 125.482 32.4135C125.49 32.3064 125.473 32.1987 125.43 32.1001C125.388 32.0014 125.322 31.9149 125.238 31.8481C125.008 31.7115 124.741 31.6493 124.474 31.6698L124.016 31.6678Z" fill="#1A1A18"/>
<path d="M99.2305 77.2413V75.0507H104.847C105.75 75.0507 106.353 74.9595 106.656 74.7771C106.862 74.6606 107.032 74.4889 107.147 74.2811C107.262 74.0733 107.317 73.8374 107.307 73.5997C107.321 73.3289 107.257 73.0598 107.122 72.8253C106.987 72.5907 106.788 72.4007 106.548 72.2784C106.258 72.1204 105.798 72.0393 105.165 72.0393H102.881C101.486 72.0393 100.481 71.7853 99.8657 71.2774C99.4752 70.9487 99.1668 70.5323 98.9651 70.0615C98.7476 69.5728 98.6366 69.0428 98.6395 68.5072C98.6353 67.6491 98.9014 66.8118 99.3993 66.1159C99.8898 65.4229 100.684 65.0176 101.771 64.9C102.139 64.8636 102.686 64.8453 103.416 64.8453H109.517V67.038H104.009C103.458 67.0219 102.908 67.0592 102.364 67.1494C101.812 67.2845 101.535 67.7087 101.534 68.4221C101.534 69.0219 101.766 69.4272 102.23 69.6379C102.541 69.7778 103.062 69.8406 103.784 69.8406H105.756C106.761 69.8406 107.522 69.9277 108.025 70.104C108.897 70.3972 109.496 70.9166 109.822 71.6624C110.09 72.2676 110.227 72.923 110.224 73.5855C110.235 74.295 110.058 74.9946 109.712 75.612C109.49 76.0176 109.178 76.3656 108.799 76.6283C108.421 76.8911 107.987 77.0614 107.533 77.1258C106.833 77.2177 106.127 77.257 105.422 77.2433L99.2305 77.2413ZM89.4892 64.8473H92.1024V71.8144C92.1386 72.6979 92.1748 73.2856 92.217 73.5774C92.239 73.8243 92.3249 74.061 92.466 74.2641C92.607 74.4671 92.7984 74.6293 93.021 74.7345C93.4753 74.9372 94.2674 75.0486 95.4051 75.0486H97.9078V77.2393H95.1338C93.8251 77.2393 92.8723 77.1724 92.2793 77.0143C90.9204 76.609 90.0614 75.7417 89.7022 74.4123C89.5595 73.9017 89.4892 73.0343 89.4831 71.8144L89.4892 64.8473ZM81.7118 67.8323L79.9589 72.1873H83.4586L81.7118 67.8323ZM75.1124 77.2393L80.2062 64.8473H83.2214L88.3072 77.2393H85.2316L84.0456 74.3718H79.372L78.1819 77.2332L75.1124 77.2393ZM69.8236 67.04H65.9158V64.8473H76.5175V67.04H72.4429V77.2393H69.8296L69.8236 67.04ZM61.9558 77.2393V64.8473H64.569V77.2393H61.9558ZM51.9351 70.6998H55.4991C56.1323 70.6998 56.5786 70.5985 56.8359 70.3898C57.2198 70.0797 57.4108 69.5447 57.4108 68.7807C57.4108 67.9418 57.1213 67.4014 56.5424 67.1596C56.223 67.0606 55.8891 67.0181 55.5554 67.0339H51.9371L51.9351 70.6998ZM51.9351 72.8925V77.2393H49.3218V64.8473H55.4609C56.5766 64.8473 57.3746 64.9243 57.8611 65.0824C58.6906 65.3768 59.3745 65.9841 59.7687 66.7765C60.1185 67.4175 60.2985 68.1384 60.2914 68.8699C60.2946 69.4812 60.1784 70.0871 59.9496 70.6532C59.7435 71.1849 59.4164 71.6603 58.9948 72.0413C58.6611 72.3447 58.266 72.5715 57.8369 72.706C57.2833 72.8465 56.713 72.9092 56.1424 72.8925H51.9351ZM36.4567 77.2393V75.0507H42.0852C42.9871 75.0507 43.5901 74.9595 43.8943 74.7771C44.1004 74.6609 44.2705 74.4893 44.3855 74.2814C44.5005 74.0735 44.5559 73.8375 44.5457 73.5997C44.5602 73.3291 44.4962 73.0601 44.3617 72.8254C44.2271 72.5908 44.0277 72.4008 43.7878 72.2784C43.4983 72.1204 43.038 72.0393 42.4048 72.0393H40.1112C38.7161 72.0393 37.711 71.7853 37.0959 71.2774C36.7055 70.9487 36.397 70.5323 36.1954 70.0615C35.9769 69.5731 35.8658 69.0429 35.8697 68.5072C35.8649 67.6493 36.1303 66.8121 36.6276 66.1159C37.1194 65.4229 37.9107 65.0176 39.0016 64.9C39.3701 64.8636 39.9176 64.8453 40.6439 64.8453H46.7468V67.038H41.2389C40.6885 67.022 40.1379 67.0593 39.5946 67.1494C39.0425 67.2845 38.7664 67.7087 38.7664 68.4221C38.7664 69.03 38.9956 69.4252 39.4599 69.6379C39.7735 69.773 40.2921 69.8406 41.0158 69.8406H42.9878C43.9929 69.8406 44.7547 69.9277 45.2552 70.104C46.1277 70.3972 46.7267 70.9166 47.0523 71.6624C47.3204 72.2673 47.4575 72.923 47.4544 73.5855C47.4665 74.2951 47.2895 74.9949 46.9418 75.612C46.7202 76.0176 46.4078 76.3656 46.0296 76.6283C45.6514 76.8911 45.2176 77.0614 44.7627 77.1258C44.0631 77.2178 43.3575 77.2571 42.6521 77.2433L36.4567 77.2393ZM28.5909 66.8536C27.3848 66.8536 26.5244 67.2501 26.0098 68.0431C25.6078 68.651 25.4068 69.6643 25.4068 71.022C25.4068 72.4743 25.6634 73.543 26.1767 74.2279C26.6899 74.9129 27.4994 75.2506 28.6049 75.2412C29.677 75.2412 30.4697 74.9034 30.983 74.2279C31.4963 73.5524 31.7509 72.4973 31.7469 71.0626C31.7469 69.7676 31.5458 68.7807 31.1297 68.0958C30.6446 67.2811 29.7997 66.8677 28.5949 66.8556L28.5909 66.8536ZM28.5728 64.7724C29.685 64.7477 30.7895 64.9647 31.8112 65.4087C32.3479 65.648 32.8297 65.9966 33.2265 66.4325C33.6232 66.8684 33.9264 67.3822 34.1169 67.9418C34.4844 68.9965 34.6614 70.109 34.6395 71.2267C34.6658 72.3529 34.4477 73.4713 34.0003 74.5035C33.5288 75.5661 32.6627 76.3999 31.5881 76.8259C30.6888 77.1655 29.734 77.3312 28.7738 77.3142C27.5235 77.3457 26.2836 77.0783 25.1555 76.5341C24.2921 76.0919 23.6001 75.3715 23.1895 74.4873C22.7393 73.5592 22.5141 72.4338 22.5141 71.1112C22.5141 68.7497 23.0957 67.067 24.2589 66.0632C25.2399 65.2189 26.6792 64.7893 28.5768 64.7744L28.5728 64.7724ZM20.6648 64.8473V77.2393H18.0515V72.0961H13.3095V77.2413H10.6963V64.8473H13.3095V69.9135H18.0475V64.8473H20.6648Z" fill="#004E9E"/>
<path d="M118.419 83.4909H119.023L120.323 87.4243L121.634 83.4909H122.203L120.41 88.699C120.301 89.0686 120.115 89.4101 119.863 89.7001C119.762 89.7989 119.643 89.8763 119.512 89.9278C119.381 89.9793 119.241 90.0039 119.101 90C119.026 89.9991 118.952 89.9944 118.878 89.9858C118.799 89.9858 118.721 89.9635 118.641 89.9473L118.685 89.4326H118.707C118.892 89.461 119.008 89.4772 119.055 89.4772C119.159 89.4776 119.263 89.4533 119.356 89.4061C119.45 89.359 119.531 89.2903 119.593 89.2056C119.798 88.8947 119.951 88.5526 120.048 88.1924L118.419 83.4909ZM114.065 81.2436H114.634V84.2833C114.771 84.0106 114.98 83.7813 115.237 83.6206C115.505 83.4696 115.809 83.3933 116.116 83.3998C116.325 83.3863 116.534 83.4226 116.727 83.5057C116.92 83.5888 117.091 83.7163 117.225 83.878C117.479 84.1982 117.605 84.6582 117.605 85.2641V88.0303H117.036V85.3958C117.036 84.8852 116.949 84.5103 116.775 84.2711C116.678 84.148 116.552 84.0509 116.408 83.9883C116.265 83.9258 116.109 83.8997 115.953 83.9125C115.765 83.9041 115.578 83.942 115.409 84.0229C115.239 84.1037 115.091 84.2251 114.978 84.3765C114.723 84.7574 114.599 85.2125 114.626 85.6714V88.0242H114.057L114.065 81.2436ZM111.943 82.1454V83.4909H112.992V83.955H111.943V86.6036C111.92 86.8684 111.971 87.1343 112.089 87.3717C112.147 87.447 112.222 87.5063 112.309 87.5439C112.396 87.5815 112.49 87.5961 112.584 87.5865C112.661 87.5859 112.738 87.5764 112.813 87.5581C112.892 87.5413 112.969 87.5175 113.044 87.4872V88.0019C112.952 88.0316 112.857 88.0533 112.761 88.0667C112.664 88.0808 112.566 88.0875 112.467 88.087C112.065 88.087 111.79 87.9816 111.623 87.7749C111.456 87.5682 111.376 87.2095 111.376 86.7029V83.957H110.453V83.4909H111.376V82.346L111.943 82.1454ZM109.53 85.1324V88.0222H109.028V87.2399C108.877 87.5034 108.659 87.7216 108.397 87.8722C108.131 88.0185 107.833 88.0925 107.53 88.087C107.152 88.1058 106.78 87.979 106.491 87.7324C106.362 87.6127 106.26 87.4661 106.192 87.3026C106.125 87.1392 106.094 86.9629 106.101 86.786C106.094 86.5613 106.146 86.3387 106.252 86.1408C106.358 85.9429 106.514 85.7768 106.704 85.6593C107.106 85.3891 107.67 85.254 108.397 85.254H108.976C108.976 85.2357 108.976 85.2114 108.976 85.179C108.977 85.154 108.977 85.129 108.976 85.104C108.994 84.7841 108.895 84.4686 108.696 84.2185C108.599 84.111 108.479 84.0266 108.345 83.9712C108.211 83.9159 108.067 83.891 107.922 83.8983C107.698 83.8978 107.476 83.9299 107.261 83.9935C107.039 84.0605 106.826 84.1572 106.63 84.2813V83.724C106.846 83.6169 107.073 83.5334 107.307 83.4747C107.528 83.4188 107.755 83.3902 107.983 83.3896C108.497 83.3896 108.885 83.5355 109.143 83.8273C109.4 84.1192 109.532 84.5548 109.532 85.1344L109.53 85.1324ZM108.348 85.7201C107.926 85.6961 107.505 85.7886 107.13 85.9876C106.997 86.0631 106.887 86.1738 106.812 86.3078C106.737 86.4417 106.7 86.5937 106.704 86.7475C106.697 86.8641 106.715 86.9808 106.756 87.0901C106.797 87.1993 106.86 87.2987 106.941 87.3818C107.029 87.4644 107.132 87.5284 107.245 87.5702C107.357 87.6119 107.477 87.6306 107.597 87.625C107.783 87.6343 107.97 87.6029 108.143 87.5329C108.317 87.463 108.473 87.3561 108.602 87.2197C108.863 86.9217 108.997 86.5323 108.976 86.1355V85.7201H108.348ZM104.708 85.7302C104.736 85.2518 104.615 84.7765 104.362 84.3704C104.258 84.2142 104.115 84.0874 103.949 84.0019C103.782 83.9165 103.596 83.8752 103.409 83.8821C103.214 83.8788 103.021 83.9228 102.846 84.0102C102.671 84.0976 102.52 84.226 102.404 84.3846C102.131 84.7734 101.995 85.2439 102.018 85.7201C101.99 86.2125 102.119 86.7013 102.386 87.1143C102.503 87.276 102.658 87.4062 102.837 87.4931C103.016 87.5801 103.213 87.6212 103.411 87.6128C103.6 87.616 103.785 87.5707 103.952 87.4814C104.118 87.392 104.258 87.2615 104.36 87.1021C104.613 86.6923 104.732 86.2136 104.702 85.7322L104.708 85.7302ZM102.008 87.2501V89.925H101.442V83.4909H101.966V84.3846C102.116 84.0845 102.342 83.83 102.621 83.647C102.889 83.4769 103.2 83.3882 103.516 83.3917C103.769 83.3827 104.02 83.4344 104.249 83.5425C104.478 83.6507 104.678 83.8122 104.833 84.0138C105.182 84.5015 105.355 85.0951 105.323 85.6958C105.323 86.4239 105.154 87.0028 104.817 87.4325C104.657 87.6412 104.449 87.8086 104.212 87.9207C103.975 88.0327 103.715 88.0863 103.454 88.0769C103.162 88.0809 102.874 88.0075 102.619 87.8641C102.365 87.717 102.152 87.5062 102.002 87.2521L102.008 87.2501ZM97.0915 84.4049C97.229 84.1073 97.4419 83.8515 97.7086 83.6632C97.9596 83.4904 98.257 83.3992 98.5609 83.4018C98.759 83.3895 98.957 83.4259 99.138 83.5078C99.319 83.5897 99.4776 83.7146 99.6002 83.8719C99.8361 84.1867 99.9533 84.6487 99.952 85.258V88.0242H99.3831V85.3898C99.4109 85.0049 99.3322 84.6198 99.1559 84.2772C99.079 84.1601 98.9725 84.0658 98.8475 84.0038C98.7225 83.9419 98.5833 83.9145 98.4444 83.9246C98.2628 83.918 98.0825 83.9567 97.9194 84.0373C97.7563 84.1179 97.6156 84.2379 97.5096 84.3867C97.2643 84.7655 97.146 85.2137 97.1719 85.6654V88.0181H96.6111V85.3837C96.6387 84.9995 96.56 84.615 96.3839 84.2732C96.3074 84.1556 96.201 84.0607 96.0759 83.9983C95.9508 83.936 95.8115 83.9084 95.6723 83.9185C95.4914 83.9124 95.3119 83.9513 95.1495 84.0319C94.9872 84.1125 94.847 84.2323 94.7416 84.3806C94.494 84.7585 94.3741 85.2071 94.3999 85.6593V88.012H93.831V83.4909H94.3557V84.3502C94.4897 84.0639 94.6981 83.8195 94.9587 83.6429C95.2074 83.4802 95.4985 83.3956 95.7949 83.3998C96.0837 83.3919 96.3668 83.4818 96.599 83.6551C96.8356 83.8482 97.0075 84.1099 97.0915 84.4049ZM89.3001 81.7097H92.3515V82.2102H89.879V84.4859H92.2168V85.0128H89.873V87.4791H92.3997V88.0242H89.294L89.3001 81.7097ZM80.1236 85.4404C80.1216 85.0217 79.991 84.614 79.7497 84.2732C79.6431 84.14 79.507 84.034 79.3523 83.9636C79.1977 83.8932 79.0287 83.8604 78.8592 83.8679C78.6851 83.8651 78.5127 83.9019 78.3547 83.9756C78.1967 84.0492 78.0572 84.1579 77.9466 84.2934C77.6855 84.6207 77.5342 85.023 77.5144 85.4424L80.1236 85.4404ZM80.6744 85.5336V85.8599H77.4903C77.4754 86.3403 77.6339 86.8098 77.9365 87.1812C78.089 87.3393 78.2735 87.4624 78.4775 87.5422C78.6815 87.6219 78.9001 87.6564 79.1185 87.6432C79.3223 87.6425 79.5251 87.6146 79.7216 87.5601C79.9315 87.5017 80.1339 87.4188 80.3246 87.3129V87.8783C79.926 88.0508 79.496 88.1377 79.0622 88.1336C78.772 88.1494 78.4819 88.1008 78.2124 87.9912C77.9428 87.8816 77.7005 87.7137 77.5023 87.4993C77.1258 87.0765 76.9375 86.4868 76.9375 85.7302C76.9078 85.1152 77.1023 84.5105 77.4842 84.03C77.6589 83.8198 77.8787 83.6524 78.127 83.5404C78.3753 83.4284 78.6456 83.3748 78.9175 83.3835C79.1602 83.3743 79.4017 83.4218 79.6232 83.5224C79.8446 83.6229 80.04 83.7738 80.194 83.9631C80.5308 84.4139 80.6989 84.9701 80.6684 85.5336H80.6744ZM76.252 83.6308L76.2098 84.2022C76.0611 84.1214 75.9022 84.0614 75.7374 84.0239C75.5558 83.9843 75.3704 83.9653 75.1846 83.9672C74.9638 83.9595 74.7439 83.9998 74.5399 84.0855C74.3359 84.1712 74.1527 84.3001 74.0026 84.4637C73.6886 84.818 73.5242 85.2819 73.5443 85.7566C73.5187 86.2333 73.6739 86.7021 73.9785 87.0677C74.1268 87.2299 74.3086 87.3574 74.5111 87.4411C74.7136 87.5248 74.9318 87.5626 75.1504 87.552C75.3251 87.5509 75.4991 87.5298 75.6691 87.4892C75.8574 87.4448 76.0412 87.3823 76.2178 87.3028L76.2701 87.8681C76.0899 87.941 75.9026 87.9947 75.7113 88.0282C75.5121 88.0629 75.3103 88.0799 75.1082 88.0789C74.8154 88.0917 74.5231 88.0418 74.2508 87.9325C73.9784 87.8231 73.7322 87.6569 73.5282 87.4446C73.1137 86.982 72.897 86.3732 72.9252 85.7505C72.9093 85.4452 72.9572 85.1399 73.0658 84.8545C73.1744 84.569 73.3413 84.3098 73.5556 84.0935C73.77 83.8773 74.027 83.7088 74.31 83.5991C74.5931 83.4893 74.8958 83.4407 75.1987 83.4565C75.3798 83.4557 75.5606 83.4699 75.7394 83.4991C75.9122 83.5257 76.0819 83.5698 76.246 83.6308H76.252ZM71.8095 85.252V88.0181H71.2406V85.3837C71.2406 84.873 71.1522 84.4981 70.9793 84.259C70.8818 84.136 70.7559 84.0389 70.6125 83.9764C70.4692 83.9139 70.3128 83.8877 70.1572 83.9003C69.9695 83.892 69.7826 83.9299 69.6127 84.0107C69.4428 84.0916 69.2951 84.213 69.1822 84.3644C68.9268 84.7452 68.8032 85.2004 68.8304 85.6593V88.012H68.2616V83.4909H68.7862V84.3502C68.9251 84.0559 69.1422 83.8062 69.4134 83.6287C69.6875 83.4655 70.0017 83.3834 70.32 83.3917C70.5289 83.3781 70.738 83.4143 70.9305 83.4974C71.1229 83.5805 71.2932 83.7081 71.4276 83.8699C71.6768 84.1921 71.8035 84.6521 71.8035 85.258L71.8095 85.252ZM66.7097 85.4343C66.7071 85.0154 66.5758 84.6077 66.3338 84.2671C66.2274 84.1337 66.0914 84.0275 65.9366 83.9571C65.7819 83.8866 65.6129 83.854 65.4433 83.8618C65.2673 83.8598 65.0933 83.8984 64.9344 83.9746C64.7755 84.0508 64.6361 84.1626 64.5266 84.3015C64.2648 84.6284 64.1134 85.0309 64.0945 85.4506L66.7097 85.4343ZM67.2605 85.5276V85.8538H64.0764C64.0615 86.3342 64.22 86.8037 64.5226 87.1751C64.6746 87.3333 64.8588 87.4565 65.0625 87.5362C65.2661 87.616 65.4845 87.6504 65.7026 87.6371C65.9064 87.6363 66.1091 87.6083 66.3056 87.554C66.5156 87.4958 66.718 87.4128 66.9087 87.3068V87.8722C66.5108 88.045 66.0815 88.132 65.6483 88.1275C65.3581 88.1433 65.068 88.0947 64.7985 87.9851C64.5289 87.8755 64.2866 87.7076 64.0884 87.4932C63.7105 87.0697 63.5236 86.48 63.5236 85.7241C63.493 85.109 63.6875 84.5039 64.0703 84.0239C64.2448 83.814 64.4643 83.6468 64.7122 83.5348C64.9601 83.4228 65.23 83.369 65.5016 83.3775C65.7443 83.3679 65.9859 83.4153 66.2074 83.5159C66.4289 83.6164 66.6243 83.7675 66.778 83.957C67.1168 84.4092 67.2856 84.9678 67.2545 85.5336L67.2605 85.5276ZM61.7888 81.2395H62.3577V88.0181H61.7888V81.2395ZM59.7404 81.2395H60.3053V88.0181H59.7364L59.7404 81.2395ZM58.2428 85.4343C58.2402 85.0154 58.1089 84.6077 57.8669 84.2671C57.7604 84.1339 57.6242 84.0279 57.4696 83.9575C57.3149 83.8871 57.146 83.8543 56.9764 83.8618C56.8026 83.859 56.6305 83.8958 56.4728 83.9695C56.3151 84.0432 56.176 84.1519 56.0658 84.2874C55.804 84.6142 55.6526 85.0167 55.6336 85.4364L58.2428 85.4343ZM58.7936 85.5276V85.8538H55.6095C55.5948 86.3338 55.7525 86.803 56.0537 87.1751C56.2063 87.3331 56.3909 87.4562 56.5948 87.5359C56.7988 87.6156 57.0174 87.6502 57.2357 87.6371C57.4395 87.6364 57.6423 87.6085 57.8388 87.554C58.0488 87.496 58.2513 87.413 58.4418 87.3068V87.8722C58.044 88.045 57.6147 88.132 57.1815 88.1275C56.8912 88.1433 56.6011 88.0947 56.3316 87.9851C56.0621 87.8755 55.8197 87.7076 55.6216 87.4932C55.2437 87.0697 55.0567 86.48 55.0567 85.7241C55.0261 85.109 55.2207 84.5039 55.6035 84.0239C55.778 83.814 55.9974 83.6468 56.2454 83.5348C56.4933 83.4228 56.7632 83.369 57.0347 83.3775C57.2775 83.3679 57.5191 83.4153 57.7406 83.5159C57.9621 83.6164 58.1574 83.7675 58.3112 83.957C58.65 84.4092 58.8188 84.9678 58.7876 85.5336L58.7936 85.5276ZM54.3712 83.6247L54.327 84.1962C54.1786 84.1148 54.0196 84.0547 53.8546 84.0178C53.6737 83.9783 53.489 83.9592 53.3038 83.9611C53.0827 83.9534 52.8625 83.9937 52.6582 84.0794C52.4539 84.165 52.2703 84.294 52.1198 84.4576C51.807 84.8126 51.6427 85.276 51.6615 85.7505C51.6356 86.2276 51.7917 86.6967 52.0977 87.0616C52.246 87.2237 52.4279 87.351 52.6304 87.4343C52.833 87.5177 53.0512 87.5551 53.2697 87.5439C53.445 87.5427 53.6196 87.5216 53.7903 87.4811C53.978 87.4367 54.1611 87.3743 54.3371 87.2946L54.3913 87.86C54.2105 87.9332 54.0225 87.9869 53.8305 88.0201C53.6347 88.0544 53.4362 88.0714 53.2375 88.0708C52.9446 88.084 52.6522 88.0343 52.3798 87.9249C52.1074 87.8156 51.8612 87.6491 51.6575 87.4365C51.2423 86.9743 51.0254 86.3652 51.0544 85.7424C51.0386 85.4371 51.0865 85.1318 51.1951 84.8464C51.3037 84.5609 51.4706 84.3017 51.6849 84.0854C51.8992 83.8692 52.1563 83.7007 52.4393 83.591C52.7223 83.4812 53.0251 83.4326 53.328 83.4484C53.5097 83.4477 53.6912 83.4619 53.8707 83.4909C54.0396 83.5212 54.2053 83.5681 54.3652 83.6308L54.3712 83.6247ZM47.0582 83.4909H47.7638L48.8312 85.1831L49.9328 83.4909H50.564L49.1267 85.5762L50.7087 88.0222H50.0212L48.7809 86.0504L47.5487 88.0222H46.9175L48.4874 85.6188L47.0582 83.4909ZM43.0821 81.7076H46.1335V82.2082H43.659V84.4839H45.9968V85.0108H43.659V87.477H46.1878V88.0222H43.0821V81.7076ZM33.9056 85.4384C33.9036 85.0197 33.773 84.6119 33.5317 84.2711C33.4252 84.138 33.289 84.032 33.1344 83.9616C32.9797 83.8912 32.8108 83.8584 32.6412 83.8658C32.4672 83.8631 32.2947 83.8999 32.1367 83.9735C31.9787 84.0472 31.8392 84.1559 31.7286 84.2914C31.4675 84.6186 31.3162 85.021 31.2964 85.4404L33.9056 85.4384ZM34.4564 85.5316V85.8579H31.2783C31.2634 86.3382 31.422 86.8078 31.7246 87.1791C31.8766 87.3373 32.0608 87.4605 32.2644 87.5403C32.4681 87.62 32.6865 87.6545 32.9046 87.6412C33.1083 87.6403 33.3111 87.6124 33.5076 87.5581C33.7176 87.4998 33.92 87.4169 34.1107 87.3109V87.8763C33.7128 88.0491 33.2835 88.136 32.8503 88.1316C32.5601 88.1474 32.27 88.0987 32.0004 87.9891C31.7309 87.8795 31.4885 87.7116 31.2904 87.4973C30.9152 87.0744 30.7269 86.4847 30.7255 85.7282C30.6959 85.1132 30.8903 84.5085 31.2723 84.028C31.447 83.8178 31.6668 83.6504 31.9151 83.5384C32.1634 83.4264 32.4337 83.3728 32.7056 83.3815C32.948 83.3721 33.1893 83.4196 33.4104 83.5202C33.6316 83.6207 33.8265 83.7717 33.98 83.9611C34.3188 84.4117 34.4877 84.9691 34.4564 85.5336V85.5316ZM29.7787 83.5943V84.1273C29.6137 84.0546 29.442 83.9982 29.2661 83.9591C29.0899 83.9201 28.9099 83.9004 28.7294 83.9003C28.4897 83.8885 28.2522 83.9522 28.05 84.0827C27.9704 84.1329 27.905 84.2029 27.86 84.2859C27.8149 84.369 27.7918 84.4623 27.7927 84.5569C27.7927 84.8271 28.0828 85.0973 28.6631 85.3675L28.7917 85.4303C29.1427 85.5756 29.4628 85.7875 29.7345 86.0544C29.9075 86.2538 30.0007 86.511 29.9958 86.7759C30.0022 86.9583 29.9653 87.1396 29.8885 87.3049C29.8116 87.4701 29.6968 87.6146 29.5536 87.7263C29.2068 87.9771 28.7857 88.1014 28.3596 88.0789C28.1494 88.0793 27.9396 88.0617 27.7324 88.0262C27.5421 87.992 27.356 87.937 27.1776 87.8621V87.323C27.3626 87.41 27.5559 87.4779 27.7545 87.5257C27.9413 87.5719 28.133 87.5957 28.3254 87.5966C28.601 87.61 28.8734 87.5325 29.1013 87.3757C29.1935 87.3147 29.2691 87.2313 29.321 87.1333C29.373 87.0352 29.3998 86.9256 29.3988 86.8144C29.4039 86.6357 29.3414 86.4618 29.2239 86.328C28.9674 86.1049 28.6751 85.9274 28.3596 85.8032C28.0188 85.6581 27.7069 85.4521 27.4389 85.1952C27.2832 85.0154 27.2 84.7833 27.2057 84.5447C27.2026 84.3869 27.2376 84.2307 27.3076 84.0895C27.3776 83.9483 27.4806 83.8263 27.6077 83.7341C27.9156 83.5136 28.2878 83.403 28.6651 83.42C28.8601 83.4191 29.0549 83.432 29.2481 83.4585C29.4286 83.4887 29.6062 83.5348 29.7787 83.5963V83.5943ZM25.4187 81.3652H26.068V82.1028H25.4187V81.3652ZM25.4629 83.4849H26.0318V88.0161H25.4629V83.4849ZM23.3944 82.1393V83.4909H24.4417V83.955H23.3944V86.6036C23.3718 86.8684 23.4226 87.1343 23.5412 87.3717C23.5986 87.447 23.6742 87.5063 23.7607 87.5439C23.8473 87.5815 23.9419 87.5961 24.0357 87.5865C24.1129 87.5859 24.1898 87.5764 24.2648 87.5581C24.3438 87.5413 24.4211 87.5175 24.496 87.4872V88.0019C24.4035 88.0316 24.3087 88.0533 24.2126 88.0667C24.1154 88.0808 24.0173 88.0875 23.9191 88.087C23.517 88.087 23.2416 87.9816 23.0748 87.7749C22.908 87.5682 22.8255 87.2095 22.8255 86.7029V83.957H21.9109V83.4909H22.8316V82.346L23.3944 82.1393ZM21.5712 83.4484V84.03C21.5069 84.0158 21.4486 84.0036 21.3963 83.9976C21.3511 83.9899 21.3054 83.9859 21.2596 83.9854C21.0872 83.9783 20.9156 84.0139 20.76 84.0892C20.6044 84.1644 20.4695 84.277 20.3671 84.4171C20.1338 84.7697 20.0209 85.1895 20.0455 85.6127V88.0161H19.4766V83.4909H20.0012V84.4454C20.0932 84.1511 20.2677 83.89 20.5038 83.6936C20.7258 83.5157 21.0022 83.4211 21.2857 83.4261H21.4144L21.5712 83.4484ZM17.9267 85.4323C17.9241 85.0134 17.7928 84.6056 17.5508 84.2651C17.4443 84.1319 17.3081 84.0259 17.1535 83.9555C16.9988 83.8851 16.8299 83.8523 16.6603 83.8598C16.4863 83.857 16.3138 83.8938 16.1558 83.9675C15.9978 84.0411 15.8583 84.1498 15.7477 84.2853C15.4866 84.6126 15.3353 85.0149 15.3155 85.4343L17.9267 85.4323ZM18.4755 85.5255V85.8518H15.2974C15.2834 86.332 15.4419 86.8012 15.7437 87.1731C15.8962 87.3312 16.0807 87.4543 16.2847 87.5341C16.4887 87.6138 16.7073 87.6483 16.9257 87.6351C17.1294 87.6344 17.3322 87.6065 17.5287 87.552C17.7386 87.4936 17.941 87.4107 18.1318 87.3048V87.8702C17.9378 87.9575 17.7358 88.0253 17.5287 88.0728C17.3142 88.1156 17.0961 88.1366 16.8774 88.1356C16.5869 88.1516 16.2964 88.103 16.0266 87.9934C15.7567 87.8838 15.514 87.7159 15.3155 87.5014C14.9389 87.0785 14.7513 86.4888 14.7527 85.7322C14.7225 85.1175 14.9162 84.5128 15.2974 84.032C15.4721 83.8218 15.6919 83.6544 15.9402 83.5424C16.1885 83.4304 16.4588 83.3768 16.7307 83.3856C16.9734 83.3763 17.2149 83.4239 17.4364 83.5244C17.6578 83.625 17.8532 83.7758 18.0071 83.9651C18.3414 84.4162 18.5073 84.9715 18.4755 85.5336V85.5255ZM13.2852 85.7282C13.3119 85.2498 13.1911 84.7749 12.9395 84.3684C12.8344 84.2126 12.692 84.0861 12.5254 84.0007C12.3588 83.9153 12.1735 83.8738 11.9867 83.88C11.7898 83.8752 11.5947 83.9183 11.418 84.0058C11.2412 84.0933 11.0881 84.2226 10.9715 84.3826C10.6972 84.7719 10.5613 85.2432 10.5856 85.7201C10.5572 86.2122 10.6854 86.7006 10.9514 87.1143C11.0684 87.276 11.2232 87.4062 11.402 87.4931C11.5809 87.5801 11.7782 87.6212 11.9766 87.6128C12.1651 87.6163 12.3514 87.5712 12.5178 87.4819C12.6841 87.3925 12.8252 87.2618 12.9274 87.1021C13.1853 86.6942 13.3104 86.2153 13.2852 85.7322V85.7282ZM10.5856 87.248V89.923H10.0167V83.4909H10.5414V84.3846C10.6918 84.0844 10.9186 83.8298 11.1987 83.647C11.4655 83.4768 11.7755 83.3882 12.0912 83.3917C12.3439 83.3827 12.5951 83.4344 12.824 83.5425C13.0529 83.6507 13.2531 83.8122 13.4079 84.0138C13.7355 84.4292 13.8983 84.9885 13.8983 85.6958C13.8983 86.403 13.7295 87.0028 13.3918 87.4325C13.1319 87.7492 12.7711 87.9654 12.3708 88.0441C11.9706 88.1228 11.5556 88.0592 11.1967 87.8641C10.944 87.7167 10.7334 87.5059 10.5856 87.2521V87.248ZM5.66265 83.4909H6.36822L7.43764 85.1851L8.5372 83.4909H9.1684L7.73112 85.5782L9.31313 88.0242H8.62565L7.38537 86.0524L6.15314 88.0242H5.52194L7.09189 85.6208L5.66265 83.4909ZM1.68652 81.7076H4.73797V82.2082H2.26344V84.4839H4.60329V85.0108H2.26344V87.477H4.79225V88.0222H1.68652V81.7076Z" fill="#1A1A18"/>
<path fill-rule="evenodd" clip-rule="evenodd" d="M38.9273 83.953C39.1487 83.953 39.3652 84.0192 39.5493 84.1432C39.7335 84.2673 39.877 84.4435 39.9617 84.6498C40.0465 84.8561 40.0686 85.083 40.0254 85.302C39.9822 85.5209 39.8756 85.722 39.719 85.8799C39.5624 86.0378 39.3629 86.1453 39.1457 86.1888C38.9285 86.2324 38.7034 86.21 38.4988 86.1246C38.2942 86.0391 38.1193 85.8945 37.9963 85.7089C37.8733 85.5232 37.8076 85.305 37.8076 85.0818C37.8074 84.9335 37.8361 84.7865 37.8923 84.6495C37.9485 84.5124 38.0309 84.3879 38.135 84.283C38.239 84.1781 38.3625 84.095 38.4985 84.0384C38.6345 83.9817 38.7802 83.9527 38.9273 83.953Z" fill="#1A1A18"/>
<path fill-rule="evenodd" clip-rule="evenodd" d="M85.0406 83.953C85.262 83.953 85.4785 84.0192 85.6626 84.1432C85.8468 84.2673 85.9903 84.4435 86.075 84.6498C86.1598 84.8561 86.1819 85.083 86.1387 85.302C86.0955 85.5209 85.9889 85.722 85.8323 85.8799C85.6757 86.0378 85.4762 86.1453 85.259 86.1888C85.0418 86.2324 84.8167 86.21 84.6121 86.1246C84.4075 86.0391 84.2326 85.8945 84.1096 85.7089C83.9866 85.5232 83.9209 85.305 83.9209 85.0818C83.9206 84.9335 83.9494 84.7865 84.0056 84.6495C84.0618 84.5124 84.1442 84.3879 84.2483 84.283C84.3523 84.1781 84.4758 84.095 84.6118 84.0384C84.7477 83.9817 84.8935 83.9527 85.0406 83.953Z" fill="#1A1A18"/>
<mask id="mask0_60_437" style="mask-type:luminance" maskUnits="userSpaceOnUse" x="93" y="0" width="20" height="19">
<path d="M101.278 6.74818L103.162 6.66104C106.599 6.50297 106.861 6.90017 103.689 5.59309C106.245 5.01351 106.748 5.2344 104.034 4.73588L104.491 4.45218C105.628 3.74494 104.611 3.90503 103.558 3.60308C104.989 3.05391 104.776 3.28087 103.357 2.68103C103.608 0.249259 103.93 0.228995 102.517 2.08728C99.6681 2.89787 103.12 2.73778 101.914 3.16536C99.7586 3.92732 104.201 3.73683 101.914 4.1786C98.454 4.84531 105.277 4.78655 100.908 5.49784C99.829 5.67212 102.627 5.79979 100.971 6.45029C99.5737 6.99541 100.406 6.78871 101.278 6.74818ZM96.5323 8.66928C96.0337 8.8618 96.3051 8.94488 96.7172 9.07458L98.066 9.53864L97.5575 9.83045C97.1735 10.0513 97.2439 10.0027 97.6117 10.1547L99.2581 10.8295C98.3274 11.324 98.9244 11.174 99.6822 11.6097C100.514 12.088 100.51 11.9562 99.6601 12.3656C98.6791 12.8357 98.7274 12.6554 99.7224 13.1032C97.9977 13.7375 98.1424 13.6423 99.2641 13.9138C100.181 14.1367 100.892 14.1367 99.5234 14.4346C96.4599 15.1054 100.512 15.1702 98.7736 15.5634C97.7504 15.7944 97.26 15.6991 97.9153 16.1044C98.4238 16.4206 98.5063 16.3436 97.7685 16.532C97.1514 16.6901 97.1795 16.6536 97.6198 17.3527C97.1816 18.9557 97.8831 17.8918 99.2802 16.9474C99.7646 16.8603 100.116 16.8806 100.601 16.7934C102.219 16.3436 99.435 15.7376 101.865 15.6282C102.376 15.6039 102.394 15.3384 102.042 15.0345C101.103 14.2239 102.227 14.7021 103.166 14.773L104.907 14.9048C103.433 15.6201 104.062 15.385 105.711 16.1004C104.907 16.8117 105.5 16.5948 106.641 16.9474C106.258 17.4683 106.31 17.3244 106.989 17.4196C109.345 17.7479 109.186 18.2059 108.396 16.2584C108.332 16.0943 108.346 16.0092 108.171 15.9788L107.311 15.8248C107.811 15.4823 108.752 14.6454 108.016 14.4184C105.461 13.543 106.219 13.8976 107.665 13.4741C108.145 13.3342 108.67 13.1255 107.92 12.9674C107.323 12.8277 106.719 12.7208 106.111 12.6473C104.671 12.475 105.709 12.4446 106.444 12.2926C108.294 11.9238 109.614 11.4172 106.499 11.3706C104.575 11.3402 106.919 10.9166 107.524 10.7626C109.864 10.1871 111.904 9.95204 105.896 9.76358C103.998 9.70684 106.081 9.4515 107.303 9.35828C109.454 9.19009 112.626 8.09984 110.652 8.27412C108.861 8.43016 106.963 8.66117 105.106 8.50716C104.302 8.44029 105.753 8.4261 106.714 8.3572C110.987 8.05323 113.808 6.17063 111.201 6.74818C107.902 7.60741 102.253 7.423 98.1605 7.17374C96.9665 7.10079 95.9956 7.02175 95.2518 6.95893C93.1914 6.78466 93.6919 6.95893 94.4377 7.36423C95.4407 7.91543 98.3877 8.40381 96.5323 8.66928Z" fill="white"/>
</mask>
<g mask="url(#mask0_60_437)">
<path d="M93.1946 -0.00095619L92.9873 18.9637L113.805 19.194L114.013 0.229374L93.1946 -0.00095619Z" fill="url(#paint0_linear_60_437)"/>
</g>
</g>
<defs>
<linearGradient id="paint0_linear_60_437" x1="103.374" y1="23.6919" x2="103.667" y2="-2.82698" gradientUnits="userSpaceOnUse">
<stop stop-color="#CA4E97"/>
<stop offset="0.22" stop-color="#CA4E97"/>
<stop offset="0.3" stop-color="#E3000F"/>
<stop offset="0.42" stop-color="#EF7C00"/>
<stop offset="0.5" stop-color="#FDE600"/>
<stop offset="0.6" stop-color="#00963F"/>
<stop offset="0.76" stop-color="#E3000F"/>
<stop offset="1" stop-color="#E5007D"/>
</linearGradient>
<clipPath id="clip0_60_437">
<rect width="128" height="90" fill="white"/>
</clipPath>
</defs>
</svg>
