<svg style="width:80px;height:60px;" id="Layer_1" data-name="Layer 1" xmlns="http://www.w3.org/2000/svg" xmlns:xlink="http://www.w3.org/1999/xlink" viewBox="0 0 636.76 444.12"><defs><style>.cls-1,.cls-5{fill:none;}.cls-1{clip-rule:evenodd;}.cls-2,.cls-3{fill:#e3000f;}.cls-3,.cls-4,.cls-8{fill-rule:evenodd;}.cls-4,.cls-7{fill:#004e9e;}.cls-5{stroke:#1a1a18;stroke-miterlimit:22.93;stroke-width:1.55px;}.cls-6,.cls-8{fill:#1a1a18;}.cls-9{clip-path:url(#clip-path);}.cls-10{fill:url(#linear-gradient);}</style><clipPath id="clip-path"><path class="cls-1" d="M503.83,33.3l9.37-.43c17.1-.78,18.4,1.18,2.62-5.27,12.72-2.86,15.22-1.77,1.72-4.23l2.27-1.4c5.66-3.49.6-2.7-4.64-4.19,7.12-2.71,6.06-1.59-1-4.55,1.25-12,2.85-12.1-4.18-2.93-14.17,4,3,3.21-3,5.32-10.72,3.76,11.38,2.82,0,5-17.21,3.29,16.73,3-5,6.51-5.37.86,8.55,1.49.31,4.7C495.35,34.52,499.49,33.5,503.83,33.3Zm-23.61,9.48c-2.48.95-1.13,1.36.92,2l6.71,2.29-2.53,1.44c-1.91,1.09-1.56.85.27,1.6l8.19,3.33c-4.63,2.44-1.66,1.7,2.11,3.85,4.14,2.36,4.12,1.71-.11,3.73-4.88,2.32-4.64,1.43.31,3.64-8.58,3.13-7.86,2.66-2.28,4,4.56,1.1,8.1,1.1,1.29,2.57-15.24,3.31,4.92,3.63-3.73,5.57-5.09,1.14-7.53.67-4.27,2.67,2.53,1.56,2.94,1.18-.73,2.11-3.07.78-2.93.6-.74,4.05-2.18,7.91,1.31,2.66,8.26-2,2.41-.43,4.16-.33,6.57-.76,8.05-2.22-5.8-5.21,6.29-5.75,2.54-.12,2.63-1.43.88-2.93-4.67-4,.92-1.64,5.59-1.29l8.66.65c-7.33,3.53-4.2,2.37,4,5.9-4,3.51-1.05,2.44,4.63,4.18-1.91,2.57-1.65,1.86,1.73,2.33,11.72,1.62,10.93,3.88,7-5.73-.32-.81-.25-1.23-1.12-1.38l-4.28-.76c2.49-1.69,7.17-5.82,3.51-6.94-12.71-4.32-8.94-2.57-1.75-4.66,2.39-.69,5-1.72,1.27-2.5a84,84,0,0,0-9-1.58c-7.16-.85-2-1,1.66-1.75,9.2-1.82,15.77-4.32.27-4.55-9.57-.15,2.09-2.24,5.1-3,11.64-2.84,21.79-4-8.1-4.93-9.44-.28.92-1.54,7-2,10.7-.83,26.48-6.21,16.66-5.35-8.91.77-18.35,1.91-27.59,1.15-4-.33,3.22-.4,8-.74,21.26-1.5,35.29-10.79,22.32-7.94-16.41,4.24-44.51,3.33-64.87,2.1-5.94-.36-10.77-.75-14.47-1.06-10.25-.86-7.76,0-4.05,2C474.79,39.06,489.45,41.47,480.22,42.78Z"/></clipPath><linearGradient id="linear-gradient" x1="-277.28" y1="644.41" x2="-276.28" y2="644.41" gradientTransform="matrix(130.87, 0, 0, 97.52, 36732.96, -62795.37)" gradientUnits="userSpaceOnUse"><stop offset="0" stop-color="#ca4e97"/><stop offset="0.22" stop-color="#ca4e97"/><stop offset="0.3" stop-color="#e3000f"/><stop offset="0.42" stop-color="#ef7c00"/><stop offset="0.5" stop-color="#fde600"/><stop offset="0.6" stop-color="#00963f"/><stop offset="0.76" stop-color="#e3000f"/><stop offset="1" stop-color="#e5007d"/></linearGradient></defs><path class="cls-2" d="M7.05,303.13V276.72H74.77c10.91,0,18.15-1.07,21.79-3.26q7.84-4.68,7.83-14,0-10.74-9.13-15.77c-3.49-1.89-9.06-2.82-16.67-2.82H51.1q-25.22,0-36.33-9.12A39.87,39.87,0,0,1,3.9,217.22,45.29,45.29,0,0,1,0,198.56,48.35,48.35,0,0,1,9.13,170Q18,157.54,37.7,155.46q6.63-.68,19.78-.67H131.1V181.2H64.68q-14.93.12-19.78,1.3-10,2.5-10,15.1c0,7.08,2.78,11.87,8.39,14.35q5.63,2.51,18.7,2.49H85.76c12.17,0,21.3,1,27.31,3.15,10.5,3.56,17.74,9.8,21.63,18.7a56,56,0,0,1,4.79,23,48,48,0,0,1-6.2,24.26q-8.68,15.18-26.19,18.14c-5.68.92-14.14,1.4-25.46,1.4Z"/><polygon class="cls-2" points="193.98 181.2 146.66 181.2 146.66 154.79 274.65 154.79 274.65 181.2 225.52 181.2 225.52 303.13 193.98 303.13 193.98 181.2"/><path class="cls-2" d="M499.2,220.34h44.35c7.42,0,12.65-1.08,15.77-3.27,4.71-3.34,7.09-9,7.09-17.17,0-9.05-3.57-14.84-10.65-17.4-2.49-.85-6.54-1.3-12.21-1.3H499.2Zm0,26.41v56.38H467.66V154.79H540.1q31.17,0,43.56,7.94a36.65,36.65,0,0,1,13,14.06,40.81,40.81,0,0,1,4.64,19.29q0,21.19-10.76,32.64c-4.42,4.64-10.28,8.16-17.63,10.65q8.75,2.9,13.17,6.42a31.62,31.62,0,0,1,8.06,10.2A44.79,44.79,0,0,1,598,266.15a111.32,111.32,0,0,1,1.9,14.62c.85,10.64,2.08,18.1,3.6,22.36H568q-1.66-5.22-3.27-21.07c-.89-8.68-2.44-15.35-4.75-19.95a24.72,24.72,0,0,0-10.39-10.8c-5.71-3.11-14.06-4.63-25-4.56Z"/><path class="cls-3" d="M401.24,194.21,448.39,306H415.24l-37.33-88.53q11.58-11.85,23.33-23.3M393.58,176l3.35,7.95q-11.76,11.42-23.37,23.21l-4.46-10.57Q381.19,186,393.58,176Zm-74.82,70.12L301.15,287.9q-5.25,6.5-10.44,13.13l-16,0c6.25-8.54,16.21-21.56,21.78-28.56Q307.36,258.74,318.76,246.14Zm35.61-84.47L330.18,219A573.67,573.67,0,0,0,288.43,266c-6.29,7.9-17.87,23-23.79,31.28-.5.69-1,1.36-1.42,2l74-175.65c6.9-11.19,29.12-10.85,34.19,0l18,42.56Q377,176,364.87,186.58Z"/><path class="cls-4" d="M292.46,269.19C356.39,188.77,434,137.42,511.7,86.31c-75.46,66.7-151,133.1-218.47,219.87l-28.16-.09c-1,0,18.55-25.79,27.39-36.9"/><ellipse class="cls-5" cx="620" cy="164.86" rx="15.99" ry="15.98" transform="translate(-0.25 0.94) rotate(-0.09)"/><path class="cls-6" d="M613.94,153.89h5.92a9.39,9.39,0,0,1,5.65,1.41,4.93,4.93,0,0,1,1.9,4.22,5,5,0,0,1-1.24,3.48,6.4,6.4,0,0,1-3.55,1.88,3.32,3.32,0,0,1,1.6.9,7.14,7.14,0,0,1,1.29,2.21l3.33,7.89h-3.3l-2.89-7.19a4.32,4.32,0,0,0-1.44-2,4.48,4.48,0,0,0-2.46-.57H617v9.73h-3Zm3,2.38v7.47h2.37a5.72,5.72,0,0,0,3.61-1,3.33,3.33,0,0,0,1.31-2.79,3.22,3.22,0,0,0-1.21-2.79,6.52,6.52,0,0,0-3.8-.88Z"/><path class="cls-7" d="M493.64,381.16V370.35h27.94q6.74,0,9-1.35a6.36,6.36,0,0,0,3.24-5.81,6.9,6.9,0,0,0-3.78-6.52c-1.44-.78-3.73-1.18-6.88-1.18H511.8q-10.41,0-15-3.76a16.16,16.16,0,0,1-4.48-6,18.49,18.49,0,0,1-1.62-7.67,20,20,0,0,1,3.78-11.8c2.44-3.42,6.39-5.42,11.8-6,1.83-.18,4.55-.27,8.18-.27h30.35v10.82h-27.4a42.74,42.74,0,0,0-8.18.55q-4.12,1-4.13,6.28,0,4.44,3.46,6c1.55.69,4.14,1,7.73,1h9.81c5,0,8.79.43,11.29,1.3q6.51,2.17,8.94,7.69a23.11,23.11,0,0,1,2,9.49,19.66,19.66,0,0,1-2.55,10,14.71,14.71,0,0,1-10.84,7.47,70.71,70.71,0,0,1-10.5.58ZM445.18,320h13v34.38c.18,4.36.36,7.26.57,8.7a7,7,0,0,0,4,5.71c2.26,1,6.2,1.55,11.86,1.55h12.45v10.81h-13.8c-6.51,0-11.25-.33-14.2-1.11q-10.14-3-12.82-12.84c-.71-2.52-1.06-6.8-1.09-12.82Zm-38.69,14.73-8.72,21.49h17.41Zm-32.83,46.42L399,320h15l25.3,61.15H424L418.1,367H394.85l-5.92,14.12Zm-26.31-50.33H327.91V320h52.74v10.82H360.38v50.33h-13Zm-39.14,50.33V320h13v61.15Zm-49.85-32.27h17.73c3.15,0,5.37-.5,6.65-1.53,1.91-1.53,2.86-4.17,2.86-7.94q0-6.21-4.32-8a14.41,14.41,0,0,0-4.91-.62h-18Zm0,10.82v21.45h-13V320h30.54c5.55,0,9.52.38,11.94,1.16a16.89,16.89,0,0,1,9.49,8.36,21,21,0,0,1,2.6,10.33,23,23,0,0,1-1.7,8.8,18,18,0,0,1-4.75,6.85,15.46,15.46,0,0,1-5.76,3.28,30.87,30.87,0,0,1-8.43.92Zm-77,21.45V370.35h28q6.73,0,9-1.35a6.34,6.34,0,0,0,3.24-5.81,6.89,6.89,0,0,0-3.77-6.52c-1.44-.78-3.73-1.18-6.88-1.18H199.54q-10.41,0-15-3.76a16.16,16.16,0,0,1-4.48-6,18.33,18.33,0,0,1-1.62-7.67,20,20,0,0,1,3.77-11.8q3.67-5.13,11.81-6,2.75-.27,8.17-.27h30.36v10.82H205.15a42.82,42.82,0,0,0-8.18.55q-4.12,1-4.12,6.28c0,3,1.14,4.95,3.45,6q2.34,1,7.74,1h9.81c5,0,8.79.43,11.28,1.3q6.51,2.17,8.94,7.69a23,23,0,0,1,2,9.49,19.56,19.56,0,0,1-2.55,10,14.71,14.71,0,0,1-10.84,7.47,70.62,70.62,0,0,1-10.5.58Zm-39.13-51.25q-9,0-12.84,5.87c-2,3-3,8-3,14.7q0,10.75,3.83,15.82t12.08,5q8,0,11.83-5t3.8-15.62c0-6.39-1-11.26-3.07-14.64Q151.24,330,142.25,329.91Zm-.09-10.27a38.56,38.56,0,0,1,16.11,3.14,21.19,21.19,0,0,1,11.47,12.5,46.16,46.16,0,0,1,2.6,16.21,38.14,38.14,0,0,1-3.18,16.17,21.94,21.94,0,0,1-12,11.46,38,38,0,0,1-14,2.41,39.42,39.42,0,0,1-18-3.85,21.6,21.6,0,0,1-9.78-10.1Q112,360.7,112,350.91q0-17.48,8.68-24.91Q128,319.75,142.16,319.64ZM102.8,320v61.15h-13V355.77H66.21v25.39h-13V320h13V345H89.78V320Z"/><path class="cls-6" d="M589.1,412h3l6.47,19.41L605.09,412h2.83L599,437.7a13.17,13.17,0,0,1-2.72,4.94,5.23,5.23,0,0,1-3.79,1.48,10.84,10.84,0,0,1-1.11-.07c-.39,0-.78-.11-1.18-.19l.22-2.54.11,0c.92.14,1.5.22,1.73.22a3.32,3.32,0,0,0,2.68-1.34,17.11,17.11,0,0,0,2.26-5Zm-21.66-11.09h2.83v15a8.18,8.18,0,0,1,3-3.27,8.59,8.59,0,0,1,4.37-1.09,6.66,6.66,0,0,1,5.52,2.36c1.26,1.58,1.89,3.85,1.89,6.84v13.65h-2.83v-13q0-3.78-1.3-5.55a4.74,4.74,0,0,0-4.09-1.77,5.75,5.75,0,0,0-4.85,2.29,10.31,10.31,0,0,0-1.75,6.39v11.61h-2.83Zm-10.56,4.45V412h5.22v2.29h-5.22v13.07a7.08,7.08,0,0,0,.73,3.79,2.75,2.75,0,0,0,2.46,1.06,5,5,0,0,0,1.14-.14,6.91,6.91,0,0,0,1.15-.35v2.54a8.47,8.47,0,0,1-1.41.32,9.94,9.94,0,0,1-1.46.1c-2,0-3.37-.52-4.2-1.54s-1.23-2.79-1.23-5.29V414.3h-4.59V412h4.59v-5.65Zm-12,14.74v14.26h-2.5v-3.86a8.46,8.46,0,0,1-3.14,3.12,8.66,8.66,0,0,1-4.31,1.06,7.44,7.44,0,0,1-5.17-1.75,6,6,0,0,1-1.94-4.67,6.29,6.29,0,0,1,3-5.56q3-2,8.42-2h2.88c0-.09,0-.21,0-.37a2.85,2.85,0,0,0,0-.37,6.39,6.39,0,0,0-1.39-4.37,4.89,4.89,0,0,0-3.85-1.58,11.58,11.58,0,0,0-3.29.47,12.86,12.86,0,0,0-3.14,1.42v-2.75a16.9,16.9,0,0,1,3.37-1.23,13.93,13.93,0,0,1,3.36-.42c2.56,0,4.49.72,5.77,2.16S544.89,417.25,544.89,420.11ZM539,423a11.6,11.6,0,0,0-6.06,1.32,4.17,4.17,0,0,0-2.12,3.75A4.11,4.11,0,0,0,532,431.2a4.47,4.47,0,0,0,3.26,1.2,6.46,6.46,0,0,0,5-2,7.48,7.48,0,0,0,1.86-5.35V423Zm-18.11.05a11.39,11.39,0,0,0-1.72-6.71,5.48,5.48,0,0,0-4.74-2.41,6.08,6.08,0,0,0-5,2.48,10.47,10.47,0,0,0-1.92,6.59,11.36,11.36,0,0,0,1.83,6.88,6,6,0,0,0,5.1,2.46,5.51,5.51,0,0,0,4.72-2.52A11.46,11.46,0,0,0,520.86,423.06Zm-13.43,7.5v13.2h-2.82V412h2.61v4.41a9.35,9.35,0,0,1,3.26-3.64,8.18,8.18,0,0,1,4.45-1.26,7.93,7.93,0,0,1,6.55,3.07,13,13,0,0,1,2.44,8.3q0,5.39-2.52,8.57a8.2,8.2,0,0,1-6.78,3.18,8.28,8.28,0,0,1-4.15-1.05A8.48,8.48,0,0,1,507.43,430.56ZM483,416.51a9.22,9.22,0,0,1,3.07-3.66,7.41,7.41,0,0,1,4.24-1.29,6.1,6.1,0,0,1,5.17,2.32q1.76,2.33,1.75,6.84v13.65h-2.83v-13a10.3,10.3,0,0,0-1.13-5.49,3.91,3.91,0,0,0-3.54-1.74,5.48,5.48,0,0,0-4.65,2.28,10.44,10.44,0,0,0-1.68,6.31v11.61h-2.79v-13a10.28,10.28,0,0,0-1.13-5.48,3.9,3.9,0,0,0-3.54-1.75,5.47,5.47,0,0,0-4.63,2.28,10.37,10.37,0,0,0-1.7,6.31v11.61h-2.83V412h2.61v4.24a8.66,8.66,0,0,1,3-3.49,7.45,7.45,0,0,1,4.16-1.2,6.43,6.43,0,0,1,4,1.26A7.38,7.38,0,0,1,483,416.51Zm-38.76-13.3h15.18v2.47h-12.3v11.23h11.63v2.6H447.09v12.17h12.57v2.69H444.21Zm-45.65,18.41a10,10,0,0,0-1.86-5.76,5.39,5.39,0,0,0-4.43-2,5.76,5.76,0,0,0-4.54,2.1,9.79,9.79,0,0,0-2.15,5.67Zm2.74.46v1.61H385.49a9.79,9.79,0,0,0,2.22,6.52,7.57,7.57,0,0,0,5.88,2.28,11.46,11.46,0,0,0,3-.41,13.86,13.86,0,0,0,3-1.22v2.79a15.55,15.55,0,0,1-6.28,1.26,9.88,9.88,0,0,1-7.76-3.13q-2.81-3.13-2.81-8.73a12.45,12.45,0,0,1,2.72-8.39,8.93,8.93,0,0,1,7.13-3.19,7.83,7.83,0,0,1,6.35,2.86A11.81,11.81,0,0,1,401.3,422.08Zm-22-9.39-.21,2.82a9.24,9.24,0,0,0-2.35-.88,12.43,12.43,0,0,0-2.75-.28,7.65,7.65,0,0,0-5.88,2.45,9,9,0,0,0-2.28,6.38,9.28,9.28,0,0,0,2.16,6.47,7.44,7.44,0,0,0,5.83,2.39,11.51,11.51,0,0,0,2.58-.31,15.14,15.14,0,0,0,2.73-.92l.26,2.79a13.83,13.83,0,0,1-2.78.79,17.14,17.14,0,0,1-3,.25,10.32,10.32,0,0,1-7.86-3.13,11.68,11.68,0,0,1-3-8.36,10.77,10.77,0,0,1,11.31-11.32,16.4,16.4,0,0,1,2.69.21A12.92,12.92,0,0,1,379.3,412.69Zm-22.1,8v13.65h-2.83v-13c0-2.52-.44-4.37-1.3-5.55a4.75,4.75,0,0,0-4.09-1.77,5.75,5.75,0,0,0-4.85,2.29,10.31,10.31,0,0,0-1.75,6.39v11.61h-2.83V412h2.61v4.24a8.7,8.7,0,0,1,3.12-3.56,8.44,8.44,0,0,1,4.51-1.17,6.63,6.63,0,0,1,5.51,2.36C356.57,415.46,357.2,417.73,357.2,420.72Zm-25.37.9a10,10,0,0,0-1.87-5.76,5.37,5.37,0,0,0-4.43-2A5.74,5.74,0,0,0,321,416a9.73,9.73,0,0,0-2.15,5.67Zm2.74.46v1.61H318.76a9.79,9.79,0,0,0,2.22,6.52,7.54,7.54,0,0,0,5.87,2.28,11.53,11.53,0,0,0,3-.41,13.79,13.79,0,0,0,3-1.22v2.79a15.45,15.45,0,0,1-6.27,1.26,9.88,9.88,0,0,1-7.76-3.13c-1.88-2.09-2.81-5-2.81-8.73a12.4,12.4,0,0,1,2.72-8.39,8.93,8.93,0,0,1,7.12-3.19,7.81,7.81,0,0,1,6.35,2.86A11.82,11.82,0,0,1,334.57,422.08Zm-27.22-21.16h2.83v33.45h-2.83Zm-10.19,0H300v33.45h-2.83Zm-7.45,20.7a10,10,0,0,0-1.87-5.76,5.39,5.39,0,0,0-4.43-2,5.74,5.74,0,0,0-4.53,2.1,9.73,9.73,0,0,0-2.15,5.67Zm2.74.46v1.61H276.64a9.83,9.83,0,0,0,2.21,6.52,7.58,7.58,0,0,0,5.88,2.28,11.46,11.46,0,0,0,3-.41,13.66,13.66,0,0,0,3-1.22v2.79a15.45,15.45,0,0,1-6.27,1.26,9.88,9.88,0,0,1-7.76-3.13c-1.88-2.09-2.81-5-2.81-8.73a12.4,12.4,0,0,1,2.72-8.39,8.93,8.93,0,0,1,7.12-3.19,7.81,7.81,0,0,1,6.35,2.86A11.82,11.82,0,0,1,292.45,422.08Zm-22-9.39-.22,2.82a9,9,0,0,0-2.35-.88,12.34,12.34,0,0,0-2.74-.28,7.67,7.67,0,0,0-5.89,2.45,9.06,9.06,0,0,0-2.28,6.38,9.24,9.24,0,0,0,2.17,6.47A7.42,7.42,0,0,0,265,432a11.66,11.66,0,0,0,2.59-.31,15,15,0,0,0,2.72-.92l.27,2.79a13.74,13.74,0,0,1-2.79.79,16.94,16.94,0,0,1-2.95.25,10.29,10.29,0,0,1-7.86-3.13,11.64,11.64,0,0,1-3-8.36,10.77,10.77,0,0,1,11.31-11.32,16.61,16.61,0,0,1,2.7.21A13.12,13.12,0,0,1,270.45,412.69ZM234.1,412h3.51l5.31,8.35L248.4,412h3.14l-7.15,10.29,7.87,12.07h-3.42l-6.17-9.73-6.13,9.73H233.4l7.81-11.86Zm-19.78-8.8H229.5v2.47H217.19v11.23h11.63v2.6H217.19v12.17h12.58v2.69H214.32Zm-45.65,18.41a10,10,0,0,0-1.86-5.76,5.39,5.39,0,0,0-4.43-2,5.76,5.76,0,0,0-4.54,2.1,9.79,9.79,0,0,0-2.15,5.67Zm2.74.46v1.61H155.6a9.79,9.79,0,0,0,2.22,6.52,7.54,7.54,0,0,0,5.87,2.28,11.53,11.53,0,0,0,3-.41,13.79,13.79,0,0,0,3-1.22v2.79a15.45,15.45,0,0,1-6.27,1.26,9.88,9.88,0,0,1-7.76-3.13q-2.8-3.13-2.81-8.73a12.45,12.45,0,0,1,2.72-8.39,8.93,8.93,0,0,1,7.13-3.19,7.8,7.8,0,0,1,6.34,2.86A11.76,11.76,0,0,1,171.41,422.08Zm-23.27-9.56v2.63a13.81,13.81,0,0,0-2.55-.83,12.48,12.48,0,0,0-2.67-.29,5.75,5.75,0,0,0-3.38.9,2.73,2.73,0,0,0-1.28,2.34q0,2,4.33,4l.64.31a14.75,14.75,0,0,1,4.69,3.08,5.26,5.26,0,0,1,1.3,3.56,5.68,5.68,0,0,1-2.2,4.69,9.35,9.35,0,0,1-5.94,1.74,18.41,18.41,0,0,1-3.12-.26,13.21,13.21,0,0,1-2.76-.81v-2.66a15.1,15.1,0,0,0,2.87,1,12.13,12.13,0,0,0,2.84.35,6.31,6.31,0,0,0,3.86-1.09,3.28,3.28,0,0,0,1.48-2.77,3.47,3.47,0,0,0-.87-2.4,14.86,14.86,0,0,0-4.3-2.59,15.27,15.27,0,0,1-4.58-3,4.71,4.71,0,0,1-1.16-3.21,4.81,4.81,0,0,1,2-4,8.43,8.43,0,0,1,5.26-1.55,20.78,20.78,0,0,1,2.9.19A15.52,15.52,0,0,1,148.14,412.52Zm-21.69-11h3.23v3.64h-3.23Zm.22,10.46h2.83v22.36h-2.83Zm-10.29-6.64V412h5.21v2.29h-5.21v13.07a7.08,7.08,0,0,0,.73,3.79,2.75,2.75,0,0,0,2.46,1.06,5,5,0,0,0,1.14-.14,6.91,6.91,0,0,0,1.15-.35v2.54a8.47,8.47,0,0,1-1.41.32,9.94,9.94,0,0,1-1.46.1c-2,0-3.37-.52-4.2-1.54s-1.24-2.79-1.24-5.29V414.3H109V412h4.58v-5.65Zm-9.07,6.46v2.87c-.32-.07-.61-.13-.87-.16a4.37,4.37,0,0,0-.68-.06,5.25,5.25,0,0,0-4.44,2.13,9.62,9.62,0,0,0-1.6,5.9v11.86H96.89V412H99.5v4.71A7.88,7.88,0,0,1,102,413a6.08,6.08,0,0,1,3.89-1.32l.64,0Zm-18.13,9.79a10,10,0,0,0-1.87-5.76,5.39,5.39,0,0,0-4.43-2,5.76,5.76,0,0,0-4.54,2.1,9.79,9.79,0,0,0-2.15,5.67Zm2.73.46v1.61H76.1a9.84,9.84,0,0,0,2.22,6.52,7.57,7.57,0,0,0,5.88,2.28,11.46,11.46,0,0,0,3-.41,13.86,13.86,0,0,0,3-1.22v2.79a16.14,16.14,0,0,1-3,1,16.34,16.34,0,0,1-3.24.31,9.89,9.89,0,0,1-7.77-3.13q-2.81-3.13-2.8-8.73a12.45,12.45,0,0,1,2.71-8.39,8.93,8.93,0,0,1,7.13-3.19,7.83,7.83,0,0,1,6.35,2.86A11.81,11.81,0,0,1,91.91,422.08Zm-25.82,1a11.46,11.46,0,0,0-1.72-6.71,5.51,5.51,0,0,0-4.74-2.41,6.08,6.08,0,0,0-5.05,2.48A10.47,10.47,0,0,0,52.66,423a11.43,11.43,0,0,0,1.82,6.88,6,6,0,0,0,5.1,2.46,5.51,5.51,0,0,0,4.73-2.52A11.46,11.46,0,0,0,66.09,423.06Zm-13.43,7.5v13.2H49.83V412h2.61v4.41a9.37,9.37,0,0,1,3.27-3.64,8.14,8.14,0,0,1,4.44-1.26,7.93,7.93,0,0,1,6.55,3.07c1.63,2.05,2.44,4.81,2.44,8.3s-.84,6.45-2.52,8.57a8.77,8.77,0,0,1-10.92,2.13A8.41,8.41,0,0,1,52.66,430.56ZM28.17,412h3.51L37,420.36,42.47,412h3.14L38.46,422.3l7.87,12.07H42.91l-6.17-9.73-6.13,9.73H27.47l7.81-11.86Zm-19.78-8.8H23.57v2.47H11.26v11.23H22.9v2.6H11.26v12.17H23.84v2.69H8.39Z"/><path class="cls-8" d="M193.65,414.28a5.57,5.57,0,1,1-5.57,5.57,5.56,5.56,0,0,1,5.57-5.57"/><path class="cls-8" d="M423.05,414.28a5.57,5.57,0,1,1-5.57,5.57,5.56,5.56,0,0,1,5.57-5.57"/><g class="cls-9"><rect class="cls-10" x="468.09" y="-4.43" width="93.59" height="103.57" transform="translate(461.87 561.69) rotate(-89.37)"/></g></svg>