<svg xmlns="http://www.w3.org/2000/svg" xmlns:xlink="http://www.w3.org/1999/xlink" width="1080" zoomAndPan="magnify" viewBox="0 0 810 809.999993" height="1080" preserveAspectRatio="xMidYMid meet" version="1.0"><defs><clipPath id="2ef85f4712"><path d="M 73.710938 197 L 659.164062 197 L 659.164062 737 L 73.710938 737 Z M 73.710938 197 " clip-rule="nonzero"/></clipPath><clipPath id="dbc881dd5e"><path d="M 529.65625 70.835938 L 640.085938 70.835938 L 640.085938 220.707031 L 529.65625 220.707031 Z M 529.65625 70.835938 " clip-rule="nonzero"/></clipPath><clipPath id="2d460fc2fd"><path d="M 514.253906 294.480469 L 568.058594 294.480469 L 568.058594 348.285156 L 514.253906 348.285156 Z M 514.253906 294.480469 " clip-rule="nonzero"/></clipPath><clipPath id="1883fd3e15"><path d="M 541.15625 294.480469 C 526.296875 294.480469 514.253906 306.527344 514.253906 321.382812 C 514.253906 336.242188 526.296875 348.285156 541.15625 348.285156 C 556.015625 348.285156 568.058594 336.242188 568.058594 321.382812 C 568.058594 306.527344 556.015625 294.480469 541.15625 294.480469 " clip-rule="nonzero"/></clipPath><clipPath id="d5cbbc36b5"><path d="M 670.136719 93.949219 L 736 93.949219 L 736 176.851562 L 670.136719 176.851562 Z M 670.136719 93.949219 " clip-rule="nonzero"/></clipPath><clipPath id="13180f5dbd"><path d="M 733.894531 149.203125 C 735.339844 144.953125 736.289062 140.121094 736.289062 135.378906 C 736.289062 130.636719 735.472656 126.074219 734.027344 121.867188 C 733.984375 121.777344 733.984375 121.6875 733.9375 121.597656 C 728.15625 105.804688 712.890625 94.175781 695.847656 93.949219 L 682.992188 93.949219 C 679.582031 93.949219 676.3125 95.304688 673.902344 97.714844 C 671.492188 100.125 670.136719 103.394531 670.136719 106.804688 L 670.136719 164.003906 C 670.136719 171.101562 675.886719 176.851562 682.980469 176.851562 L 695.828125 176.851562 C 712.980469 176.628906 728.246094 165.175781 733.894531 149.203125 " clip-rule="nonzero"/></clipPath></defs><g clip-path="url(#2ef85f4712)"><path fill="#000000" d="M 366.804688 736.421875 C 363.363281 736.421875 360.070312 734.933594 357.753906 732.371094 L 113.789062 462.449219 C 113.300781 461.910156 112.886719 461.347656 112.523438 460.761719 C 87.492188 431.773438 73.710938 395.003906 73.710938 356.886719 C 73.710938 269.09375 145.085938 197.695312 232.832031 197.695312 C 287.132812 197.695312 337.410156 225.707031 366.4375 270.628906 C 395.441406 225.707031 445.742188 197.695312 500.042969 197.695312 C 587.785156 197.695312 659.164062 269.117188 659.164062 356.886719 C 659.164062 395.050781 645.40625 431.871094 620.304688 460.835938 C 619.9375 461.398438 619.546875 461.933594 619.085938 462.421875 L 375.878906 732.371094 C 373.558594 734.957031 370.265625 736.421875 366.804688 736.421875 Z M 133.257812 447.660156 L 366.804688 706.019531 L 599.640625 447.613281 C 599.960938 447.125 600.277344 446.636719 600.691406 446.195312 C 622.621094 421.453125 634.746094 389.757812 634.746094 356.914062 C 634.746094 282.585938 574.296875 222.121094 500.042969 222.121094 C 447.523438 222.121094 399.417969 253.109375 377.535156 301.058594 C 373.585938 309.722656 359.3125 309.722656 355.363281 301.058594 C 333.457031 253.109375 285.375 222.121094 232.855469 222.121094 C 158.554688 222.097656 98.105469 282.585938 98.105469 356.886719 C 98.105469 389.730469 110.203125 421.429688 132.160156 446.171875 C 132.550781 446.660156 132.914062 447.148438 133.257812 447.660156 Z M 133.257812 447.660156 " fill-opacity="1" fill-rule="nonzero"/></g><path fill="#000000" d="M 379.023438 637.304688 C 378.488281 637.304688 377.902344 637.28125 377.339844 637.207031 C 372.144531 636.5 367.972656 632.5 367.023438 627.351562 L 326.917969 410.886719 L 294.207031 530.746094 C 292.742188 536.042969 287.9375 539.699219 282.449219 539.699219 L 122.863281 539.699219 C 116.132812 539.699219 110.667969 534.234375 110.667969 527.5 C 110.667969 520.789062 116.132812 515.300781 122.863281 515.300781 L 273.132812 515.300781 L 317.429688 353.007812 C 318.917969 347.519531 323.457031 343.710938 329.699219 344.027344 C 335.382812 344.273438 340.140625 348.398438 341.191406 354.007812 L 384.292969 586.867188 L 416.347656 522.132812 C 418.394531 517.984375 422.640625 515.347656 427.25 515.347656 L 610.71875 515.347656 C 617.425781 515.347656 622.914062 520.816406 622.914062 527.550781 C 622.914062 534.285156 617.425781 539.75 610.71875 539.75 L 434.8125 539.75 L 389.878906 630.570312 C 387.855469 634.71875 383.585938 637.304688 379.023438 637.304688 Z M 379.023438 637.304688 " fill-opacity="1" fill-rule="nonzero"/><g clip-path="url(#dbc881dd5e)"><path fill="#040606" d="M 529.65625 229.21875 C 529.65625 230.804688 530.949219 232.097656 532.539062 232.097656 L 549.816406 232.097656 C 551.402344 232.097656 552.695312 230.804688 552.695312 229.21875 L 552.695312 203.304688 C 552.695312 155.664062 591.457031 116.914062 639.097656 116.914062 C 640.683594 116.914062 641.976562 118.207031 641.976562 119.792969 L 641.976562 138.453125 C 641.976562 139.308594 642.527344 139.679688 642.761719 139.804688 C 643.042969 139.9375 643.585938 140.117188 644.167969 139.691406 L 690.707031 105.867188 C 690.707031 105.855469 690.707031 105.855469 690.707031 105.855469 C 690.886719 105.71875 690.917969 105.515625 690.917969 105.40625 C 690.917969 105.28125 690.886719 105.066406 690.707031 104.933594 L 644.167969 71.097656 C 643.886719 70.90625 643.628906 70.835938 643.394531 70.835938 C 643.136719 70.835938 642.910156 70.917969 642.773438 70.996094 C 642.527344 71.117188 641.976562 71.488281 641.976562 72.34375 L 641.976562 91.007812 C 641.976562 92.59375 640.683594 93.886719 639.097656 93.886719 C 578.746094 93.886719 529.65625 142.964844 529.65625 203.304688 L 529.65625 229.21875 " fill-opacity="1" fill-rule="nonzero"/></g><g clip-path="url(#2d460fc2fd)"><g clip-path="url(#1883fd3e15)"><path fill="#000000" d="M 514.253906 294.480469 L 568.058594 294.480469 L 568.058594 348.285156 L 514.253906 348.285156 Z M 514.253906 294.480469 " fill-opacity="1" fill-rule="nonzero"/></g></g><path stroke-linecap="butt" transform="matrix(0.000000000000000054, 0.87737, -0.876424, 0.000000000000000054, 552.54888, 220.942334)" fill="none" stroke-linejoin="miter" d="M -0.00105706 12.998987 L 86.910862 12.998987 " stroke="#000000" stroke-width="26" stroke-opacity="1" stroke-miterlimit="4"/><path stroke-linecap="butt" transform="matrix(0.86897, 0, 0, 0.876424, 639.304771, 94.092027)" fill="none" stroke-linejoin="miter" d="M -0.0000964791 12.998665 L 51.443708 12.998665 " stroke="#000000" stroke-width="26" stroke-opacity="1" stroke-miterlimit="4"/><g clip-path="url(#d5cbbc36b5)"><g clip-path="url(#13180f5dbd)"><path fill="#000000" d="M 670.136719 176.851562 L 670.136719 93.949219 L 735.5 93.949219 L 735.5 176.851562 Z M 670.136719 176.851562 " fill-opacity="1" fill-rule="nonzero"/></g></g></svg>