<?xml version="1.0" encoding="utf-8"?>
<!-- Generator: Adobe Illustrator 24.1.2, SVG Export Plug-In . SVG Version: 6.00 Build 0)  -->
<svg version="1.1" id="Layer_1" xmlns="http://www.w3.org/2000/svg" xmlns:xlink="http://www.w3.org/1999/xlink" x="0px" y="0px"
	 viewBox="0 0 294 492" style="enable-background:new 0 0 294 492;" xml:space="preserve">
<style type="text/css">
	.st0{fill:#482E7A;}
</style>
<g>
	<g>
		<path class="st0" d="M279.7,227.3L66.9,14.5C62,9.6,55.4,6.9,48.4,6.9s-13.6,2.7-18.5,7.6L14.2,30.2C4,40.4,4,57,14.2,67.2
			L193,245.9L14.1,424.8c-4.9,4.9-7.6,11.5-7.6,18.5s2.7,13.6,7.6,18.5l15.7,15.7c4.9,4.9,11.5,7.6,18.5,7.6s13.6-2.7,18.5-7.6
			l213-213c4.9-4.9,7.6-11.5,7.6-18.6C287.4,238.9,284.7,232.3,279.7,227.3z"/>
	</g>
</g>
</svg>
