<svg xmlns="http://www.w3.org/2000/svg" version="1.1" xmlns:xlink="http://www.w3.org/1999/xlink" xmlns:svgjs="http://svgjs.com/svgjs" width="512" height="512" x="0" y="0" viewBox="0 0 256 256" style="enable-background:new 0 0 512 512" xml:space="preserve" class=""><g><path fill="#004e9e" d="M128 51.926A76.074 76.074 0 1 0 204.074 128 76.073 76.073 0 0 0 128 51.926z" data-original="#478cf7" class=""></path><path fill="#004e9e" d="M176.558 69.442A76.071 76.071 0 0 1 69.442 176.558 76.072 76.072 0 1 0 176.558 69.442z" data-original="#377de2" class=""></path><g fill="#2266d3"><path d="M179.233 71.767A76.072 76.072 0 0 1 71.767 179.233a76.072 76.072 0 0 0 112.462-102.47q-2.38-2.613-4.996-4.996z" fill="#004e9e" data-original="#2266d3" class=""></path><rect width="10.591" height="18.313" x="122.739" y="58.372" rx="5.295" fill="#004e9e" data-original="#2266d3" class=""></rect><rect width="10.591" height="18.313" x="122.739" y="179.315" rx="5.295" fill="#004e9e" data-original="#2266d3" class=""></rect><rect width="18.313" height="10.591" x="179.349" y="122.705" rx="5.295" fill="#004e9e" data-original="#2266d3" class=""></rect><rect width="18.313" height="10.591" x="58.406" y="122.704" rx="5.295" fill="#004e9e" data-original="#2266d3" class=""></rect><rect width="10.591" height="18.313" x="92.454" y="66.493" rx="5.295" transform="rotate(-30 97.745 75.654)" fill="#004e9e" data-original="#2266d3" class=""></rect><rect width="10.591" height="18.313" x="152.925" y="171.233" rx="5.295" transform="rotate(-30 158.21 180.394)" fill="#004e9e" data-original="#2266d3" class=""></rect><rect width="18.313" height="10.591" x="171.198" y="92.489" rx="5.295" transform="rotate(-30 180.348 97.791)" fill="#004e9e" data-original="#2266d3" class=""></rect><rect width="18.313" height="10.591" x="66.457" y="152.959" rx="5.295" transform="rotate(-30 75.605 158.256)" fill="#004e9e" data-original="#2266d3" class=""></rect><rect width="10.591" height="18.313" x="70.286" y="88.668" rx="5.295" transform="rotate(-60 75.582 97.828)" fill="#004e9e" data-original="#2266d3" class=""></rect><rect width="10.591" height="18.313" x="175.026" y="149.141" rx="5.295" transform="rotate(-60 180.324 158.303)" fill="#004e9e" data-original="#2266d3" class=""></rect><rect width="18.313" height="10.591" x="149.027" y="70.393" rx="5.295" transform="rotate(-60 158.183 75.692)" fill="#004e9e" data-original="#2266d3" class=""></rect><rect width="18.313" height="10.591" x="88.559" y="175.135" rx="5.295" transform="rotate(-60 97.715 180.435)" fill="#004e9e" data-original="#2266d3" class=""></rect></g><path fill="#e63950" d="M161.639 235.8a6.509 6.509 0 0 1-7.891-4.738 6.5 6.5 0 0 1 4.36-7.766 99.927 99.927 0 1 0-75.427-6.267l-5.907 11.581a112.929 112.929 0 0 1 28.308-211.18C162.5 5.453 220.074 40.049 236.458 96.368a113.064 113.064 0 0 1-74.45 139.332 4.375 4.375 0 0 1-.369.1z" data-original="#e63950" class=""></path><path fill="#d10028" d="M236.458 96.368a111.994 111.994 0 0 0-30.944-50.441 111.876 111.876 0 0 1 25.944 45.441 113.064 113.064 0 0 1-74.45 139.332 4.375 4.375 0 0 1-.369.1 6.469 6.469 0 0 1-2.939.05c.015.071.031.142.048.212a6.508 6.508 0 0 0 7.891 4.738c.124-.031.247-.066.369-.1a113.064 113.064 0 0 0 74.45-139.332z" data-original="#d10028" class=""></path><path fill="#e63950" d="M59.836 234.619a3.957 3.957 0 0 0 4.122 3.784l32.479-1.416a3.958 3.958 0 0 0 3.4-5.657l-14-29.342a3.956 3.956 0 0 0-6.963-.335L60.4 232.412a3.961 3.961 0 0 0-.564 2.207z" data-original="#e63950" class=""></path><path fill="#d10028" d="m99.837 231.33-14-29.342a3.957 3.957 0 0 0-3.689-2.253l12.689 26.6a3.958 3.958 0 0 1-3.4 5.657l-31.451 1.371a3.957 3.957 0 0 0 3.972 5.045l32.479-1.416a3.958 3.958 0 0 0 3.4-5.657z" data-original="#d10028" class=""></path><circle cx="128" cy="203.988" r="27.915" fill="#e6e7e8" data-original="#e6e7e8" class=""></circle><path fill="#ffffff" d="M106.08 205.99a2 2 0 1 1 2-2 2 2 0 0 1-2 2zm1.45-7.82a2 2 0 0 1-1.87-2.72A23.941 23.941 0 0 1 128 180.07a2 2 0 0 1 0 4 20.039 20.039 0 0 0-18.6 12.81 2.026 2.026 0 0 1-1.87 1.29z" data-original="#ffffff" class=""></path><path fill="#d1d3d4" d="M147.739 184.249a28.145 28.145 0 0 0-2.663-2.337 27.909 27.909 0 0 1-39.152 39.152 27.912 27.912 0 1 0 41.815-36.815z" data-original="#d1d3d4" class=""></path><path fill="#004e9e" d="M124.977 218.782a4.876 4.876 0 0 1-3.46-1.432l-9.634-9.635a4.892 4.892 0 1 1 6.737-7.095q.093.089.18.18l6.175 6.176 12.254-12.255a4.892 4.892 0 0 1 6.919 6.919l-15.712 15.71a4.874 4.874 0 0 1-3.459 1.432z" data-original="#478cf7" class=""></path><path fill="#004e9e" d="M144.15 194.717a4.822 4.822 0 0 0-1.164-.835 4.876 4.876 0 0 1-.836 5.754l-15.714 15.714a4.9 4.9 0 0 1-6.919 0l2 2a4.9 4.9 0 0 0 6.919 0l15.714-15.714a4.779 4.779 0 0 0 .3-6.818.273.273 0 0 0-.3-.101z" data-original="#377de2" class=""></path><path fill="#ffffff" d="m165.432 149.056-8.065-8.065-6.04-6.04a3.14 3.14 0 0 0-4.439 0l-9.618 9.619a3.138 3.138 0 0 1-4.439 0l-21.683-21.683a3.14 3.14 0 0 1 0-4.44l9.618-9.618a3.138 3.138 0 0 0 0-4.439l-6.04-6.04-8.065-8.065a3.14 3.14 0 0 0-4.439 0L98.2 94.307l-1.454 1.454c-10.052 10.052-9.14 25.437.912 35.489l26.808 26.808c10.052 10.052 25.438 10.964 35.49.912l1.454-1.454 4.021-4.021a3.138 3.138 0 0 0 .001-4.439z" data-original="#ffffff" class=""></path><path fill="#e6e7e8" d="m160.993 149.056-4.021 4.021-1.454 1.454c-10.052 10.052-25.438 9.14-35.49-.912l4.439 4.439c10.052 10.052 25.438 10.964 35.49.912l1.454-1.454 4.021-4.021a3.138 3.138 0 0 0 0-4.439l-4.439-4.439a3.14 3.14 0 0 1 0 4.439zM116.327 104.39l-9.619 9.618a3.14 3.14 0 0 0 0 4.439l4.44 4.44a3.14 3.14 0 0 1 0-4.44l9.618-9.618a3.138 3.138 0 0 0 0-4.439l-4.439-4.439a3.138 3.138 0 0 1 0 4.439z" data-original="#e6e7e8" class=""></path><path fill="#d1d3d4" d="m99.608 92.879 18.542 18.54-3.065 3.065-18.54-18.541zM144.277 137.538l18.542 18.54-3.065 3.065-18.54-18.541z" data-original="#d1d3d4" class=""></path></g></svg>