<svg xmlns="http://www.w3.org/2000/svg" version="1.1" xmlns:xlink="http://www.w3.org/1999/xlink" xmlns:svgjs="http://svgjs.com/svgjs" width="512" height="512" x="0" y="0" viewBox="0 0 512 512" style="enable-background:new 0 0 512 512" xml:space="preserve"><g><circle cx="256" cy="256" r="256" fill="#004e9e" data-original="#2196f3" opacity="1"></circle><path fill="#ffffff" fill-rule="evenodd" d="m412.424 349.946-.273.688c-2.577 6.578-5.166 13.149-7.88 19.677-2.331 5.61-4.743 11.241-7.408 16.7-1.593 3.26-4.116 8.409-6.676 10.969a51.473 51.473 0 0 1-8.588 6.928c-17.86 11.431-40.186 9.82-59.813 4.557-84.306-22.585-196.673-134.952-219.26-219.257-5.26-19.633-6.868-41.965 4.574-59.825a50.861 50.861 0 0 1 6.914-8.577c2.557-2.56 7.712-5.082 10.969-6.675 5.465-2.665 11.1-5.077 16.71-7.408 6.525-2.7 13.1-5.3 19.673-7.88l.685-.264a15.416 15.416 0 0 1 19.044 6.655l32.593 56.466a15.517 15.517 0 0 1-5.66 21.128c-11.529 6.661-20.727 17.023-23.444 30.311a44.606 44.606 0 0 0 8.22 36.581 347.09 347.09 0 0 0 32.12 36.355 347.2 347.2 0 0 0 36.363 32.125 44.586 44.586 0 0 0 36.584 8.221c13.276-2.714 23.65-11.918 30.306-23.447a15.508 15.508 0 0 1 21.122-5.66l56.46 32.6a15.413 15.413 0 0 1 6.665 19.032z" data-original="#ffffff"></path></g></svg>