<svg width="38" height="38" viewBox="0 0 38 38" fill="none" xmlns="http://www.w3.org/2000/svg">
<path d="M27.893 18.778C26.3823 18.7784 24.8941 19.1443 23.5555 19.8444C22.2169 20.5446 21.0675 21.5582 20.2055 22.7988C20.0582 22.7535 19.9188 22.7094 19.7874 22.6666L19.2566 21.1611C20.8973 19.932 21.3466 18.0127 21.4693 17.083C22.5726 16.7837 23.5858 15.4874 23.9917 13.7695C24.2105 12.8403 23.8902 11.9753 23.1944 11.6167C23.0015 11.5175 22.7878 11.4656 22.5709 11.4655C22.6069 11.1959 22.6444 10.8661 22.6832 10.4612C22.774 9.51377 22.8316 8.55682 22.8316 8.31432C22.8316 8.14244 22.8351 7.96525 22.8387 7.77767C22.8677 6.28166 22.9037 4.41994 21.2535 2.75088C19.7726 1.25306 17.676 0.427361 15.5022 0.487439C13.3366 0.546658 11.3059 1.47072 9.93062 3.02267C9.88844 3.07043 9.84557 3.11851 9.80203 3.16689C8.9725 4.09377 7.83633 5.36322 7.91789 8.61408C7.9257 8.93228 8.23039 10.3906 8.54594 11.502C8.36199 11.5202 8.18361 11.5753 8.02141 11.664C7.35352 12.0249 7.04727 12.871 7.2593 13.7696C7.66555 15.4904 8.68203 16.7883 9.78781 17.0843C9.92 17.996 10.3827 19.8963 11.9815 21.1265L11.2812 22.5665C10.7812 22.7232 10.2177 22.8785 9.63609 23.0414C5.8768 24.0951 0.71875 25.538 0.71875 30.2257V35.1271C0.71875 36.285 1.33805 37.5156 2.44969 37.5156H27.9257C27.9308 37.5156 27.9357 37.515 27.9407 37.5149C30.4202 37.5006 32.7929 36.5041 34.5389 34.7435C36.2849 32.983 37.2617 30.6021 37.2554 28.1226C37.2491 25.6431 36.2601 23.2673 34.5052 21.5157C32.7502 19.7641 30.3725 18.7796 27.893 18.778ZM10.6172 3.89603C10.6619 3.84614 10.706 3.79666 10.7495 3.7476C11.9248 2.42119 13.668 1.63127 15.5322 1.58033C17.4054 1.5283 19.207 2.23596 20.4759 3.51947C21.8013 4.86002 21.7716 6.39853 21.7453 7.75596C21.7416 7.94908 21.738 8.1315 21.738 8.31385C21.738 8.42978 21.7263 8.67033 21.7063 8.97635C21.4419 7.9933 21.0721 7.04385 20.563 6.48869L20.5225 6.40775C20.4763 6.31536 20.4049 6.23794 20.3166 6.18444C20.2282 6.13095 20.1265 6.10357 20.0232 6.10547C19.92 6.10738 19.8194 6.13849 19.733 6.19521C19.6467 6.25192 19.5782 6.33193 19.5355 6.42596C18.6543 8.36416 17.7814 8.28611 16.3353 8.15713C16.1674 8.14213 15.9966 8.12689 15.823 8.11486C15.2728 8.0758 15.0738 8.39736 15.0137 8.53674C14.8354 8.9508 15.0831 9.39791 15.5366 9.92807C14.093 9.75572 13.727 8.69978 13.3973 7.74728C13.1685 7.08619 12.9092 6.33682 12.1552 6.33682C11.7918 6.3297 11.4311 6.40041 11.0974 6.5442C10.7636 6.68799 10.4645 6.90154 10.2201 7.17049C9.65969 7.77205 9.34391 8.62971 9.16812 9.47018C9.09697 9.17923 9.04478 8.88397 9.01187 8.58627C8.94055 5.76939 9.83125 4.77408 10.6172 3.89603ZM10.8318 16.5792C10.8252 16.4383 10.7648 16.3053 10.663 16.2077C10.5613 16.11 10.4259 16.0551 10.2849 16.0543C10.2771 16.0543 10.2693 16.0543 10.2611 16.0543C9.46016 16.0543 8.61445 14.7478 8.32359 13.518C8.21227 13.0461 8.35844 12.7248 8.54133 12.6259C8.74813 12.5143 8.96867 12.7108 9.05383 12.8006C9.12531 12.8758 9.21675 12.9292 9.31744 12.9544C9.41814 12.9797 9.52393 12.9757 9.62247 12.9431C9.721 12.9104 9.80821 12.8504 9.87388 12.77C9.93956 12.6896 9.981 12.5922 9.99336 12.4891C10.0472 12.3953 10.072 12.2875 10.0644 12.1796C10.0062 11.3408 10.0649 8.93955 11.0206 7.91541C11.1558 7.76546 11.3205 7.64508 11.5044 7.56186C11.6884 7.47864 11.8875 7.43436 12.0894 7.43182C12.1716 7.55049 12.2812 7.86728 12.3635 8.10517C12.7688 9.27611 13.5232 11.4552 16.8663 10.9782C16.9688 10.9636 17.0651 10.9202 17.1439 10.853C17.2226 10.7859 17.2808 10.6977 17.3114 10.5988C17.3421 10.4999 17.3441 10.3944 17.3171 10.2944C17.2902 10.1945 17.2354 10.1042 17.1591 10.0342C16.894 9.79042 16.6424 9.53243 16.4053 9.26135C17.691 9.37299 19.0025 9.41502 20.0864 7.70947C20.7714 8.99416 21.128 11.5488 21.2154 12.5632C21.2271 12.6995 21.2895 12.8265 21.3903 12.9191C21.4911 13.0117 21.6229 13.0631 21.7597 13.0632C21.7753 13.0632 21.7909 13.0625 21.8071 13.0611C21.9062 13.0526 22.001 13.0173 22.0815 12.9588C22.162 12.9004 22.2249 12.8211 22.2637 12.7296C22.3716 12.6228 22.5363 12.5077 22.6934 12.5884C22.894 12.6917 23.0387 13.0443 22.9272 13.5181C22.6365 14.7481 21.7909 16.0546 20.9897 16.0546H20.976C20.8699 16.0528 20.7655 16.0818 20.6754 16.138C20.599 16.1856 20.5356 16.2515 20.4908 16.3296C20.4461 16.4077 20.4214 16.4957 20.4189 16.5857C20.3955 17.0329 20.1837 19.3195 18.3204 20.4776C18.3173 20.4794 18.3145 20.4814 18.3116 20.4833C17.5861 20.9309 16.6823 21.1579 15.6254 21.1579C14.5713 21.1579 13.6696 20.9257 12.9449 20.4676C11.1081 19.3078 10.8623 17.025 10.8317 16.5792H10.8318ZM12.1623 23.2556L12.9202 21.6974C13.7049 22.0651 14.6117 22.2515 15.6255 22.2515C16.6245 22.2515 17.5193 22.0745 18.2958 21.7256L18.8447 23.2825C18.8722 23.3605 18.917 23.4313 18.9757 23.4895C19.0345 23.5477 19.1057 23.5918 19.184 23.6185C19.3202 23.6649 19.4645 23.7123 19.6167 23.7607C19.3487 24.264 19.1275 24.7908 18.9559 25.3345C18.4498 25.9338 17.3877 26.8506 15.6255 26.8506C15.0308 26.8571 14.4414 26.7381 13.8958 26.5014C13.3502 26.2647 12.8607 25.9157 12.4591 25.4771C11.8822 24.8583 11.5557 24.1685 11.4456 23.6606C11.5798 23.6194 11.7113 23.5781 11.8397 23.5364C11.9096 23.5137 11.9741 23.4771 12.0296 23.4288C12.085 23.3806 12.1302 23.3217 12.1623 23.2556ZM1.8125 35.1271V30.2257C1.8125 26.3674 6.31836 25.1072 9.93109 24.0946C10.084 24.0517 10.2395 24.0095 10.3883 23.9675C10.784 25.6299 12.5666 27.9441 15.6227 27.9441C16.67 27.9573 17.6983 27.6643 18.5814 27.1011C18.3725 28.9693 18.7302 30.8571 19.6082 32.5193C20.4861 34.1815 21.8437 35.5413 23.5045 36.4219H2.44969C2.10156 36.4219 1.8125 35.7259 1.8125 35.1271ZM27.893 36.4219C26.2563 36.4219 24.6565 35.9365 23.2957 35.0273C21.9348 34.118 20.8742 32.8256 20.2479 31.3136C19.6216 29.8015 19.4578 28.1377 19.7771 26.5325C20.0963 24.9273 20.8845 23.4529 22.0417 22.2956C23.199 21.1383 24.6735 20.3502 26.2787 20.0309C27.8838 19.7116 29.5477 19.8755 31.0597 20.5018C32.5718 21.1281 33.8642 22.1887 34.7734 23.5495C35.6827 24.9103 36.168 26.5102 36.168 28.1468C36.1656 30.3408 35.293 32.4441 33.7416 33.9955C32.1903 35.5468 30.0869 36.4195 27.893 36.4219Z" fill="#004E9E"/>
</svg>
