<svg width="64" height="64" viewBox="0 0 64 64" fill="none" xmlns="http://www.w3.org/2000/svg">
<path d="M43.214 43.9999L32 56.2339L11.725 34.1159C7.146 29.1199 7.484 21.3469 12.479 16.7679C17.475 12.1889 25.248 12.5269 29.827 17.5219L32 19.8929L34.173 17.5219C38.752 12.5269 46.525 12.1889 51.521 16.7679C56.516 21.3469 56.854 29.1199 52.275 34.1159L47 39.8699" stroke="#004E9E" stroke-width="2" stroke-miterlimit="2" stroke-linecap="round" stroke-linejoin="round"/>
<path d="M56 40C56.004 39.916 46.5 40 46.5 40L42.5 32L37 43L32 32L28 40.5H23" stroke="#004E9E" stroke-width="2" stroke-miterlimit="2" stroke-linecap="round" stroke-linejoin="round"/>
<path d="M14.868 31.187C11.651 27.678 11.888 22.217 15.398 19" stroke="#004E9E" stroke-width="2" stroke-miterlimit="2" stroke-linecap="round" stroke-linejoin="round"/>
</svg>
