<svg width="176" height="176" viewBox="0 0 176 176" fill="none" xmlns="http://www.w3.org/2000/svg">
<g clip-path="url(#clip0_1_452)">
<path d="M166.477 112.97C172.1 109.321 175.828 102.987 175.828 95.7987C175.828 84.5206 166.653 75.3456 155.375 75.3456C144.098 75.3456 134.922 84.5206 134.922 95.7987C134.922 102.987 138.65 109.321 144.274 112.97C139.3 116.159 135.778 121.423 134.941 127.531H122.719C116.085 127.531 110.688 132.929 110.688 139.563C110.688 141.403 111.108 143.152 111.859 144.719H64.1455C64.8935 143.154 65.3122 141.405 65.3122 139.563C65.3122 132.929 59.9149 127.531 53.2809 127.531H41.0582C40.2212 121.423 36.6998 116.159 31.7261 112.97C37.3502 109.321 41.0778 102.987 41.0778 95.7987C41.0778 84.5206 31.9024 75.3456 20.6247 75.3456C9.34691 75.3456 0.171531 84.5206 0.171531 95.7987C0.171531 102.987 3.89916 109.321 9.52291 112.97C3.8005 116.64 0 123.057 0 130.346V167.063C0 168.961 1.53897 170.5 3.4375 170.5H172.562C174.461 170.5 176 168.961 176 167.063V130.346C176 123.057 172.2 116.64 166.477 112.97ZM155.375 82.2209C162.862 82.2209 168.953 88.3122 168.953 95.799C168.953 103.286 162.862 109.377 155.375 109.377C147.888 109.377 141.797 103.286 141.797 95.799C141.797 88.3122 147.888 82.2209 155.375 82.2209ZM134.75 151.594V163.625H41.25V151.594H134.75ZM20.625 82.2209C28.1122 82.2209 34.2031 88.3122 34.2031 95.799C34.2031 103.286 28.1119 109.377 20.625 109.377C13.1381 109.377 7.04688 103.286 7.04688 95.799C7.04688 88.3122 13.1381 82.2209 20.625 82.2209ZM6.875 130.346C6.875 122.764 13.0433 116.596 20.625 116.596C28.2067 116.596 34.375 122.764 34.375 130.346V130.969C34.375 132.867 35.914 134.406 37.8125 134.406H53.2812C56.1244 134.406 58.4375 136.719 58.4375 139.563C58.4375 142.387 56.1402 144.7 53.317 144.718C53.3091 144.718 53.3012 144.719 53.2933 144.719H29.2188C26.3756 144.719 24.0625 142.406 24.0625 139.563V131.122C24.0625 129.224 22.5235 127.685 20.625 127.685C18.7265 127.685 17.1875 129.224 17.1875 131.122V139.563C17.1875 146.197 22.5847 151.594 29.2188 151.594H34.375V163.625H6.875V130.346ZM169.125 163.625H141.625V151.594H146.781C153.415 151.594 158.812 146.197 158.812 139.563V131.122C158.812 129.224 157.274 127.685 155.375 127.685C153.476 127.685 151.938 129.224 151.938 131.122V139.563C151.938 142.406 149.624 144.719 146.781 144.719H122.683C122.671 144.718 122.659 144.718 122.647 144.718C119.843 144.68 117.562 142.367 117.562 139.563C117.562 136.719 119.876 134.406 122.719 134.406H138.188C140.086 134.406 141.625 132.867 141.625 130.969V130.346C141.625 122.764 147.793 116.596 155.375 116.596C162.957 116.596 169.125 122.764 169.125 130.346V163.625Z" fill="white" fill-opacity="0.32"/>
<path d="M46.8003 84.4243C46.4926 85.6147 46.8439 86.8787 47.7219 87.7394C48.5998 88.6002 49.87 88.9261 51.0545 88.5954L62.7286 85.3298C70.0859 90.4558 78.6927 93.1563 87.7285 93.1563C96.5443 93.1563 104.979 90.5733 112.229 85.6708L122.684 88.5954C123.868 88.9261 125.138 88.6005 126.017 87.7394C126.895 86.8787 127.246 85.6147 126.938 84.4243L124.164 73.6911C129.006 66.4723 131.557 58.0848 131.557 49.3281C131.557 25.1615 111.896 5.50037 87.7285 5.50037C85.829 5.50037 83.9098 5.62446 82.0243 5.86955C80.1416 6.11465 78.814 7.8389 79.0588 9.72162C79.3035 11.6043 81.0278 12.9329 82.9109 12.6875C84.5031 12.4802 86.1242 12.3754 87.7285 12.3754C108.104 12.3754 124.682 28.9524 124.682 49.3281C124.682 57.1756 122.253 64.6704 117.658 71.0023C117.056 71.8324 116.855 72.8881 117.112 73.8815L118.789 80.3664L112.511 78.6108C111.495 78.3269 110.404 78.5249 109.553 79.1488C103.188 83.8149 95.6413 86.2813 87.7285 86.2813C79.6215 86.2813 71.926 83.7045 65.4741 78.8291C64.6182 78.1825 63.5089 77.9718 62.4756 78.2616L54.9495 80.3664L57.0966 72.0614C57.3369 71.1315 57.1774 70.1436 56.6566 69.3368C52.809 63.3758 50.7754 56.4572 50.7754 49.3281C50.7754 41.117 53.413 33.3424 58.4032 26.8448C59.5596 25.3392 59.2767 23.1815 57.771 22.0251C56.2651 20.8681 54.107 21.1513 52.951 22.6576C47.0299 30.3669 43.9004 39.5894 43.9004 49.3285C43.9004 57.2698 46.0299 64.9935 50.0724 71.7647L46.8003 84.4243Z" fill="white" fill-opacity="0.32"/>
<path d="M63.666 59.6407H77.416V73.3906C77.416 75.2888 78.955 76.8281 80.8535 76.8281H94.6035C96.502 76.8281 98.041 75.2888 98.041 73.3906V59.6407H111.791C113.69 59.6407 115.229 58.1013 115.229 56.2032V42.4531C115.229 40.555 113.69 39.0156 111.791 39.0156H98.041V25.266C98.041 23.3678 96.502 21.8285 94.6035 21.8285H80.8535C78.955 21.8285 77.416 23.3678 77.416 25.266V39.0156H63.666C61.7675 39.0156 60.2285 40.555 60.2285 42.4531V56.2032C60.2285 58.1013 61.7678 59.6407 63.666 59.6407ZM67.1035 45.8906H80.8535C82.752 45.8906 84.291 44.3513 84.291 42.4531V28.7035H91.166V42.4531C91.166 44.3513 92.705 45.8906 94.6035 45.8906H108.354V52.7656H94.6035C92.705 52.7656 91.166 54.305 91.166 56.2032V69.9531H84.291V56.2032C84.291 54.305 82.752 52.7656 80.8535 52.7656H67.1035V45.8906Z" fill="white" fill-opacity="0.32"/>
<path d="M67.538 17.7894C68.1161 17.7894 68.7022 17.6433 69.2402 17.336C70.8885 16.3942 71.4612 14.2942 70.5193 12.6459L70.5179 12.6435C69.5757 10.9949 67.4764 10.4222 65.8285 11.3654C64.1802 12.3073 63.6082 14.4083 64.5501 16.0562C65.1846 17.1669 66.3445 17.7894 67.538 17.7894Z" fill="white" fill-opacity="0.32"/>
</g>
<defs>
<clipPath id="clip0_1_452">
<rect width="176" height="176" fill="white"/>
</clipPath>
</defs>
</svg>
