<?xml version="1.0" encoding="UTF-8"?>
<!DOCTYPE svg PUBLIC "-//W3C//DTD SVG 1.1//EN" "http://www.w3.org/Graphics/SVG/1.1/DTD/svg11.dtd">
<!-- Creator: CorelDRAW -->
<svg xmlns="http://www.w3.org/2000/svg" xml:space="preserve" width="91.4398mm" height="59.4358mm" version="1.1" style="shape-rendering:geometricPrecision; text-rendering:geometricPrecision; image-rendering:optimizeQuality; fill-rule:evenodd; clip-rule:evenodd"
viewBox="0 0 9144 5944"
 xmlns:xlink="http://www.w3.org/1999/xlink"
 xmlns:xodm="http://www.corel.com/coreldraw/odm/2003">
 <defs>
  <style type="text/css">
   <![CDATA[
    .fil5 {fill:#373435}
    .fil1 {fill:#ED3237}
    .fil2 {fill:#0F62AC}
    .fil3 {fill:#373435;fill-rule:nonzero}
    .fil0 {fill:#ED3237;fill-rule:nonzero}
    .fil4 {fill:#0F62AC;fill-rule:nonzero}
    .fil6 {fill:url(#id0)}
   ]]>
  </style>
  <linearGradient id="id0" gradientUnits="userSpaceOnUse" x1="7180" y1="1552" x2="7199" y2="-176">
   <stop offset="0" style="stop-opacity:1; stop-color:#C75EA3"/>
   <stop offset="0.219608" style="stop-opacity:1; stop-color:#C75EA3"/>
   <stop offset="0.301961" style="stop-opacity:1; stop-color:#ED3237"/>
   <stop offset="0.419608" style="stop-opacity:1; stop-color:#F58634"/>
   <stop offset="0.501961" style="stop-opacity:1; stop-color:#F9E63A"/>
   <stop offset="0.6" style="stop-opacity:1; stop-color:#00A859"/>
   <stop offset="0.760784" style="stop-opacity:1; stop-color:#ED3237"/>
   <stop offset="1" style="stop-opacity:1; stop-color:#EC268F"/>
  </linearGradient>
 </defs>
 <g id="Layer_x0020_1">
  <metadata id="CorelCorpID_0Corel-Layer"/>
  <g id="_2517922535504">
   <path class="fil0" d="M433 4026l0 -352 902 0c145,0 242,-14 290,-43 70,-42 104,-104 104,-187 0,-95 -41,-165 -122,-210 -46,-25 -121,-38 -222,-38l-366 0c-224,0 -385,-41 -484,-121 -62,-51 -110,-116 -145,-193 -35,-78 -52,-161 -52,-248 0,-139 40,-266 122,-380 79,-111 206,-175 380,-194 59,-6 147,-9 263,-9l980 0 0 352 -884 0c-132,1 -220,7 -263,17 -89,22 -133,89 -133,201 0,94 37,158 112,191 50,22 133,33 249,33l317 0c162,0 284,14 364,42 140,47 236,130 288,249 42,95 64,198 64,307 0,120 -28,227 -83,323 -77,135 -194,215 -349,241 -76,12 -188,19 -339,19l-993 0z"/>
   <polygon class="fil0" points="2921,2403 2291,2403 2291,2051 3995,2051 3995,2403 3341,2403 3341,4026 2921,4026 "/>
   <path class="fil0" d="M6984 3275l0 751 -420 0 0 -1975 964 0c277,0 470,35 580,106 75,47 132,110 173,187 41,78 62,163 62,257 0,188 -48,333 -143,435 -59,62 -137,109 -235,142 78,26 136,54 175,85 40,31 75,76 107,136 24,46 41,91 51,135 10,44 18,109 25,195 11,142 28,241 48,298l-472 0c-15,-46 -29,-140 -43,-280 -12,-116 -33,-204 -63,-266 -30,-61 -77,-109 -138,-144 -76,-41 -187,-62 -332,-61l-339 0zm0 -352l590 0c99,0 168,-14 210,-43 63,-44 94,-121 94,-229 0,-121 -47,-198 -142,-232 -33,-11 -87,-17 -163,-17l-590 0 0 521z"/>
   <path class="fil1" d="M5056 2143l-322 764c-192,194 -378,401 -556,625 -84,105 -238,307 -317,416 -7,9 -13,18 -19,27l986 -2338c92,-149 388,-145 455,0l239 567c-110,88 -219,179 -327,272l-140 -332zm-474 1125l-234 556c-47,58 -93,116 -139,175l-213 -1c83,-114 216,-287 290,-380 97,-121 196,-238 297,-350zm996 -933l45 106c-104,101 -208,204 -311,309l-59 -141c107,-94 216,-185 326,-274zm102 242l628 1489 -441 0 -497 -1179c103,-105 206,-208 311,-310z"/>
   <path class="fil2" d="M4232 3574c851,-1071 1884,-1754 2919,-2434 -1005,888 -2011,1772 -2908,2927l-375 -1c-14,0 247,-343 365,-491z"/>
   <g>
    <path class="fil3" d="M8816 2185l-21 0 0 0 0 -10 -1 -10 -1 -10 -2 -10 -2 -10 -3 -10 -3 -9 -4 -9 -4 -9 -4 -9 -5 -8 -5 -8 -6 -8 -6 -8 -6 -7 -7 -7 -7 -7 -7 -6 -8 -6 -8 -6 -8 -5 -8 -5 -9 -4 -9 -4 -9 -4 -9 -3 -10 -3 -10 -2 -10 -2 -10 -1 -10 -1 -10 0 0 -21 11 0 11 1 11 1 11 2 11 3 11 3 10 4 10 4 10 4 10 5 9 5 9 6 9 6 8 7 8 7 8 7 7 8 7 8 7 8 6 9 6 9 5 9 5 10 4 10 4 10 4 10 3 11 3 11 2 11 1 11 1 11 0 11 0 0zm-223 223l0 -21 0 0 10 0 10 -1 10 -1 10 -2 10 -2 10 -3 9 -3 9 -4 9 -4 9 -4 8 -5 8 -5 8 -6 8 -6 7 -6 7 -7 7 -7 6 -7 6 -8 6 -8 5 -8 5 -8 4 -9 4 -9 4 -9 3 -9 3 -10 2 -10 2 -10 1 -10 1 -10 0 -10 21 0 0 11 -1 11 -1 11 -2 11 -3 11 -3 11 -4 10 -4 10 -4 10 -5 10 -5 9 -6 9 -6 9 -7 8 -7 8 -7 8 -8 7 -8 7 -8 7 -9 6 -9 6 -9 5 -10 5 -10 4 -10 4 -10 4 -11 3 -11 3 -11 2 -11 1 -11 1 -11 0 0 0zm-223 -223l21 0 0 0 0 10 1 10 1 10 2 10 2 10 3 10 3 9 4 9 4 9 4 9 5 8 5 8 6 8 6 8 6 7 7 7 7 7 7 6 8 6 8 6 8 5 8 5 9 4 9 4 9 4 9 3 10 3 10 2 10 2 10 1 10 1 10 0 0 21 -11 0 -11 -1 -11 -1 -11 -2 -11 -3 -11 -3 -10 -4 -10 -4 -10 -4 -10 -5 -9 -5 -9 -6 -9 -6 -8 -7 -8 -7 -8 -7 -7 -8 -7 -8 -7 -8 -6 -9 -6 -9 -5 -9 -5 -10 -4 -10 -4 -10 -4 -10 -3 -11 -3 -11 -2 -11 -1 -11 -1 -11 0 -11 0 0zm223 -223l0 21 0 0 -10 0 -10 1 -10 1 -10 2 -10 2 -10 3 -9 3 -9 4 -9 4 -9 4 -8 5 -8 5 -8 6 -8 6 -7 6 -7 7 -7 7 -6 7 -6 8 -6 8 -5 8 -5 8 -4 9 -4 9 -4 9 -3 9 -3 10 -2 10 -2 10 -1 10 -1 10 0 10 -21 0 0 -11 1 -11 1 -11 2 -11 3 -11 3 -11 4 -10 4 -10 4 -10 5 -10 5 -9 6 -9 6 -9 7 -8 7 -8 7 -8 8 -7 8 -7 8 -7 9 -6 9 -6 9 -5 10 -5 10 -4 10 -4 10 -4 11 -3 11 -3 11 -2 11 -1 11 -1 11 0 0 0z"/>
   </g>
   <path class="fil3" d="M8552 2071l0 100 32 0c20,0 37,-5 48,-13 12,-9 17,-21 17,-37 0,-17 -5,-29 -16,-37 -11,-8 -28,-12 -51,-12l-30 0zm-40 -32l79 0c33,0 58,6 75,19 17,13 25,31 25,56 0,19 -5,34 -16,46 -11,12 -27,21 -47,25 9,2 16,6 21,12 5,6 11,15 17,29l44 105 -44 0 -39 -96c-5,-12 -11,-21 -19,-26 -8,-5 -19,-8 -33,-8l-23 0 0 130 -40 0 0 -293z"/>
   <path class="fil4" d="M1707 4250l0 814 -173 0 0 -338 -314 0 0 338 -173 0 0 -814 173 0 0 332 314 0 0 -332 173 0zm524 -5c81,0 153,14 214,42 73,33 124,88 153,166 23,61 35,133 35,216 0,83 -14,154 -42,215 -35,73 -88,124 -160,153 -54,21 -116,32 -186,32 -92,0 -171,-17 -239,-51 -57,-29 -100,-73 -130,-134 -30,-61 -45,-135 -45,-222 0,-155 38,-266 116,-332 65,-56 161,-84 286,-85zm1 137c-80,0 -137,26 -171,78 -27,40 -40,106 -40,196 0,95 17,166 51,211 34,44 87,66 161,66 71,0 124,-22 158,-67 34,-45 51,-114 51,-208 0,-85 -14,-150 -41,-195 -32,-53 -88,-80 -168,-81zm521 682l0 -144 372 0c60,0 100,-6 120,-18 29,-17 43,-43 43,-77 0,-40 -17,-69 -50,-87 -19,-10 -50,-16 -92,-16l-151 0c-92,0 -159,-17 -200,-50 -25,-21 -45,-48 -60,-80 -14,-32 -22,-66 -22,-102 0,-57 17,-110 50,-157 33,-46 85,-72 157,-80 24,-2 61,-4 109,-4l404 0 0 144 -365 0c-55,0 -91,3 -109,7 -37,9 -55,37 -55,84 0,39 15,66 46,80 21,9 55,14 103,14l131 0c67,0 117,6 150,17 58,19 97,54 119,102 17,39 26,81 26,126 0,49 -11,93 -34,133 -32,56 -80,89 -144,99 -31,5 -78,8 -140,8l-410 0zm1025 -286l0 286 -173 0 0 -814 407 0c74,0 127,5 159,15 53,18 95,55 126,111 23,42 35,87 35,138 0,41 -8,80 -23,117 -15,37 -36,67 -63,91 -24,21 -49,36 -77,44 -27,8 -65,12 -112,12l-278 0zm0 -144l236 0c42,0 71,-7 89,-20 25,-20 38,-56 38,-106 0,-55 -19,-90 -58,-106 -14,-5 -36,-8 -65,-8l-240 0 0 240zm664 430l0 -814 173 0 0 814 -173 0zm521 -670l-259 0 0 -144 702 0 0 144 -270 0 0 670 -173 0 0 -670zm350 670l337 -814 200 0 337 814 -203 0 -79 -188 -310 0 -79 188 -203 0zm437 -618l-116 286 232 0 -116 -286zm515 -196l173 0 0 458c2,58 5,97 8,116 6,37 23,62 53,76 30,14 83,21 158,21l166 0 0 144 -184 0c-87,0 -150,-4 -189,-15 -90,-26 -147,-83 -171,-171 -9,-34 -14,-91 -14,-171l0 -458zm645 814l0 -144 372 0c60,0 100,-6 120,-18 29,-17 43,-43 43,-77 0,-40 -17,-69 -50,-87 -19,-10 -50,-16 -92,-16l-151 0c-92,0 -159,-17 -200,-50 -25,-21 -45,-48 -60,-80 -14,-32 -22,-66 -22,-102 0,-57 17,-110 50,-157 33,-46 85,-72 157,-80 24,-2 61,-4 109,-4l404 0 0 144 -365 0c-55,0 -91,3 -109,7 -37,9 -55,37 -55,84 0,39 15,66 46,80 21,9 55,14 103,14l131 0c67,0 117,6 150,17 58,19 97,54 119,102 17,39 26,81 26,126 0,49 -11,93 -34,133 -32,56 -80,89 -144,99 -31,5 -78,8 -140,8l-410 0z"/>
   <path class="fil3" d="M450 5358l202 0 0 33 -164 0 0 149 155 0 0 35 -155 0 0 162 167 0 0 36 -206 0 0 -415zm263 117l47 0 71 111 73 -111 42 0 -95 137 105 161 -46 0 -82 -130 -82 130 -42 0 104 -158 -95 -140zm326 247l0 176 -38 0 0 -423 35 0 0 59c11,-21 26,-37 43,-48 18,-11 37,-17 59,-17 36,0 65,14 87,41 22,27 32,64 32,110 0,48 -11,86 -34,114 -22,28 -52,42 -90,42 -20,0 -39,-5 -55,-14 -16,-9 -30,-23 -40,-40zm179 -100c0,-38 -8,-68 -23,-89 -15,-21 -36,-32 -63,-32 -28,0 -50,11 -67,33 -17,22 -26,51 -26,88 0,39 8,70 24,92 16,22 39,33 68,33 26,0 47,-11 63,-34 16,-22 24,-52 24,-90zm344 -13l0 21 -210 0c1,38 11,67 30,87 19,20 45,30 78,30 13,0 27,-2 40,-5 13,-4 27,-9 40,-16l0 37c-13,6 -27,10 -40,13 -14,3 -28,4 -43,4 -44,0 -78,-14 -103,-42 -25,-28 -37,-67 -37,-116 0,-46 12,-84 36,-112 24,-28 56,-42 95,-42 35,0 64,13 85,38 21,25 31,60 31,103zm-36 -6c-2,-33 -10,-59 -25,-77 -14,-18 -34,-27 -59,-27 -24,0 -44,9 -60,28 -16,19 -26,44 -29,76l173 0zm241 -130l0 38c-4,-1 -8,-2 -12,-2 -3,-1 -6,-1 -9,-1 -25,0 -45,9 -59,28 -14,19 -21,45 -21,79l0 158 -38 0 0 -298 35 0 0 63c7,-21 18,-38 33,-49 15,-12 32,-18 52,-18 3,0 6,0 9,0 3,0 7,1 10,1zm121 -86l0 88 69 0 0 30 -69 0 0 174c0,24 3,41 10,50 6,9 17,14 33,14 5,0 10,-1 15,-2 5,-1 10,-3 15,-5l0 34c-6,2 -12,3 -19,4 -6,1 -13,1 -19,1 -26,0 -45,-7 -56,-21 -11,-14 -16,-37 -16,-70l0 -180 -61 0 0 -30 61 0 0 -75 38 -13zm137 88l38 0 0 298 -38 0 0 -298zm-3 -139l43 0 0 48 -43 0 0 -48zm289 146l0 35c-11,-5 -22,-9 -34,-11 -12,-2 -23,-4 -35,-4 -19,0 -34,4 -45,12 -11,8 -17,18 -17,31 0,18 19,35 58,53 4,2 7,3 8,4 30,14 51,28 62,41 11,13 17,29 17,47 0,26 -10,47 -29,62 -20,15 -46,23 -79,23 -15,0 -28,-1 -42,-3 -13,-2 -25,-6 -37,-11l0 -35c13,6 25,11 38,14 13,3 25,5 38,5 21,0 38,-5 51,-14 13,-10 20,-22 20,-37 0,-13 -4,-23 -12,-32 -8,-9 -27,-20 -57,-35 -30,-15 -51,-28 -61,-40 -10,-12 -15,-26 -15,-43 0,-22 9,-39 27,-53 18,-14 41,-21 70,-21 13,0 26,1 39,2 12,2 24,4 35,8zm310 127l0 21 -210 0c1,38 11,67 29,87 19,20 45,30 78,30 13,0 27,-2 40,-5 13,-4 27,-9 40,-16l0 37c-13,6 -27,10 -40,13 -14,3 -28,4 -43,4 -44,0 -78,-14 -103,-42 -25,-28 -37,-67 -37,-116 0,-46 12,-84 36,-112 24,-28 56,-42 95,-42 35,0 64,13 84,38 21,25 31,60 31,103zm-36 -6c-2,-33 -10,-59 -25,-77 -14,-18 -34,-27 -59,-27 -24,0 -44,9 -60,28 -16,19 -26,44 -29,76l173 0zm608 -245l202 0 0 33 -164 0 0 149 155 0 0 35 -155 0 0 162 167 0 0 36 -206 0 0 -415zm263 117l47 0 71 111 73 -111 42 0 -95 137 105 161 -46 0 -82 -130 -82 130 -42 0 104 -158 -95 -140zm484 9l-3 38c-10,-5 -20,-9 -31,-12 -11,-3 -23,-4 -36,-4 -32,0 -58,11 -78,33 -20,22 -30,50 -30,85 0,36 10,65 29,86 19,21 45,32 78,32 11,0 23,-1 34,-4 12,-3 24,-7 36,-12l3 37c-12,5 -24,8 -37,10 -13,2 -26,3 -39,3 -43,0 -78,-14 -105,-42 -26,-28 -40,-65 -40,-111 0,-45 14,-81 42,-109 28,-28 64,-42 109,-42 13,0 25,1 36,3 11,2 22,5 33,9zm293 125l0 21 -210 0c1,38 11,67 30,87 19,20 45,30 78,30 13,0 27,-2 40,-5 13,-4 27,-9 40,-16l0 37c-13,6 -27,10 -40,13 -14,3 -28,4 -43,4 -44,0 -78,-14 -103,-42 -25,-28 -37,-67 -37,-116 0,-46 12,-84 36,-112 24,-28 56,-42 95,-42 35,0 64,13 85,38 21,25 31,60 31,103zm-36 -6c-2,-33 -10,-59 -25,-77 -14,-18 -34,-27 -59,-27 -24,0 -44,9 -60,28 -16,19 -26,44 -29,76l173 0zm99 -276l38 0 0 445 -38 0 0 -445zm136 0l38 0 0 445 -38 0 0 -445zm362 282l0 21 -210 0c1,38 11,67 30,87 19,20 45,30 78,30 13,0 27,-2 40,-5 13,-4 27,-9 40,-16l0 37c-13,6 -27,10 -40,13 -14,3 -28,4 -43,4 -44,0 -78,-14 -103,-42 -25,-28 -37,-67 -37,-116 0,-46 12,-84 36,-112 24,-28 56,-42 95,-42 35,0 64,13 85,38 21,25 31,60 31,103zm-36 -6c-2,-33 -10,-59 -25,-77 -14,-18 -34,-27 -59,-27 -24,0 -44,9 -60,28 -16,19 -26,44 -29,76l173 0zm338 -12l0 182 -38 0 0 -173c0,-33 -6,-58 -17,-74 -12,-16 -30,-24 -54,-24 -28,0 -49,10 -65,30 -16,20 -23,49 -23,85l0 155 -38 0 0 -298 35 0 0 56c11,-21 25,-37 42,-47 17,-10 37,-16 60,-16 32,0 57,10 73,31 17,21 25,51 25,91zm294 -107l-3 38c-10,-5 -20,-9 -31,-12 -11,-3 -23,-4 -36,-4 -32,0 -58,11 -78,33 -20,22 -30,50 -30,85 0,36 10,65 29,86 19,21 45,32 78,32 11,0 23,-1 34,-4 12,-3 24,-7 36,-12l4 37c-12,5 -24,8 -37,10 -13,2 -26,3 -39,3 -43,0 -78,-14 -105,-42 -26,-28 -40,-65 -40,-111 0,-45 14,-81 42,-109 28,-28 64,-42 109,-42 13,0 25,1 36,3 11,2 22,5 33,9zm293 125l0 21 -210 0c1,38 11,67 29,87 19,20 45,30 78,30 13,0 27,-2 40,-5 13,-4 27,-9 40,-16l0 37c-13,6 -27,10 -40,13 -14,3 -28,4 -43,4 -44,0 -78,-14 -103,-42 -25,-28 -37,-67 -37,-116 0,-46 12,-84 36,-112 24,-28 56,-42 95,-42 35,0 64,13 84,38 21,25 31,60 31,103zm-36 -6c-2,-33 -10,-59 -25,-77 -14,-18 -34,-27 -59,-27 -24,0 -44,9 -60,28 -16,19 -26,44 -29,76l173 0zm608 -245l202 0 0 33 -164 0 0 149 155 0 0 35 -155 0 0 162 167 0 0 36 -206 0 0 -415zm516 177c10,-21 24,-37 41,-49 17,-11 36,-17 56,-17 30,0 53,10 69,31 16,21 23,51 23,91l0 182 -38 0 0 -173c0,-33 -5,-58 -15,-73 -10,-15 -26,-23 -47,-23 -26,0 -47,10 -62,30 -15,20 -22,48 -22,84l0 155 -37 0 0 -173c0,-33 -5,-57 -15,-73 -10,-16 -26,-23 -47,-23 -26,0 -47,10 -62,30 -15,20 -23,48 -23,84l0 155 -38 0 0 -298 35 0 0 56c10,-20 23,-36 40,-46 16,-11 35,-16 55,-16 21,0 39,6 53,17 15,11 26,28 33,49zm326 187l0 176 -38 0 0 -423 35 0 0 59c11,-21 26,-37 43,-48 18,-11 37,-17 59,-17 36,0 65,14 87,41 22,27 32,64 32,110 0,48 -11,86 -34,114 -22,28 -52,42 -90,42 -20,0 -39,-5 -55,-14 -16,-9 -30,-23 -40,-40zm179 -100c0,-38 -8,-68 -23,-89 -15,-21 -36,-32 -63,-32 -28,0 -50,11 -67,33 -17,22 -26,51 -26,88 0,39 8,70 24,92 16,22 39,33 68,33 26,0 47,-11 63,-34 16,-22 24,-52 24,-90zm241 -1c-35,0 -62,6 -81,18 -19,12 -28,28 -28,50 0,17 5,31 17,42 11,11 25,16 43,16 28,0 50,-9 66,-26 16,-17 25,-41 25,-71l0 -27 -42 0zm79 -39l0 190 -33 0 0 -51c-11,18 -25,32 -42,42 -17,9 -36,14 -57,14 -29,0 -52,-8 -69,-23 -17,-16 -26,-36 -26,-62 0,-32 13,-56 40,-74 26,-18 64,-26 112,-26l38 0c0,-1 0,-3 0,-5 0,-2 0,-4 0,-5 0,-25 -6,-44 -19,-58 -12,-14 -30,-21 -51,-21 -15,0 -30,2 -44,6 -14,4 -28,10 -42,19l0 -37c15,-7 30,-13 45,-16 15,-4 30,-6 45,-6 34,0 60,10 77,29 17,19 26,48 26,86zm160 -196l0 88 69 0 0 30 -69 0 0 174c0,24 3,41 10,50 6,9 17,14 33,14 5,0 10,-1 15,-2 5,-1 10,-3 15,-5l0 34c-6,2 -12,3 -19,4 -6,1 -13,1 -19,1 -26,0 -45,-7 -56,-21 -11,-14 -16,-37 -16,-70l0 -180 -61 0 0 -30 61 0 0 -75 38 -13zm141 -59l38 0 0 199c10,-19 24,-34 41,-43 17,-10 36,-15 58,-15 32,0 57,10 73,31 17,21 25,51 25,91l0 182 -38 0 0 -173c0,-33 -6,-58 -17,-74 -12,-16 -30,-24 -54,-24 -28,0 -49,10 -65,30 -16,20 -23,49 -23,85l0 155 -38 0 0 -445zm288 148l40 0 86 258 87 -258 38 0 -119 342c-11,31 -23,53 -36,66 -13,13 -30,20 -51,20 -5,0 -10,0 -15,-1 -5,-1 -10,-1 -16,-3l3 -34c0,0 1,0 2,0 12,2 20,3 23,3 14,0 26,-6 36,-18 9,-12 20,-34 30,-66l-108 -310z"/>
   <path class="fil5" d="M2917 5505c41,0 74,33 74,74 0,41 -33,74 -74,74 -41,0 -74,-33 -74,-74 0,-41 33,-74 74,-74z"/>
   <path class="fil5" d="M5971 5505c41,0 74,33 74,74 0,41 -33,74 -74,74 -41,0 -74,-33 -74,-74 0,-41 33,-74 74,-74z"/>
   <path class="fil6" d="M6732 560c-33,13 -15,18 12,27 30,10 60,20 89,30 -11,6 -23,13 -34,19 -25,14 -21,11 4,21 36,15 73,30 109,44 -62,33 -22,23 28,51 55,31 55,23 -1,50 -65,31 -62,19 4,49 -114,42 -105,35 -30,53 61,15 108,15 17,34 -203,44 66,48 -50,74 -68,15 -100,9 -57,36 34,21 39,16 -10,28 -41,10 -39,8 -10,54 -29,105 17,36 110,-26 32,-6 55,-4 87,-10 107,-30 -77,-69 84,-77 34,-2 35,-19 12,-39 -62,-53 12,-22 74,-17 38,3 77,6 115,9 -98,47 -56,32 53,79 -54,47 -14,32 62,56 -25,34 -22,25 23,31 156,22 146,52 94,-76 -4,-11 -3,-16 -15,-18 -19,-3 -38,-7 -57,-10 33,-22 95,-77 47,-92 -169,-57 -119,-34 -23,-62 32,-9 67,-23 17,-33 -23,-5 -60,-14 -120,-21 -95,-11 -27,-14 22,-23 122,-24 210,-57 4,-61 -127,-2 28,-30 68,-40 155,-38 290,-53 -108,-66 -126,-4 12,-21 94,-27 142,-11 352,-83 222,-71 -119,10 -244,25 -367,15 -54,-4 43,-5 107,-10 283,-20 470,-144 297,-106 -219,56 -593,44 -864,28 -79,-5 -143,-10 -193,-14 -136,-11 -103,0 -54,26 66,35 262,67 139,85zm314 -126c42,-2 83,-4 125,-6 228,-10 245,16 35,-70 169,-38 203,-24 23,-56 10,-6 20,-12 30,-19 75,-46 8,-36 -62,-56 95,-36 81,-21 -13,-61 17,-159 38,-161 -56,-39 -189,53 40,43 -40,71 -143,50 151,37 -1,67 -229,44 223,40 -67,87 -71,11 114,20 4,63 -91,36 -36,22 22,19l0 0z"/>
  </g>
 </g>
</svg>
