<?xml version="1.0" encoding="utf-8"?>
<!-- Generator: Adobe Illustrator 24.1.2, SVG Export Plug-In . SVG Version: 6.00 Build 0)  -->
<svg version="1.1" id="Layer_1" xmlns="http://www.w3.org/2000/svg" xmlns:xlink="http://www.w3.org/1999/xlink" x="0px" y="0px"
	 viewBox="0 0 294 492" style="enable-background:new 0 0 294 492;" xml:space="preserve">
<style type="text/css">
	.st0{fill:#482E7A;}
</style>
<g>
	<g>
		<path class="st0" d="M14.2,264.7L227,477.5c4.9,4.9,11.5,7.6,18.5,7.6s13.6-2.7,18.5-7.6l15.7-15.7c10.2-10.2,10.2-26.8,0-37
			L100.9,246.1L279.8,67.2c4.9-4.9,7.6-11.5,7.6-18.5s-2.7-13.6-7.6-18.5l-15.7-15.7c-4.9-4.9-11.5-7.6-18.5-7.6s-13.6,2.7-18.5,7.6
			l-213,213c-4.9,4.9-7.6,11.5-7.6,18.6C6.5,253.1,9.2,259.7,14.2,264.7z"/>
	</g>
</g>
</svg>
